<svg width="86" height="86" viewBox="0 0 86 86" fill="none" xmlns="http://www.w3.org/2000/svg">
<path fill-rule="evenodd" clip-rule="evenodd" d="M3.88411 17.807C2.21416 18.4593 0.992863 19.6651 0.308055 21.3379C0.0173008 22.0484 0 22.924 0 36.9593V51.8281L0.551105 52.9474C1.22147 54.3092 2.40313 55.427 3.74537 55.969C4.68683 56.3493 4.82809 56.3567 12.0565 56.4062L19.4098 56.4566L19.909 55.9574C20.4976 55.3689 20.5355 54.9676 20.06 54.3632L19.712 53.9206H15.6088H11.5059V52.7449V51.5691H36.8691C62.0085 51.5691 62.2354 51.5661 62.5684 51.2332C62.9928 50.8087 62.9995 50.0443 62.5831 49.5301L62.2622 49.1335L36.8839 49.0894L11.5059 49.0454V47.9556V46.866H42.916H74.3262V47.9492V49.0326L70.2801 49.083L66.2341 49.1335L65.829 49.6049C65.3326 50.1823 65.3188 50.5504 65.772 51.1265L66.1201 51.5691H70.2232H74.3262V52.7449V53.9206H48.9629C23.8235 53.9206 23.5966 53.9237 23.2637 54.2566C22.8392 54.681 22.8325 55.4456 23.2489 55.9596L23.5699 56.3562H52.3495H81.1289L82.0867 55.9692C83.4291 55.4268 84.6107 54.309 85.2809 52.9474L85.832 51.8281V36.8754V21.9226L85.3605 20.9623C84.7394 19.6972 83.6127 18.5621 82.4256 18.0057L81.4648 17.5554L50.6139 17.5121L19.7629 17.4688L19.4137 17.9127C19.2215 18.1567 19.0645 18.4562 19.0645 18.578C19.0645 19.0221 19.4474 19.6224 19.8467 19.8045C20.1418 19.9389 28.6897 19.991 50.4892 19.991C79.9091 19.991 80.7391 19.9995 81.3456 20.3115C81.6882 20.4878 82.1727 20.8469 82.4218 21.1093C83.4368 22.1789 83.3965 21.5279 83.3965 36.8414C83.3965 46.9751 83.3429 51.0049 83.2028 51.4181C82.9005 52.3097 82.4337 52.8722 81.5799 53.3741C80.8647 53.7945 80.6131 53.842 78.8193 53.8963L76.8457 53.9561V49.5635V45.171L76.4333 44.7588L76.0211 44.3464H42.916H9.81089L9.39869 44.7588L8.98633 45.171V49.5635V53.9561L7.0127 53.8896C5.38945 53.8348 4.91409 53.7574 4.33494 53.4535C3.55338 53.0433 2.91695 52.285 2.6267 51.4181C2.48997 51.0094 2.43555 46.8651 2.43555 36.8414C2.43555 21.5277 2.39523 22.1784 3.41027 21.1098C4.38802 20.0803 4.37475 20.0825 10.3872 19.991L15.9033 19.907L16.2241 19.5104C16.6413 18.9947 16.6323 18.3005 16.2024 17.8391C15.8631 17.4748 15.8087 17.4714 10.2815 17.4793C5.20653 17.4864 4.62922 17.5159 3.88411 17.807ZM41.3128 25.6104C41.086 25.8371 40.9004 26.1358 40.9004 26.2742C40.9004 26.7462 41.2726 27.3441 41.6826 27.5311C41.9705 27.6623 45.6946 27.7175 54.2391 27.7175C66.2738 27.7175 66.3905 27.7143 66.8289 27.3693C67.3835 26.9331 67.4358 26.0341 66.9355 25.5339C66.6057 25.204 66.3757 25.198 54.1624 25.198H41.7249L41.3128 25.6104ZM70.996 25.5867C70.5116 26.1025 70.5306 26.7925 71.0432 27.3052C71.4405 27.7026 71.5384 27.7175 73.7383 27.7175C75.9382 27.7175 76.0361 27.7026 76.4333 27.3052C76.9372 26.8014 76.9594 26.2276 76.4975 25.6406C76.1507 25.1995 76.1417 25.198 73.7554 25.198C71.47 25.198 71.3447 25.2156 70.996 25.5867ZM22.8103 60.1775C22.6027 60.4056 22.4215 60.9107 22.3534 61.4515C22.0975 63.4826 21.0122 65.466 19.3799 66.8858C18.5427 67.6138 18.3926 67.8301 18.3926 68.3072C18.3926 68.9903 18.8901 69.5417 19.5065 69.5417C21.1631 69.5417 24.0647 65.7347 24.6916 62.739C25.0357 61.0941 25.01 60.6908 24.531 60.2119C24.0061 59.6868 23.2702 59.6721 22.8103 60.1775ZM31.8618 60.142C31.5025 60.4766 31.4941 60.5804 31.4941 64.6772C31.4941 68.646 31.5121 68.8878 31.8301 69.2058C32.2545 69.6303 33.0191 69.637 33.5331 69.2206L33.9297 68.8996V64.6706V60.4417L33.5331 60.1207C33.0176 59.7031 32.3232 59.712 31.8618 60.142ZM42.4121 60.1355C42.0941 60.4535 42.0762 60.6953 42.0762 64.6706C42.0762 68.646 42.0941 68.8878 42.4121 69.2058C42.8366 69.6303 43.6012 69.637 44.1151 69.2206L44.5117 68.8996V64.6706V60.4417L44.1151 60.1207C43.6012 59.7043 42.8366 59.711 42.4121 60.1355ZM52.2989 60.1207L51.9023 60.4417V64.6382C51.9023 68.5291 51.9257 68.8603 52.2223 69.1882C52.6399 69.6496 53.5493 69.6585 54.002 69.2058C54.3199 68.8878 54.3379 68.646 54.3379 64.6772C54.3379 60.5804 54.3295 60.4766 53.9702 60.142C53.5088 59.712 52.8144 59.7031 52.2989 60.1207ZM61.301 60.2119C60.822 60.6908 60.7963 61.0941 61.1405 62.739C61.7673 65.7347 64.669 69.5417 66.3255 69.5417C66.9455 69.5417 67.4395 68.9905 67.4395 68.2986C67.4395 67.8102 67.2952 67.6024 66.4441 66.865C64.7773 65.4211 63.7381 63.5159 63.4747 61.4218C63.2834 59.9008 62.2097 59.303 61.301 60.2119Z" fill="#4A5568"/>
</svg>
