<svg width="86" height="86" viewBox="0 0 86 86" fill="none" xmlns="http://www.w3.org/2000/svg">
<path fill-rule="evenodd" clip-rule="evenodd" d="M12.8066 8.26696C11.2151 8.71409 9.88191 9.51564 8.64011 10.7715C6.64162 12.7929 5.87367 14.7114 5.87367 17.683C5.87367 19.2419 5.90575 19.4122 6.26235 19.7473C6.75013 20.2055 7.38052 20.2144 7.85755 19.77C8.05978 19.5817 8.23245 19.4115 8.24136 19.392C8.25026 19.3726 8.31341 18.4874 8.38161 17.425C8.48558 15.8084 8.58384 15.3289 8.98411 14.4855C9.59434 13.1999 11.0352 11.753 12.3405 11.1149C13.2603 10.6652 13.5023 10.6222 15.1119 10.6222C16.7337 10.6222 16.9635 10.6639 17.9679 11.1399C20.0257 12.1151 21.481 14.082 21.8327 16.3639C21.9298 16.9936 21.9879 18.8317 21.9619 20.4484L21.9147 23.3878L20.7137 23.4369L19.5127 23.4859L19.4534 19.9095C19.398 16.5688 19.3683 16.2808 19.0026 15.5372C17.4536 12.3877 13.2514 12.203 11.3866 15.2022C11.0006 15.823 10.9959 15.8938 10.9127 22.296L10.8287 28.7628L9.61097 28.8122L8.3932 28.8616V26.6117C8.3932 24.2561 8.22758 23.4068 7.71477 23.1324C7.22078 22.868 6.57158 22.9419 6.20961 23.3039C5.90088 23.6126 5.87367 23.8637 5.87367 26.3999V29.1599L5.38421 29.5085C4.46156 30.1654 4.19398 31.043 4.19398 33.4115V35.5187L3.36556 35.6168C1.79808 35.8026 0.647489 36.6896 0.185911 38.0681C-0.0903972 38.8934 -0.0517644 40.8401 0.255618 41.5758C0.557458 42.2983 1.22917 43.0531 1.86677 43.3862L2.31088 43.6183L2.39084 48.2004C2.47835 53.2282 2.61457 54.2928 3.61449 57.7668L4.19398 59.78V68.2271V76.6743L3.40268 76.7635C2.13116 76.9067 1.54259 78.0978 2.34633 78.9015C2.68025 79.2354 2.90616 79.2375 41.0566 79.2375H79.4309L79.7734 78.8698C80.2032 78.4084 80.2122 77.714 79.7949 77.1985L79.474 76.8019L72.7113 76.7179L65.9485 76.6339L66.8512 76.214C70.4187 74.5545 74.2126 71.5789 76.917 68.3195C79.5454 65.1518 81.8254 60.728 82.804 56.8976C83.5782 53.8676 83.6853 52.9018 83.7666 48.2262L83.8459 43.6702L84.6035 43.0368C85.6156 42.1909 85.9863 41.3343 85.9911 39.8318C85.9971 37.9002 85.4147 36.7313 84.0954 36.026L83.3912 35.6496L67.435 35.6042C56.2273 35.5725 51.3477 35.6133 51.0379 35.7416C50.614 35.9171 50.2174 36.5151 50.2174 36.9785C50.2174 37.1003 50.3731 37.398 50.5636 37.64L50.9098 38.0801L66.9541 38.1246C85.2881 38.1755 83.4752 37.9947 83.4752 39.7708C83.4752 41.2735 83.5444 41.2496 78.9962 41.3094C75.453 41.356 75.0803 41.3887 74.7581 41.6805C74.2971 42.0981 74.2883 43.0076 74.7408 43.4601C75.0528 43.772 75.3007 43.7961 78.2037 43.7961H81.3306L81.2446 48.2892C81.1494 53.2705 80.9644 54.545 79.8531 57.8806C78.4568 62.0717 76.4323 65.308 73.1572 68.5845C69.1206 72.623 64.7694 74.9929 59.0776 76.2528C57.3626 76.6324 57.302 76.6339 43.0787 76.6339C28.8874 76.6339 28.7912 76.6316 27.0942 76.2558C21.3888 74.9921 17.0679 72.6388 12.9989 68.5797C9.72922 65.3179 7.70369 62.0806 6.30434 57.8806C5.19306 54.545 5.00813 53.2705 4.91289 48.2892L4.82689 43.7961H12.9929C20.9349 43.7961 21.1681 43.7868 21.4948 43.4601C21.9474 43.0074 21.9385 42.0981 21.4773 41.6805C21.1403 41.3755 20.7028 41.3583 12.1214 41.3141C1.80009 41.2611 2.51429 41.3758 2.51429 39.7708C2.51429 38.033 1.66689 38.1812 12.153 38.0851C20.4888 38.0087 21.3409 37.9753 21.6009 37.7152C22.0487 37.2671 21.9661 36.4205 21.4294 35.959C20.9856 35.5772 20.8807 35.5656 17.874 35.5656H14.776L14.775 33.5919C14.774 31.2827 14.6292 30.6406 13.9397 29.8855L13.4323 29.3301V22.9446V16.5592L13.9232 16.0683C14.8718 15.1198 16.4169 15.5617 16.7849 16.8866C16.88 17.2289 16.9581 19.1226 16.9586 21.0951L16.9596 24.6812L17.5156 25.2372C18.1915 25.9131 18.9601 26.0602 21.2873 25.9594C23.3293 25.8709 23.8722 25.6186 24.2718 24.5727C24.5242 23.9112 24.5494 23.3178 24.477 19.7399C24.4048 16.1816 24.3489 15.522 24.0381 14.5695C23.0999 11.694 20.9924 9.50086 18.2121 8.50648C16.8993 8.03701 14.071 7.91171 12.8066 8.26696ZM12.0549 31.5679C12.1879 31.701 12.2565 32.4152 12.2565 33.6675V35.5656H9.485H6.71351V33.6675C6.71351 32.4152 6.78204 31.701 6.91507 31.5679C7.05281 31.4302 7.86695 31.3664 9.485 31.3664C11.103 31.3664 11.9172 31.4302 12.0549 31.5679ZM26.3393 34.5613C25.4526 35.0298 24.7261 35.9932 24.5128 36.9837C24.386 37.5735 24.346 42.9515 24.3821 54.5746L24.4342 71.3159L24.8417 71.7496C25.0658 71.9881 25.5193 72.2584 25.8495 72.3501C26.6759 72.5797 45.5601 72.5741 46.3886 72.344C46.7307 72.2489 47.1652 71.9747 47.3544 71.7345C47.6907 71.3068 47.6979 71.1091 47.6979 62.4179C47.6979 53.7621 47.6895 53.5298 47.3619 53.2023C46.9377 52.778 46.1731 52.7711 45.6589 53.187C45.2753 53.4973 45.2607 53.5992 45.2091 56.2959L45.1557 59.0841L36.0548 59.0407L26.9537 58.9972L26.9106 48.2617C26.8726 38.8576 26.8992 37.4774 27.1244 37.1337L27.3814 36.7414H36.016C43.6416 36.7414 44.6813 36.7723 44.9145 37.0052C45.1439 37.2349 45.1783 38.009 45.1783 42.9431C45.1783 46.4718 45.245 48.8082 45.3547 49.1228C45.5205 49.5987 46.0946 50.0109 46.5913 50.0109C46.7131 50.0109 47.0144 49.8522 47.261 49.6583L47.7091 49.3058L47.6616 42.8699L47.6139 36.4338L47.11 35.7186C46.8328 35.3254 46.273 34.8275 45.8658 34.6127L45.1254 34.2218L36.0397 34.2292C27.3915 34.2363 26.9242 34.2522 26.3393 34.5613ZM50.7867 41.6699C50.1936 42.18 50.1583 43.038 50.7119 43.4863C51.0739 43.7794 51.6205 43.7961 60.8834 43.7961C70.1464 43.7961 70.693 43.7794 71.0549 43.4863C71.6086 43.038 71.5733 42.18 70.9802 41.6699L70.5228 41.2765H60.8834H51.244L50.7867 41.6699ZM45.1783 62.6925V63.7843H36.0241H26.8698V62.6925V61.6007H36.0241H45.1783V62.6925ZM7.76936 66.3571C8.80254 67.8586 11.1252 70.5602 11.7895 71.0334L12.2565 71.3658V74.0418V76.7179H9.485H6.71351V70.811C6.71351 67.5623 6.75399 64.9447 6.80354 64.9942C6.85309 65.0438 7.2878 65.657 7.76936 66.3571ZM45.1783 68.153V70.002L36.066 69.9587L26.9537 69.9152L26.905 68.3321C26.8783 67.4613 26.8948 66.6489 26.9418 66.5264C27.0112 66.3455 28.7233 66.3039 36.1028 66.3039H45.1783V68.153ZM18.5553 75.826L20.235 76.7107L17.5055 76.7144L14.776 76.7179V75.116V73.5139L15.8258 74.2276C16.4033 74.6202 17.6315 75.3394 18.5553 75.826Z" fill="#4A5568"/>
</svg>
