<svg width="86" height="86" viewBox="0 0 86 86" fill="none" xmlns="http://www.w3.org/2000/svg">
<path fill-rule="evenodd" clip-rule="evenodd" d="M13.5111 13.5386C12.7087 13.7324 11.2689 14.5758 10.8108 15.1202C10.5824 15.3916 10.1918 15.9997 9.94291 16.4717L9.49023 17.3295L9.44304 29.4469L9.39584 41.5644L8.60319 41.6814C7.61369 41.8276 5.99716 42.6716 5.44101 43.3326C5.20972 43.6075 4.81684 44.2184 4.56791 44.6904L4.11523 45.5482L4.06367 51.6371L4.0121 57.726H3.09012C2.33544 57.726 2.09356 57.8007 1.75611 58.1383C1.34711 58.5472 1.34375 58.5766 1.34375 61.7572C1.34375 64.9379 1.34711 64.9673 1.75611 65.3761C2.09457 65.7147 2.33477 65.7885 3.09986 65.7885H4.03125V68.7355C4.03125 71.6407 4.03713 71.6886 4.44361 72.0949C4.84489 72.4963 4.92333 72.5072 7.39062 72.5072C10.6994 72.5072 10.4843 72.7157 11.2484 68.7699L11.8257 65.7885H43H74.1743L74.7516 68.7699C75.5157 72.7157 75.3006 72.5072 78.6094 72.5072C81.0767 72.5072 81.1551 72.4963 81.5564 72.0949C81.9629 71.6886 81.9688 71.6407 81.9688 68.7355V65.7885H82.9001C83.6652 65.7885 83.9054 65.7147 84.2439 65.3761C84.6529 64.9673 84.6562 64.9379 84.6562 61.7572C84.6562 58.5766 84.6529 58.5472 84.2439 58.1383C83.9064 57.8007 83.6646 57.726 82.9099 57.726H81.9879L81.9363 51.6371L81.8848 45.5482L81.3108 44.4899C80.9952 43.9077 80.512 43.242 80.2372 43.0107C79.4885 42.3809 78.2768 41.8151 77.3916 41.6824L76.6042 41.5644L76.557 29.4469L76.5098 17.3295L75.9358 16.2711C75.2984 15.0955 74.7753 14.5892 73.5043 13.9189L72.6465 13.4662L43.3359 13.4402C27.2151 13.4259 13.7939 13.4702 13.5111 13.5386ZM72.2937 16.3039C72.602 16.4327 73.072 16.8236 73.3382 17.1726L73.8223 17.807L73.8676 29.7041L73.9128 41.601H72.5806H71.2486L71.1889 38.1996C71.1306 34.8931 71.1165 34.7744 70.6792 33.9404C70.0146 32.6723 69.5071 32.1472 68.3299 31.5089L67.2715 30.935H57.7812H48.291L47.4332 31.3876C46.1622 32.058 45.6391 32.5643 45.0017 33.7399L44.4277 34.7982L44.3708 38.1996L44.3139 41.601H43H41.6861L41.6264 38.1996C41.5681 34.8931 41.554 34.7744 41.1167 33.9404C40.4521 32.6723 39.9446 32.1472 38.7674 31.5089L37.709 30.935H28.2188H18.7285L17.8707 31.3876C16.5997 32.058 16.0766 32.5643 15.4392 33.7399L14.8652 34.7982L14.8083 38.1996L14.7514 41.601H13.4226H12.0938V29.9381C12.0938 22.0847 12.1522 18.1208 12.273 17.8023C12.5113 17.1729 13.0717 16.5814 13.6895 16.3069C14.4574 15.9654 71.4771 15.9626 72.2937 16.3039ZM37.3563 33.7726C37.6645 33.9015 38.1344 34.2922 38.4007 34.6409L38.8848 35.2749L38.937 38.438L38.9891 41.601H28.229H17.4688V38.6724C17.4688 35.6369 17.5621 35.0868 18.1939 34.399C18.9716 33.5521 18.9711 33.5521 28.1821 33.545C35.1789 33.5397 36.9012 33.5825 37.3563 33.7726ZM66.9187 33.7726C67.227 33.9015 67.697 34.2922 67.9632 34.6409L68.4473 35.2749L68.4995 38.438L68.5516 41.601H57.7915H47.0312V38.6724C47.0312 35.6369 47.1246 35.0868 47.7564 34.399C48.5341 33.5521 48.5336 33.5521 57.7446 33.545C64.7414 33.5397 66.4637 33.5825 66.9187 33.7726ZM77.6687 44.5226C77.977 44.6515 78.447 45.0422 78.7132 45.3912L79.1973 46.0254L79.2455 51.8758L79.2937 57.726H43.0062H6.71875V52.1099C6.71875 46.2871 6.75973 45.8938 7.44387 45.149C8.26591 44.2537 6.2518 44.3021 42.9634 44.295C71.7902 44.2895 77.1957 44.3249 77.6687 44.5226ZM81.9688 61.7572V63.101H43H4.03125V61.7572V60.4135H43H81.9688V61.7572ZM9.02026 66.2504C8.9697 66.5044 8.79434 67.4116 8.63074 68.266L8.33327 69.8197H7.52601H6.71875V67.8041V65.7885H7.91553H9.1123L9.02026 66.2504ZM79.2812 67.8041V69.8197H78.474H77.6667L77.3693 68.266C77.2057 67.4116 77.0303 66.5044 76.9797 66.2504L76.8877 65.7885H78.0845H79.2812V67.8041Z" fill="#4A5568"/>
</svg>
