<svg width="86" height="86" viewBox="0 0 86 86" fill="none" xmlns="http://www.w3.org/2000/svg">
<path fill-rule="evenodd" clip-rule="evenodd" d="M20.2436 4.18213C15.1402 5.03861 10.8976 8.3958 8.83009 13.2135C8.28335 14.4877 8.27025 14.7457 8.72309 15.3213C9.17476 15.8956 10.0188 15.9263 10.5019 15.386C10.6877 15.1782 11.1056 14.4412 11.4307 13.7483C12.6442 11.1622 14.6351 9.13083 17.1793 7.88299C19.1345 6.92406 20.3623 6.64691 22.7362 6.6286C25.0799 6.61063 26.3701 6.93145 28.6151 8.09043C30.256 8.93766 32.4989 11.0942 33.4511 12.7405C34.119 13.8949 34.8046 15.8387 34.9964 17.1214C35.1086 17.8712 35.0928 17.9079 34.3828 18.5485C30.9941 21.606 29.4064 24.2824 28.7257 28.0856C28.5461 29.0887 28.2965 30.0098 28.1712 30.1328C27.8223 30.475 25.5233 31.192 24.1403 31.3902C20.2558 31.9465 15.5959 30.0806 13.0681 26.9567C11.5725 25.1084 10.6866 23.0932 10.3742 20.8292C10.1404 19.1344 9.95397 18.6881 9.38069 18.4506C8.78289 18.203 8.27714 18.3562 7.92675 18.8908C7.37162 19.7381 7.92205 22.8502 9.06239 25.3119C9.71562 26.7222 10.886 28.5077 11.5463 29.1015C11.7422 29.2775 11.9022 29.4762 11.9022 29.5429C11.9022 29.6097 11.3961 29.7917 10.7774 29.947C6.45972 31.0316 2.64027 34.4622 0.927497 38.7943C0.00417312 41.1292 -0.0366433 41.8399 0.0140833 54.6645L0.0604426 66.4065L0.473142 67.2144C1.04088 68.3257 1.88139 69.1439 2.98864 69.6632L3.92372 70.1018L12.3642 70.1524L20.8046 70.2029L20.8073 73.5117C20.8089 75.6438 20.8881 77.1531 21.03 77.7556C21.4262 79.4388 22.6296 80.7567 24.3111 81.3488C24.9554 81.5757 27.2563 81.6077 42.9765 81.6077C62.5806 81.6077 61.5558 81.6574 63.0353 80.635C63.8842 80.0482 64.7166 78.7387 64.958 77.6102C65.0627 77.1205 65.1483 75.2539 65.1483 73.4615V70.2029L73.5887 70.1524L82.0292 70.1018L82.9643 69.6632C84.0715 69.1439 84.912 68.3257 85.4798 67.2144L85.8925 66.4065V54.0608C85.8925 41.873 85.8878 41.6979 85.5241 40.3713C84.7896 37.6924 83.7658 35.8824 81.879 33.9277C80.0967 32.0811 77.7263 30.6176 75.5975 30.0492L74.8766 29.8567L75.5528 29.0884C77.0714 27.3633 78.3253 25.0156 78.9464 22.7346C79.4487 20.8907 79.4853 17.4209 79.0217 15.5959C78.3233 12.8455 76.7907 10.094 75.0513 8.46685C74.1264 7.60164 73.3287 7.44308 72.8062 8.02039C72.2542 8.63028 72.4118 9.25933 73.3958 10.3745C74.5903 11.7285 75.6759 13.5294 76.1662 14.9708C78.4116 21.5728 74.8465 28.6768 68.1911 30.8616C65.7045 31.6779 62.8611 31.66 60.4237 30.8122C58.9246 30.291 58.6372 30.0268 58.5119 29.0561C57.9767 24.909 56.1643 21.5328 53.0774 18.9321L52.0083 18.0315L52.1064 17.0899C52.3054 15.179 53.4196 12.7244 54.8532 11.0378C58.1583 7.14947 63.0104 5.69604 68.032 7.09001C69.6638 7.54285 70.0574 7.47315 70.5183 6.64926C70.7481 6.23841 70.7484 6.14082 70.521 5.72778C70.1755 5.10008 69.3208 4.71527 67.3754 4.31147C66.0436 4.03499 65.3583 3.9888 63.7206 4.06456C59.7743 4.24731 56.5733 5.65757 53.7921 8.43897C51.7856 10.4454 50.5063 12.7037 49.7998 15.4863C49.6628 16.0264 49.5146 16.5043 49.4706 16.5483C49.4266 16.5923 48.7914 16.439 48.0588 16.2075C44.986 15.2368 41.3982 15.3043 38.4756 16.3877C38.0518 16.545 37.6972 16.5927 37.6166 16.5036C37.541 16.4202 37.3885 15.9776 37.2774 15.5202C35.8558 9.65959 31.1429 5.27309 25.0989 4.18549C23.9642 3.98124 21.4504 3.97956 20.2436 4.18213ZM46.5597 18.4632C48.095 18.8522 50.3111 19.9566 51.4921 20.9211C53.2029 22.3181 54.8497 24.8085 55.4911 26.9688C55.6294 27.4344 55.8096 28.4776 55.8917 29.2869C56.4873 35.1643 52.9442 40.5286 47.2037 42.4405C46.0876 42.8123 45.6136 42.8709 43.6483 42.8801C41.0858 42.8922 39.8035 42.5973 37.7499 41.5228C31.4745 38.2393 29.2232 30.4078 32.7836 24.2463C34.4478 21.3662 37.8299 18.9236 41.0339 18.2878C42.4216 18.0123 45.1189 18.098 46.5597 18.4632ZM16.2006 32.546C16.7466 32.8151 17.5554 33.1554 17.998 33.3022C19.0683 33.6575 21.4911 34.0725 22.4942 34.0725C23.5838 34.0725 25.743 33.7693 26.756 33.474C28.3566 33.0076 28.681 33.1759 29.1229 34.7026C29.5265 36.097 30.384 37.881 31.2796 39.1888C31.7079 39.8145 32.0585 40.457 32.0585 40.6167C32.0585 41.0446 31.563 41.4205 30.5313 41.7756C29.1748 42.2422 27.8947 42.9305 27.6973 43.2995C27.4271 43.8043 27.4918 44.5739 27.8299 44.88C28.3187 45.3222 28.8548 45.2659 30.3788 44.6127C31.9819 43.9256 32.7791 43.7218 34.5192 43.5543C35.6077 43.4495 35.8119 43.4814 36.7028 43.8957C39.1649 45.0405 41.1128 45.4944 43.5643 45.4944C46.0016 45.4944 47.9683 45.0388 50.3837 43.915C51.3121 43.483 51.3411 43.4804 52.6513 43.7102C57.4345 44.5496 61.2142 48.1839 62.3228 53.0103C62.4954 53.762 62.5448 56.578 62.5448 65.6802C62.5448 77.2385 62.5404 77.3893 62.1985 77.8475C62.008 78.1027 61.6435 78.4673 61.3883 78.6578C60.9266 79.0026 60.8418 79.0041 42.9765 79.0041C25.1111 79.0041 25.0263 79.0026 24.5646 78.6578C24.3094 78.4673 23.9449 78.1027 23.7544 77.8475C23.4123 77.3891 23.4081 77.2393 23.4081 65.5962C23.4081 54.7955 23.4333 53.7175 23.7083 52.717C24.1055 51.2727 24.7345 49.8616 25.5302 48.6307C25.8873 48.0781 26.1796 47.5278 26.1796 47.4079C26.1796 46.5504 25.2101 45.8642 24.4218 46.1641C23.5709 46.4876 21.9353 49.4383 21.2638 51.8616C20.9356 53.0456 20.9057 53.6511 20.8447 60.3176L20.7792 67.4983H12.5531C3.49557 67.4983 3.73694 67.5247 2.97117 66.451L2.57997 65.9026L2.53345 54.6656C2.49431 45.2555 2.5279 43.1898 2.74022 41.9603C3.61399 36.8964 7.23338 33.2605 12.4901 32.1659C12.6749 32.1273 13.3621 32.0871 14.017 32.0764C15.017 32.0601 15.3671 32.1353 16.2006 32.546ZM75.0667 32.5742C79.5461 34.0345 82.6893 37.8056 83.3039 42.4562C83.4065 43.233 83.4529 48.0596 83.4226 54.8166L83.3729 65.9026L82.9817 66.451C82.216 67.5247 82.4573 67.4983 73.3998 67.4983H65.1737L65.1031 60.3176C65.0365 53.527 65.0123 53.0647 64.6594 51.8068C63.295 46.945 59.6431 43.0629 55.1542 41.702C54.5999 41.534 54.1188 41.3776 54.0852 41.3546C54.0515 41.3316 54.4022 40.8742 54.8643 40.3381C56.4616 38.4854 57.6522 36.1854 58.1212 34.0461C58.2294 33.5525 58.3758 33.0818 58.4467 33C58.5198 32.9159 58.8702 32.9693 59.2546 33.1231C60.744 33.7191 62.3469 33.9791 64.4764 33.9705C66.9232 33.9605 68.6128 33.5953 70.5574 32.6562C71.67 32.1187 71.8845 32.0715 72.8831 32.1425C73.4881 32.1857 74.4708 32.3799 75.0667 32.5742Z" fill="#4A5568"/>
</svg>
