<svg width="86" height="86" viewBox="0 0 86 86" fill="none" xmlns="http://www.w3.org/2000/svg">
<path fill-rule="evenodd" clip-rule="evenodd" d="M20.9123 0.316618C20.5428 0.48761 20.0365 0.845048 19.7874 1.11077C18.7722 2.19333 18.8127 1.54397 18.8127 16.7611V30.6795L19.2098 31.4639L19.6069 32.2481L19.2098 33.0324L18.8127 33.8168V49.7161V65.6153L19.2014 65.9806C19.7172 66.4651 20.4072 66.4461 20.9199 65.9334C21.2825 65.571 21.3323 65.3731 21.3323 64.2939V63.0666L24.0278 60.3809C25.5103 58.9039 26.8898 57.4309 27.0932 57.1075C27.4628 56.52 27.4631 56.5116 27.5471 45.0138L27.6311 33.5079H45.6281C63.0903 33.5079 63.6357 33.5175 63.9787 33.8279C64.3264 34.1425 64.3323 34.2549 64.3323 40.566C64.3323 46.8047 64.342 46.9965 64.6805 47.4266C65.1355 48.0051 65.9703 48.03 66.4866 47.4806C66.8488 47.0949 66.8518 47.038 66.8518 40.4543V33.8168L66.4547 33.0324L66.0576 32.2481L66.4547 31.4639C66.8484 30.6862 66.8518 30.6321 66.8518 25.1103V19.5411L66.4631 19.1758C65.913 18.6591 65.1207 18.6934 64.6805 19.2532C64.3448 19.6799 64.3323 19.888 64.3323 25.0221C64.3323 29.9688 64.3104 30.3682 64.025 30.6264C63.7432 30.8814 62.2254 30.9044 45.6325 30.9044H27.5471V23.0885C27.5471 16.4188 27.509 15.1813 27.2876 14.6512C27.1282 14.2701 25.9272 12.9227 24.1802 11.1652L21.3323 8.30051V5.68708C21.3323 3.36861 21.3669 3.04225 21.6395 2.79567C21.9218 2.54019 23.6356 2.51768 42.8615 2.51768C62.9101 2.51768 63.7879 2.53045 64.0543 2.8249C64.3015 3.09801 64.3323 3.76502 64.3323 8.84909C64.3323 14.3785 64.3437 14.5807 64.6805 15.0087C65.1355 15.5872 65.9703 15.612 66.4866 15.0626C66.8476 14.6783 66.8518 14.6042 66.8481 8.72178C66.8441 2.15235 66.8204 1.98673 65.7392 0.972872C64.6364 -0.0611436 66.0296 -0.00218662 42.7956 0.00184463C22.5077 0.00537198 21.555 0.0191454 20.9123 0.316618ZM25.0276 23.2346V30.9044H23.4871C22.2893 30.9044 21.8783 30.8426 21.6395 30.6264C21.3489 30.3635 21.3324 29.8475 21.3343 21.0942L21.3361 11.8399L23.1819 13.7024L25.0276 15.5648V23.2346ZM25.0276 44.6211V55.8182L23.1819 57.6806L21.3361 59.5431L21.3343 46.8455C21.3324 34.964 21.3511 34.1309 21.6262 33.883C21.942 33.5984 22.5346 33.4933 24.0617 33.4508L25.0276 33.4239V44.6211ZM54.307 37.4493C53.5285 37.7778 53.3468 38.855 53.9709 39.4416C54.3274 39.7763 54.5348 39.8067 56.4612 39.8067C58.4408 39.8067 58.584 39.7842 58.928 39.4181C59.3787 38.9383 59.396 38.2915 58.9725 37.7678C58.6717 37.3961 58.5274 37.3688 56.663 37.3329C55.569 37.3117 54.5089 37.3643 54.307 37.4493ZM64.6805 51.6712C64.3349 52.1105 64.3323 52.2146 64.3323 65.2644V78.4152L63.8897 78.7632C63.4474 79.1113 63.4335 79.1114 42.8323 79.1114C22.2311 79.1114 22.2171 79.1113 21.7748 78.7632L21.3323 78.4152V74.5027C21.3323 70.799 21.3136 70.5667 20.9841 70.1478C20.529 69.5693 19.6942 69.5444 19.1779 70.0939C18.8233 70.4715 18.8129 70.6016 18.8164 74.587C18.8196 78.2074 18.8564 78.7708 19.1283 79.3634C19.4762 80.1219 20.1763 80.8738 20.8668 81.231C21.3097 81.46 21.3324 81.5302 21.3349 82.6851C21.3385 84.2217 21.7582 85.0431 22.8283 85.6076L23.5688 85.9981H42.8057C61.9931 85.9981 62.0445 85.9973 62.7698 85.6461C63.8502 85.1232 64.3323 84.2049 64.3323 82.6703C64.3323 81.4966 64.3433 81.4658 64.8592 81.1991C65.5611 80.8361 66.1574 80.1827 66.535 79.3634C66.8273 78.7288 66.8446 77.9511 66.8481 65.3252L66.8518 51.9591L66.4631 51.5938C65.913 51.0771 65.1207 51.1114 64.6805 51.6712ZM61.7795 82.5128L61.7287 83.3946H42.8323H23.9358L23.885 82.5128L23.8341 81.631H42.8323H61.8304L61.7795 82.5128Z" fill="#4A5568"/>
</svg>
