<svg width="86" height="86" viewBox="0 0 86 86" fill="none" xmlns="http://www.w3.org/2000/svg">
<g clip-path="url(#clip0_249_7)">
<path fill-rule="evenodd" clip-rule="evenodd" d="M5.62141 0.188797C5.14925 0.418242 0.106828 8.51753 0.0304023 9.16925C-0.0131016 9.54063 0.0890235 9.82701 0.389855 10.1767C0.804402 10.6586 0.838668 10.6664 2.84069 10.7255L4.87109 10.7854V14.0338C4.87109 17.2091 4.88 17.2924 5.26918 17.7449C5.57253 18.0975 5.81793 18.2078 6.29883 18.2078C6.77972 18.2078 7.02513 18.0975 7.32848 17.7449C7.71766 17.2924 7.72656 17.2091 7.72656 14.0338V10.7854L9.75697 10.7255C11.759 10.6664 11.7933 10.6586 12.2078 10.1767C12.5086 9.82701 12.6108 9.54063 12.5673 9.16925C12.4831 8.45202 7.43934 0.412027 6.9272 0.178719C6.45504 -0.0364492 6.07862 -0.0334258 5.62141 0.188797ZM17.2878 0.490973L16.7969 0.981945V34.6016V68.2212L17.2878 68.7122L17.7788 69.2031H51.3984H85.0181L85.509 68.7122L86 68.2212V39.4772C86 8.80861 86.0301 9.98305 85.2366 9.67853C84.6421 9.45043 83.8725 9.57674 83.5109 9.96189L83.1467 10.3496L83.1035 23.1894L83.0605 36.0293L79.8532 36.0748C76.6735 36.12 76.6423 36.124 76.2503 36.5413C75.681 37.1473 75.7109 38.0488 76.3176 38.5707C76.7693 38.9592 76.8568 38.9688 79.9635 38.9688H83.1465L83.1035 52.6162L83.0605 66.2637H62.1484H41.2363L41.1523 62.3433C41.0694 58.4729 41.0633 58.4187 40.6718 58.1021C40.2258 57.7411 39.3564 57.6879 38.9541 57.9966C38.3583 58.4541 38.2969 58.8883 38.2969 62.6428V66.3505L29.0166 66.307L19.7363 66.2637V34.6016V2.93945L29.0166 2.89612L38.2969 2.85261V25.8768C38.2969 43.0593 38.3464 48.9941 38.4922 49.2679C38.9649 50.1551 40.0469 50.3355 40.74 49.6423L41.1523 49.2301V44.0994V38.9688H54.483H67.8135L68.2565 38.526C68.7924 37.9898 68.8442 37.1693 68.3782 36.5938L68.0571 36.1973L54.6468 36.1133L41.2363 36.0293V19.4844V2.93945H62.1484H83.0605L83.1035 4.70312C83.1272 5.67314 83.2317 6.63191 83.336 6.83364C83.7645 7.66341 85.0478 7.71615 85.6667 6.92921C85.9684 6.54557 86 6.24373 86 3.74369V0.981945L85.509 0.490973L85.0181 0H51.3984H17.7788L17.2878 0.490973ZM6.93526 5.24902C7.24466 5.73412 7.70775 6.48998 7.96407 6.92871L8.43035 7.72656H6.29883H4.1673L4.63359 6.92871C5.3572 5.69045 6.21736 4.36719 6.29883 4.36719C6.33931 4.36719 6.6257 4.76393 6.93526 5.24902ZM5.28346 19.7288L4.87109 20.141V39.2971V58.4531H3.18603C0.82943 58.4531 0 58.8584 0 60.01C0 60.4476 4.99086 68.5826 5.49291 68.9634C5.86228 69.2436 6.40112 69.2641 6.9403 69.0185C7.42187 68.799 12.4594 60.8309 12.5631 60.1246C12.7377 58.934 11.831 58.4531 9.41162 58.4531H7.72656V39.2971V20.141L7.3142 19.7288C7.02966 19.4441 6.71522 19.3164 6.29883 19.3164C5.88243 19.3164 5.568 19.4441 5.28346 19.7288ZM8.39844 61.5522C8.39844 61.7665 6.44227 64.6918 6.29883 64.6918C6.15538 64.6918 4.19922 61.7665 4.19922 61.5522C4.19922 61.5105 5.14404 61.4766 6.29883 61.4766C7.45361 61.4766 8.39844 61.5105 8.39844 61.5522ZM21.4106 76.0075C19.1138 77.4403 17.1733 78.7063 17.0982 78.821C16.8199 79.2461 16.7645 79.8051 16.9549 80.265C17.1046 80.6263 18.1287 81.3486 21.2847 83.3184C23.5583 84.7374 25.6241 85.9284 25.8754 85.9654C27.066 86.1401 27.5469 85.2334 27.5469 82.814V81.1289H51.3808H75.2146L75.2745 83.1593C75.3331 85.1429 75.3454 85.199 75.8055 85.5949C76.0647 85.8178 76.4841 86 76.7377 86C77.0419 86 78.626 85.1076 81.3894 83.3797C83.6943 81.9383 85.6374 80.6724 85.7076 80.5662C85.975 80.1611 86.0309 79.5935 85.8473 79.1501C85.7044 78.8051 84.6122 78.0363 81.503 76.0915C79.0788 74.5753 77.1336 73.4684 76.8308 73.4327C76.4594 73.3892 76.173 73.4914 75.8233 73.7922C75.3414 74.2067 75.3336 74.241 75.2745 76.243L75.2146 78.2734H51.3808H27.5469V76.5884C27.5469 74.2318 27.1416 73.4023 25.99 73.4023C25.7612 73.4023 23.7802 74.5294 21.4106 76.0075ZM24.5234 79.7012C24.5234 80.856 24.4895 81.8008 24.4479 81.8008C24.2683 81.8008 21.248 79.8187 21.248 79.7008C21.248 79.5698 24.1613 77.6405 24.3975 77.6152C24.4667 77.6076 24.5234 78.5464 24.5234 79.7012ZM80.751 79.0647C81.2359 79.3743 81.6328 79.6607 81.6328 79.7012C81.6328 79.7826 80.3096 80.6428 79.0713 81.3664L78.2734 81.8327V79.7012V77.5696L79.0713 78.0359C79.5102 78.2923 80.2661 78.7553 80.751 79.0647Z" fill="#4A5568"/>
</g>
<defs>
<clipPath id="clip0_249_7">
<rect width="86" height="86" fill="white"/>
</clipPath>
</defs>
</svg>
