<svg width="86" height="86" viewBox="0 0 86 86" fill="none" xmlns="http://www.w3.org/2000/svg">
<path fill-rule="evenodd" clip-rule="evenodd" d="M9.04732 17.6648C7.98357 18.0001 7.1869 18.5577 6.46312 19.4735C5.42154 20.791 5.29758 21.4653 5.29758 25.8118V29.6025L3.84247 29.5422C3.0421 29.509 2.10416 29.5666 1.75831 29.6702C0.996743 29.8985 0.144469 30.8228 0.0047193 31.5726C-0.118402 32.2321 2.20612 56.9043 2.46781 57.7173C2.86943 58.9648 4.52593 60.2447 5.74959 60.2531C6.04437 60.2551 6.32286 60.3171 6.36838 60.3909C6.4139 60.4646 6.18614 62.3677 5.86196 64.62C5.21326 69.1298 5.22552 69.3199 6.18664 69.655C6.91815 69.9101 9.32732 69.8661 9.83274 69.5885C10.1618 69.4077 10.6717 68.3831 12.191 64.8494L14.1295 60.3408L15.4384 60.2568C16.8416 60.1668 17.2234 59.9293 17.2234 59.1467C17.2234 57.8633 17.089 57.8335 10.8585 57.7373L5.41734 57.6533L5.1061 57.2334C4.83936 56.8738 4.62604 55.0458 3.6184 44.4867C2.97138 37.707 2.44211 32.1325 2.44211 32.099C2.44211 32.0654 2.96702 32.0381 3.60849 32.0381C5.58901 32.0381 5.45699 31.7552 6.7448 38.7568C7.34815 42.0364 7.90295 45.4977 7.97769 46.4486C8.09393 47.9254 8.18463 48.2922 8.59934 48.9631C8.86641 49.3949 9.4108 49.9775 9.80906 50.2575L10.5335 50.7666L25.5943 50.8153C33.8776 50.842 40.893 50.8212 41.1839 50.7688C41.475 50.7165 41.9851 50.4891 42.3177 50.2633L42.9226 49.8528L43.5274 50.2633C43.86 50.4891 44.3701 50.7165 44.6612 50.7688C44.9522 50.8212 51.9675 50.842 60.2509 50.8153L75.3117 50.7666L76.0361 50.2575C76.4344 49.9775 76.9787 49.3949 77.2458 48.9631C77.6605 48.2922 77.7512 47.9254 77.8675 46.4486C77.9422 45.4977 78.497 42.0364 79.1004 38.7568C80.3882 31.7552 80.2562 32.0381 82.2367 32.0381C82.8781 32.0381 83.4031 32.0654 83.4031 32.099C83.4031 32.1325 82.8738 37.707 82.2268 44.4867C81.2186 55.0505 81.0058 56.8736 80.7389 57.2334L80.4273 57.6533L50.6584 57.7373L20.8896 57.8213L20.4841 58.2926C19.9876 58.8697 19.9737 59.2381 20.4265 59.8137L20.7742 60.2558L46.2442 60.2983L71.7141 60.3408L73.6533 64.8494C75.1729 68.3825 75.6834 69.4077 76.0124 69.5885C76.5178 69.8661 78.927 69.9101 79.6585 69.655C80.6196 69.3199 80.6319 69.1298 79.9832 64.62C79.659 62.3677 79.4313 60.4646 79.4768 60.3909C79.5223 60.3171 79.8008 60.2551 80.0956 60.2531C81.3192 60.2447 82.9757 58.9648 83.3773 57.7173C83.639 56.9043 85.9636 32.2321 85.8404 31.5726C85.7007 30.8228 84.8484 29.8985 84.0869 29.6702C83.741 29.5666 82.8088 29.509 82.0153 29.5422L80.5724 29.6025L80.518 25.4873C80.4654 21.5163 80.4492 21.3428 80.0524 20.5366C79.5272 19.469 78.3972 18.339 77.3891 17.8733L76.6003 17.5088H61.2312C46.5586 17.5088 45.8247 17.5232 45.0383 17.8264C44.5853 18.0013 43.9208 18.4098 43.5615 18.7343L42.9083 19.3245L42.3695 18.8031C42.0732 18.5164 41.4529 18.1079 40.9909 17.8953L40.1511 17.5088L24.9499 17.4762C12.7764 17.4501 9.609 17.4878 9.04732 17.6648ZM40.3488 20.3797C40.6097 20.573 40.993 20.981 41.2009 21.2864L41.5788 21.8417V30.0213C41.5788 38.1229 41.5755 38.2039 41.2254 38.5208C40.8848 38.829 40.3234 38.8438 25.8983 38.9248L10.9245 39.0088L10.2142 39.3882L9.50402 39.7678L9.41786 39.3882C9.37032 39.1796 9.05907 37.4971 8.72582 35.6496C8.39257 33.8019 8.05193 32.1629 7.96862 32.0072C7.88531 31.8516 7.81711 29.581 7.81711 26.9617C7.81711 22.3567 7.82954 22.1743 8.19504 21.4497C8.47202 20.9006 8.7747 20.5984 9.32782 20.3196L10.0827 19.9391L24.9786 19.9836C39.7952 20.0281 39.8771 20.0301 40.3488 20.3797ZM76.5227 20.3222C77.0703 20.5984 77.374 20.9021 77.6501 21.4497C78.0156 22.1743 78.0281 22.3567 78.0281 26.9617C78.0281 29.581 77.9599 31.8516 77.8765 32.0072C77.7932 32.1629 77.4526 33.8019 77.1193 35.6496C76.7861 37.4971 76.4748 39.1796 76.4273 39.3882L76.3411 39.7678L75.631 39.3919C75.0527 39.086 74.6448 39.0155 73.4365 39.0125C72.0771 39.0091 71.9251 39.0422 71.6308 39.4053C71.1991 39.9378 71.223 40.6344 71.6872 41.0617C71.9793 41.3304 72.3463 41.4245 73.3033 41.4756C74.4061 41.5343 74.5849 41.5923 74.941 42.0062C75.3206 42.4478 75.3406 42.588 75.3406 44.8213C75.3406 47.2601 75.1753 47.9971 74.5771 48.2267C74.4276 48.284 67.7215 48.331 59.6746 48.331H45.0439L44.655 47.9659C44.2816 47.615 44.2663 47.4994 44.2663 45.04C44.2663 43.6318 44.3134 42.3572 44.3706 42.2077C44.6607 41.4519 44.7805 41.4443 56.5274 41.4443H67.6293L68.0415 41.0319C68.2682 40.8052 68.4538 40.5065 68.4538 40.3681C68.4538 39.8961 68.0816 39.2982 67.6716 39.1112C67.3849 38.9807 63.9514 38.9248 56.2069 38.9248C45.2768 38.9248 45.1465 38.9209 44.7089 38.5766L44.2663 38.2286V30.0859C44.2663 21.3497 44.2536 21.4888 45.1322 20.6683C45.3491 20.466 45.7152 20.2252 45.9462 20.1329C46.2131 20.0266 51.7184 19.9618 61.0696 19.9549L75.7732 19.9443L76.5227 20.3222ZM17.8803 27.1453C17.0153 27.8457 17.5914 29.3506 18.7243 29.3506C19.8029 29.3506 20.3179 27.8474 19.4683 27.1792C18.9192 26.7472 18.3859 26.7358 17.8803 27.1453ZM30.2079 27.0321C29.6618 27.2958 29.4327 28.0901 29.7343 28.6735C29.997 29.1814 30.2949 29.3506 30.9266 29.3506C31.9621 29.3506 32.4039 27.8414 31.562 27.1792C31.0754 26.7964 30.7653 26.7627 30.2079 27.0321ZM54.2832 27.1792C53.7047 27.6343 53.6798 28.4691 54.2292 28.9854C55.2654 29.9586 56.7736 28.7899 56.1179 27.5219C55.7154 26.7435 55.0054 26.611 54.2832 27.1792ZM66.3769 27.1792C65.7984 27.6343 65.7736 28.4691 66.323 28.9854C66.8462 29.4769 67.5288 29.451 68.0603 28.9196C68.408 28.5719 68.4715 28.3851 68.3882 27.9537C68.1861 26.9078 67.2031 26.5292 66.3769 27.1792ZM40.8949 41.6901C41.1564 41.8253 41.4171 42.0581 41.4745 42.2077C41.5318 42.3572 41.5788 43.6212 41.5788 45.0165C41.5788 47.3901 41.5553 47.5785 41.2137 47.9424L40.8483 48.331H26.1941C18.1343 48.331 11.4175 48.284 11.268 48.2267C10.6716 47.9978 10.5046 47.2589 10.5046 44.8494C10.5046 42.3681 10.6279 41.9242 11.4044 41.6109C11.6025 41.531 18.2119 41.4608 26.0921 41.4549C38.353 41.4458 40.4882 41.4798 40.8949 41.6901ZM11.3445 60.3546C11.3445 60.5246 8.60925 66.8818 8.44229 67.0997C8.05597 67.6043 8.07024 66.9557 8.51183 63.9174C8.77101 62.135 8.98517 60.5823 8.98786 60.4668C8.99138 60.3193 9.34261 60.2568 10.1687 60.2568C10.8154 60.2568 11.3445 60.3008 11.3445 60.3546ZM76.8573 60.4668C76.86 60.5823 77.0742 62.135 77.3333 63.9174C77.7749 66.9557 77.7892 67.6043 77.4029 67.0997C77.2359 66.8818 74.5007 60.5246 74.5007 60.3546C74.5007 60.3008 75.0298 60.2568 75.6765 60.2568C76.5026 60.2568 76.8538 60.3193 76.8573 60.4668Z" fill="#4A5568"/>
</svg>
