<svg width="86" height="86" viewBox="0 0 86 86" fill="none" xmlns="http://www.w3.org/2000/svg">
<path fill-rule="evenodd" clip-rule="evenodd" d="M22.2715 11.0607C21.6664 11.224 20.7658 11.5784 20.2699 11.8483C19.1432 12.4614 17.6175 13.9482 17.0224 15.013C16.4649 16.0104 15.8969 17.8067 15.8969 18.5716V19.1418H13.3317H10.7664L10.1483 18.6324C8.99134 17.6787 7.77088 17.244 6.25295 17.245C4.41268 17.2461 3.19793 17.7185 1.93413 18.9238C-2.09359 22.7658 0.586687 29.5559 6.131 29.5559C7.79624 29.5559 9.16133 29.0475 10.2827 28.0092L10.7994 27.531L13.3061 27.5776L15.8129 27.6243L15.8556 47.6429L15.8982 67.6615L16.3401 68.0092C16.7621 68.3409 16.986 68.3567 21.2946 68.3567H25.807V71.1031C25.807 74.0881 25.9384 74.7603 26.5792 75.0523C26.8857 75.192 32.8426 75.2434 48.72 75.2434C70.4315 75.2434 70.4415 75.2432 70.8835 74.8957L71.3254 74.548L71.3681 51.0861L71.4106 27.6243L73.2441 27.5762C75.0568 27.5289 75.0834 27.5337 75.5957 28.0079C76.7184 29.0475 78.0826 29.5559 79.7487 29.5559C82.6102 29.5559 85.0216 27.629 85.7168 24.7868C86.2506 22.6047 85.5436 20.3919 83.8048 18.8027C82.5969 17.6988 81.3829 17.2461 79.6268 17.245C78.1088 17.244 76.8884 17.6787 75.7314 18.6324C75.124 19.1329 75.0805 19.1418 73.2199 19.1418H71.3266V18.5845C71.3266 17.8364 70.8904 16.4115 70.3087 15.2587C69.699 14.0505 68.1185 12.4703 66.8547 11.8051C64.7484 10.6964 65.7675 10.7424 43.517 10.7535C24.7975 10.7629 23.2935 10.7847 22.2715 11.0607ZM56.1148 14.0442C55.3551 15.0392 54.9636 15.8107 54.633 16.9633C54.4131 17.7296 54.3617 19.2238 54.3236 25.9672C54.2796 33.7168 54.291 34.0672 54.5977 34.4077C54.9713 34.8224 55.8162 34.8805 56.3033 34.5249C56.6018 34.3069 56.6364 34.0049 56.7133 30.9556L56.7973 27.6243L62.8022 27.5801L68.807 27.5361V50.1299V72.7239H48.5668H28.3266V70.5403V68.3567H42.0773C55.7344 68.3567 55.8311 68.3543 56.2707 68.0085L56.7133 67.6605V52.8913C56.7133 38.3462 56.7082 38.1173 56.3773 37.7864C55.9247 37.3337 55.0153 37.3426 54.5977 37.8038C54.294 38.1393 54.2754 38.5602 54.2309 46.0343L54.1842 53.9114H36.3002H18.4164L18.4204 35.9807L18.4243 18.05L18.8095 17.1138C19.3149 15.8854 19.9834 15.0594 21.0483 14.3473C22.6932 13.2476 22.0067 13.2861 40.2092 13.274L56.7111 13.2629L56.1148 14.0442ZM64.3204 13.5127C66.6317 14.1147 68.5183 16.192 68.7682 18.4102L68.8507 19.1418H62.807H56.7635L56.8932 18.344C57.0571 17.3358 57.3887 16.5583 58.0317 15.6738C58.8342 14.5696 59.6368 14.0628 61.2322 13.6521C62.9784 13.2026 63.1074 13.1968 64.3204 13.5127ZM7.28847 19.9007C9.31199 20.5017 10.4065 23.0009 9.49508 24.9396C8.81531 26.3857 7.54278 27.1104 5.87031 27.004C4.48054 26.9154 3.56662 26.304 2.92129 25.0315C2.12696 23.4652 2.36766 22.0249 3.62827 20.8019C4.75668 19.7071 5.78414 19.4541 7.28847 19.9007ZM81.377 20.1355C82.5998 20.7594 83.4203 22.1265 83.4203 23.5404C83.4203 24.4402 82.6121 25.8623 81.7682 26.4475C81.1119 26.9025 80.9114 26.9524 79.7403 26.9524C78.6028 26.9524 78.3534 26.8946 77.7406 26.489C75.7208 25.1524 75.4497 22.452 77.1667 20.7753C78.3383 19.6313 79.9182 19.3913 81.377 20.1355ZM15.8609 23.3831L15.909 25.0207L14.0973 25.0206L12.2855 25.0204V23.3355V21.6506L14.0492 21.698L15.8129 21.7454L15.8609 23.3831ZM73.5942 23.3407V25.0204L65.1537 25.0206L56.7133 25.0207V23.4531C56.7133 22.5907 56.7637 21.8349 56.8253 21.7734C56.8868 21.7118 60.6851 21.6614 65.2658 21.6614L73.5942 21.6612V23.3407ZM54.1938 58.1106V59.6223H36.3051H18.4164V58.1106V56.5989H36.3051H54.1938V58.1106ZM54.1938 63.9895V65.8372H36.3051H18.4164V63.9895V62.1418H36.3051H54.1938V63.9895Z" fill="#4A5568"/>
</svg>
