<svg width="86" height="86" viewBox="0 0 86 86" fill="none" xmlns="http://www.w3.org/2000/svg">
<g clip-path="url(#clip0_249_14)">
<path fill-rule="evenodd" clip-rule="evenodd" d="M2.70509 10.9636C1.8807 11.2234 0.474638 12.6794 0.221845 13.535C-0.0739482 14.5361 -0.0739482 58.0144 0.221845 59.0155C0.494458 59.9382 1.88591 61.3296 2.80856 61.6023C3.33145 61.7568 7.65883 61.8065 20.5713 61.8065H37.6426V64.4742V67.1419L35.501 67.2092C33.5258 67.2715 33.2722 67.3176 32.2374 67.8027C31.6204 68.0919 30.7688 68.648 30.3452 69.0386C29.2952 70.0064 28.4298 71.7854 28.294 73.2551C28.1972 74.3024 28.2184 74.4015 28.6257 74.8088L29.0609 75.244H43.0176H56.9743L57.4095 74.8088C57.8168 74.4015 57.838 74.3024 57.7412 73.2551C57.6053 71.7854 56.74 70.0064 55.69 69.0386C55.2664 68.648 54.4148 68.0919 53.7978 67.8027C52.763 67.3176 52.5093 67.2715 50.5342 67.2092L48.3926 67.1419V64.4742V61.8065H53.3552H58.318L58.7302 61.3941C59.2758 60.8488 59.2758 60.0768 58.7302 59.5314L58.318 59.119H30.9238H3.52965L3.11746 58.7066L2.70509 58.2945V36.2753V14.2561L3.11746 13.8439L3.52965 13.4315H43.0176H82.5055L82.9177 13.8439L83.3301 14.2561V20.1503V26.0445L83.7424 26.4567C84.2878 27.0022 85.0598 27.0022 85.6052 26.4567L86.0176 26.0445V20.1353C86.0176 16.0562 85.9558 14.0199 85.8179 13.5598C85.708 13.1933 85.2915 12.53 84.892 12.0858C83.5678 10.6128 87.6551 10.7418 42.9457 10.7612C14.5492 10.7734 3.12602 10.8309 2.70509 10.9636ZM64.5176 29.7761C63.6932 30.0359 62.2871 31.4918 62.0343 32.3475C61.739 33.3469 61.739 71.4536 62.0343 72.453C62.3069 73.3757 63.6984 74.7671 64.621 75.0398C65.1246 75.1886 67.6604 75.244 73.9554 75.244C83.8708 75.244 83.6628 75.2695 84.892 73.9023C85.2915 73.458 85.708 72.7947 85.8179 72.4282C86.1051 71.4697 86.1051 33.3308 85.8179 32.3723C85.708 32.0058 85.2915 31.3425 84.892 30.8983C83.659 29.5266 83.8867 29.554 73.8519 29.5737C67.9893 29.5852 64.9116 29.6519 64.5176 29.7761ZM82.9177 32.6564L83.3301 33.0686V52.4003V71.7319L82.9177 72.1441L82.5055 72.5565H73.9238H65.3421L64.9299 72.1441L64.5176 71.7319V52.4003V33.0686L64.9299 32.6564L65.3421 32.244H73.9238H82.5055L82.9177 32.6564ZM67.6174 35.3439C66.7841 36.177 67.3746 37.619 68.5488 37.619C69.2393 37.619 69.8926 36.9658 69.8926 36.2753C69.8926 35.5847 69.2393 34.9315 68.5488 34.9315C68.2216 34.9315 67.8773 35.0839 67.6174 35.3439ZM72.9924 35.3439C72.1591 36.177 72.7496 37.619 73.9238 37.619C74.6143 37.619 75.2676 36.9658 75.2676 36.2753C75.2676 35.5847 74.6143 34.9315 73.9238 34.9315C73.5966 34.9315 73.2523 35.0839 72.9924 35.3439ZM78.3674 35.3439C77.5341 36.177 78.1246 37.619 79.2988 37.619C79.9893 37.619 80.6426 36.9658 80.6426 36.2753C80.6426 35.5847 79.9893 34.9315 79.2988 34.9315C78.9716 34.9315 78.6273 35.0839 78.3674 35.3439ZM67.6174 40.7189C66.7841 41.552 67.3746 42.994 68.5488 42.994C69.2393 42.994 69.8926 42.3408 69.8926 41.6503C69.8926 40.9597 69.2393 40.3065 68.5488 40.3065C68.2216 40.3065 67.8773 40.4589 67.6174 40.7189ZM72.9924 40.7189C72.1591 41.552 72.7496 42.994 73.9238 42.994C74.6143 42.994 75.2676 42.3408 75.2676 41.6503C75.2676 40.9597 74.6143 40.3065 73.9238 40.3065C73.5966 40.3065 73.2523 40.4589 72.9924 40.7189ZM78.3674 40.7189C77.5341 41.552 78.1246 42.994 79.2988 42.994C79.9893 42.994 80.6426 42.3408 80.6426 41.6503C80.6426 40.9597 79.9893 40.3065 79.2988 40.3065C78.9716 40.3065 78.6273 40.4589 78.3674 40.7189ZM67.6174 46.0939C67.3574 46.3537 67.2051 46.6981 67.2051 47.0253C67.2051 47.3525 67.3574 47.6968 67.6174 47.9566C67.8773 48.2167 68.2216 48.369 68.5488 48.369C68.876 48.369 69.2204 48.2167 69.4802 47.9566C69.7402 47.6968 69.8926 47.3525 69.8926 47.0253C69.8926 46.6981 69.7402 46.3537 69.4802 46.0939C69.2204 45.8339 68.876 45.6815 68.5488 45.6815C68.2216 45.6815 67.8773 45.8339 67.6174 46.0939ZM72.9924 46.0939C72.7324 46.3537 72.5801 46.6981 72.5801 47.0253C72.5801 47.3525 72.7324 47.6968 72.9924 47.9566C73.2523 48.2167 73.5966 48.369 73.9238 48.369C74.251 48.369 74.5954 48.2167 74.8552 47.9566C75.1152 47.6968 75.2676 47.3525 75.2676 47.0253C75.2676 46.6981 75.1152 46.3537 74.8552 46.0939C74.5954 45.8339 74.251 45.6815 73.9238 45.6815C73.5966 45.6815 73.2523 45.8339 72.9924 46.0939ZM78.3674 46.0939C78.1074 46.3537 77.9551 46.6981 77.9551 47.0253C77.9551 47.3525 78.1074 47.6968 78.3674 47.9566C78.6273 48.2167 78.9716 48.369 79.2988 48.369C79.626 48.369 79.9704 48.2167 80.2302 47.9566C80.4902 47.6968 80.6426 47.3525 80.6426 47.0253C80.6426 46.6981 80.4902 46.3537 80.2302 46.0939C79.9704 45.8339 79.626 45.6815 79.2988 45.6815C78.9716 45.6815 78.6273 45.8339 78.3674 46.0939ZM72.3479 51.2325C71.285 51.4996 69.7723 52.3949 69.038 53.1916C68.6609 53.6007 68.113 54.4406 67.8207 55.0575C67.3393 56.0736 67.2891 56.3311 67.2891 57.784C67.2891 59.2982 67.3243 59.4597 67.9164 60.6576C68.672 62.1865 69.6445 63.1387 71.2061 63.8784C72.2208 64.3591 72.4808 64.41 73.9238 64.41C75.3669 64.41 75.6269 64.3591 76.6416 63.8784C78.2032 63.1387 79.1757 62.1865 79.9312 60.6576C80.524 59.4583 80.5586 59.2996 80.5586 57.7753C80.5586 56.2509 80.524 56.0922 79.9312 54.8929C78.7963 52.5963 76.7798 51.2487 74.3016 51.1307C73.5857 51.0967 72.7066 51.1425 72.3479 51.2325ZM75.1641 53.9483C76.6076 54.3747 77.9551 56.2224 77.9551 57.7753C77.9551 59.8566 76.0051 61.8065 73.9238 61.8065C72.8673 61.8065 72.0165 61.4224 71.1466 60.5525C69.4473 58.8531 69.4473 56.6992 71.1466 54.9962C72.3249 53.8154 73.5941 53.4843 75.1641 53.9483ZM45.7051 64.494V67.1815H43.0176H40.3301V64.494V61.8065H43.0176H45.7051V64.494ZM67.6174 67.5939C67.3574 67.8537 67.2051 68.1981 67.2051 68.5253C67.2051 68.8525 67.3574 69.1968 67.6174 69.4566C67.8773 69.7167 68.2216 69.869 68.5488 69.869C68.876 69.869 69.2204 69.7167 69.4802 69.4566C69.7402 69.1968 69.8926 68.8525 69.8926 68.5253C69.8926 68.1981 69.7402 67.8537 69.4802 67.5939C69.2204 67.3339 68.876 67.1815 68.5488 67.1815C68.2216 67.1815 67.8773 67.3339 67.6174 67.5939ZM72.9924 67.5939C72.7324 67.8537 72.5801 68.1981 72.5801 68.5253C72.5801 68.8525 72.7324 69.1968 72.9924 69.4566C73.2523 69.7167 73.5966 69.869 73.9238 69.869C74.251 69.869 74.5954 69.7167 74.8552 69.4566C75.1152 69.1968 75.2676 68.8525 75.2676 68.5253C75.2676 68.1981 75.1152 67.8537 74.8552 67.5939C74.5954 67.3339 74.251 67.1815 73.9238 67.1815C73.5966 67.1815 73.2523 67.3339 72.9924 67.5939ZM78.3674 67.5939C78.1074 67.8537 77.9551 68.1981 77.9551 68.5253C77.9551 68.8525 78.1074 69.1968 78.3674 69.4566C78.6273 69.7167 78.9716 69.869 79.2988 69.869C79.626 69.869 79.9704 69.7167 80.2302 69.4566C80.4902 69.1968 80.6426 68.8525 80.6426 68.5253C80.6426 68.1981 80.4902 67.8537 80.2302 67.5939C79.9704 67.3339 79.626 67.1815 79.2988 67.1815C78.9716 67.1815 78.6273 67.3339 78.3674 67.5939ZM52.3204 70.0733C53.0717 70.2953 54.7754 71.8361 54.7754 72.2936C54.7754 72.5296 53.5748 72.5565 43.0176 72.5565C32.4604 72.5565 31.2598 72.5296 31.2598 72.2936C31.2598 71.8851 32.9551 70.2955 33.6113 70.0885C34.4834 69.8137 51.3949 69.7998 52.3204 70.0733Z" fill="#4A5568"/>
</g>
<defs>
<clipPath id="clip0_249_14">
<rect width="86" height="86" fill="white"/>
</clipPath>
</defs>
</svg>
