<svg width="86" height="86" viewBox="0 0 86 86" fill="none" xmlns="http://www.w3.org/2000/svg">
<path fill-rule="evenodd" clip-rule="evenodd" d="M39.9466 9.36079C26.2299 10.3044 13.509 16.5739 4.04933 27.0529C1.38216 30.0077 0.692982 30.9646 0.290193 32.2729C-1.21414 37.1584 3.40551 41.5557 7.80512 39.4259C8.53679 39.0716 9.08672 38.5229 11.7075 35.532C17.1576 29.3123 25.1647 24.3879 33.0977 22.377C38.7965 20.9325 45.01 20.7351 50.681 21.8185C57.0111 23.0279 63.0593 25.7927 68.5952 30.0075C70.1813 31.2152 73.4937 34.4059 76.4897 37.6123C78.0305 39.2612 78.734 39.6009 80.608 39.6009C84.2412 39.6009 86.82 35.6993 85.6734 31.937C85.2055 30.4011 83.8987 28.7637 80.1945 25.0716C76.3355 21.2253 71.6504 17.597 70.5428 17.597C69.6485 17.597 69.1129 18.4603 69.4547 19.3511C69.5116 19.4996 70.2107 20.0683 71.0084 20.6149C73.5906 22.3849 76.1011 24.4968 78.5914 26.9943C81.536 29.9472 83.044 31.7913 83.3041 32.7573C83.8829 34.9068 82.5087 37.0813 80.5714 37.0813C79.4181 37.0813 78.9963 36.8074 77.5518 35.1196C69.4372 25.6395 58.566 19.8271 46.9484 18.7575C44.3138 18.5147 39.3977 18.6443 36.9331 19.021C26.1453 20.6701 16.4117 26.162 9.00223 34.78C7.98568 35.9625 6.91925 37.0513 6.63253 37.1996C5.53015 37.7695 4.05572 37.4028 3.28726 36.3676C2.06142 34.7165 2.23628 33.1581 3.88086 31.0781C5.26392 29.3289 9.09646 25.4327 11.0659 23.774C26.1589 11.062 46.1497 8.26193 63.7056 16.4009C64.5268 16.7815 65.3773 17.0931 65.5953 17.0931C66.5114 17.0931 67.0472 15.6447 66.3607 15.0234C65.8839 14.5918 62.7573 13.1735 60.3647 12.3033C54.0377 10.0024 46.4717 8.91197 39.9466 9.36079ZM40.5444 27.9484C34.4367 28.4516 28.5535 30.4778 23.4116 33.8488C20.8901 35.5019 18.8858 37.1761 16.5605 39.5713C14.2007 42.0023 13.6681 43.0338 13.6835 45.1438C13.702 47.6654 14.7626 49.4857 16.8086 50.5081C17.6686 50.9379 18.0346 51.0224 19.0293 51.0211C20.9065 51.0186 21.6116 50.5998 24.497 47.7737C28.768 43.5908 32.6116 41.441 37.9609 40.2432C39.4694 39.9054 40.1576 39.853 43.0639 39.854C46.7289 39.8554 47.8359 40.0151 50.8594 40.9781C55.0448 42.3112 58.4534 44.4931 62.1121 48.1809C64.3333 50.4197 64.9736 50.7646 66.9155 50.7683C68.0058 50.7703 68.4172 50.693 69.0964 50.3588C71.9922 48.9339 73.1503 45.2592 71.685 42.1463C71.2019 41.1202 66.9595 36.8845 64.8159 35.2881C59.7755 31.5343 54.3058 29.2204 48.2344 28.2734C46.512 28.0048 42.1148 27.8189 40.5444 27.9484ZM45.9194 30.5366C52.3437 31.1405 58.5367 33.5926 63.6336 37.5508C65.5095 39.0076 68.7719 42.1879 69.283 43.0578C70.3537 44.8806 69.6682 47.3651 67.8894 48.1083C66.5942 48.6495 65.5357 48.2273 64.0983 46.5963C62.9526 45.296 60.3693 43.1002 58.6011 41.9235C56.9387 40.8175 53.3213 39.0642 51.5922 38.5267C48.3916 37.5317 47.0448 37.3451 43.0639 37.3451C38.9947 37.3451 37.4763 37.5654 34.3296 38.6122C29.7993 40.1194 24.9831 43.3044 21.7146 46.9551C20.5837 48.2183 20.083 48.5032 18.994 48.5032C16.8124 48.5032 15.398 45.6432 16.513 43.487C16.6606 43.2018 17.4766 42.241 18.3265 41.352C25.785 33.5503 35.8811 29.593 45.9194 30.5366ZM40.9643 46.6042C36.9485 47.0338 32.7683 48.8869 29.5907 51.6458C28.8513 52.2879 28.3952 52.8605 28.0259 53.6108C26.0049 57.7158 29.0476 62.6694 33.3192 62.2286C34.472 62.1095 35.458 61.6651 36.509 60.7905C37.4679 59.9923 39.1367 59.0885 40.4201 58.6721C41.3644 58.3655 41.6362 58.0533 41.6362 57.2747C41.6362 56.7836 41.3045 56.3717 40.7507 56.1752C40.3158 56.0208 38.0111 56.797 36.8778 57.4793C36.3393 57.8037 35.4472 58.4083 34.8955 58.8231C34.3437 59.2378 33.6243 59.6275 33.2969 59.6889C31.5878 60.0096 29.8833 58.3358 29.8794 56.3333C29.8764 54.8365 30.7154 53.7306 33.047 52.1572C38.701 48.342 45.7451 48.0158 51.6304 51.2965C53.2202 52.1827 55.0028 53.5844 55.5242 54.3579C56.5587 55.893 55.9643 58.5293 54.4015 59.3374C54.1338 59.4758 53.5412 59.5892 53.0848 59.5892C52.4025 59.5892 52.1097 59.4842 51.4387 58.9989C48.8659 57.1383 46.7562 56.1188 45.9156 56.3297C45.05 56.5471 44.6929 57.7514 45.3245 58.323C45.5054 58.4868 46.2239 58.8688 46.921 59.1718C47.6183 59.4749 48.7379 60.1436 49.4093 60.6578C50.8606 61.7692 51.7316 62.1087 53.1333 62.1087C55.2756 62.1087 56.9506 61.0145 57.966 58.9519C58.467 57.9343 58.5167 57.6946 58.5129 56.3173C58.5093 55.0105 58.4423 54.6571 58.0264 53.7484C57.2121 51.9699 54.7215 49.9399 51.4661 48.4013C48.3289 46.9186 44.3659 46.2403 40.9643 46.6042ZM41.2163 66.5337C37.9515 67.6166 36.0022 70.6889 36.5825 73.838C37.54 79.0341 43.5724 81.1008 47.4227 77.5518C48.9261 76.1658 49.7718 73.6641 49.3871 71.74C48.7572 68.5893 46.3439 66.4777 43.2395 66.3615C42.429 66.3311 41.6192 66.4 41.2163 66.5337ZM44.2097 69.0075C45.0063 69.2287 46.0802 70.1798 46.5538 71.0836C47.372 72.6445 46.8347 74.8752 45.3715 75.9911C42.763 77.9807 39.0156 76.0797 39.0403 72.7793C39.0606 70.0834 41.548 68.2684 44.2097 69.0075Z" fill="#4A5568"/>
</svg>
