<svg width="64" height="64" viewBox="0 0 64 64" fill="none" xmlns="http://www.w3.org/2000/svg">
<path fill-rule="evenodd" clip-rule="evenodd" d="M30.1755 11.3781C29.7033 11.5969 28.9192 12.1958 28.4333 12.7091C25.4806 15.8279 0.475918 45.204 0.267714 45.7987C-0.791339 48.8235 1.42486 52.016 4.57239 51.9999C5.80788 51.9937 7.0247 51.3943 8.09126 50.2665C8.57679 49.7531 14.1116 43.3465 20.391 36.0293C26.6704 28.712 31.8944 22.7254 32 22.7254C32.1056 22.7254 37.3296 28.712 43.609 36.0293C49.8884 43.3465 55.4232 49.7531 55.9087 50.2665C56.9753 51.3943 58.1921 51.9937 59.4276 51.9999C62.5751 52.016 64.7913 48.8235 63.7323 45.7987C63.5172 45.1847 36.0887 13.0577 34.8715 11.9942C33.689 10.9611 31.6523 10.694 30.1755 11.3781Z" fill="#4A5568"/>
</svg>
