<svg width="64" height="64" viewBox="0 0 64 64" fill="none" xmlns="http://www.w3.org/2000/svg">
<path fill-rule="evenodd" clip-rule="evenodd" d="M2.10909 0.197278C1.78896 0.310278 1.30171 0.645028 0.960089 0.986528C-0.0474108 1.99403 -0.283161 3.4689 0.357714 4.75403C0.545589 5.13065 4.65646 9.3274 13.9573 18.6378L27.2877 31.9819L13.9568 45.3253C4.64059 54.6504 0.545089 58.8313 0.357339 59.2085C-1.02466 61.984 1.85334 64.9425 4.68759 63.6601C5.01109 63.5138 9.48447 59.1309 18.5708 50.0575L31.9767 36.6709L45.3208 50.0013C54.74 59.4108 58.8259 63.4119 59.2121 63.6046C60.4089 64.2018 61.8175 64.0256 62.8391 63.1511C63.8477 62.2878 64.2166 60.9096 63.7916 59.5923C63.584 58.9488 62.9759 58.3195 50.121 45.45L36.6676 31.9813L50.121 18.5125C62.9759 5.64303 63.584 5.01378 63.7916 4.37028C64.2166 3.0529 63.8477 1.67478 62.8391 0.811403C61.8175 -0.0630965 60.4089 -0.239221 59.2121 0.357903C58.8259 0.550653 54.7401 4.55165 45.3211 13.961L31.9773 27.291L18.5086 13.8389C6.15447 1.50003 4.98884 0.370028 4.42384 0.184028C3.66484 -0.0658465 2.84072 -0.0610965 2.10909 0.197278Z" fill="#4A5568"/>
</svg>
