<svg width="199" height="41" viewBox="0 0 199 41" fill="none" xmlns="http://www.w3.org/2000/svg">
<path fill-rule="evenodd" clip-rule="evenodd" d="M78.4371 0.641273C77.5724 0.870069 76.3694 1.05835 75.7629 1.05932C74.3944 1.06175 73.1939 1.5009 71.8606 2.48668C71.2941 2.90618 70.65 3.24902 70.427 3.24902C69.6976 3.24902 67.9984 4.45024 67.274 5.478C66.5873 6.44729 66.4971 6.48054 64.7978 6.36723C63.8254 6.30221 62.685 6.37694 62.2589 6.5327C61.8203 6.69454 60.9907 6.7086 60.3341 6.56521C59.5396 6.39149 58.6599 6.46089 57.492 6.78867C56.5621 7.05022 54.8704 7.36757 53.735 7.49422C52.5997 7.62111 51.2563 7.93726 50.75 8.19687C50.2412 8.45648 49.0107 8.8158 48.0106 8.9951C47.0106 9.17465 45.8076 9.58347 45.3389 9.9035C44.8677 10.2235 43.8076 10.5561 42.9855 10.6432C42.1208 10.7345 40.9579 11.1404 40.2411 11.6007C39.5193 12.0641 38.5519 12.4001 37.9403 12.4001C37.3614 12.4001 36.1909 12.7427 35.3413 13.1615C34.4917 13.5805 33.2987 13.9262 32.6946 13.9308C32.0881 13.9352 30.9653 14.2154 30.1984 14.5534C29.2986 14.9491 28.4891 15.1015 27.9227 14.9811C27.4415 14.8783 26.276 15.0112 25.3362 15.2764C24.0203 15.6474 23.4213 15.6823 22.7371 15.4285C22.2258 15.2386 21.1532 15.1816 20.2158 15.2941C19.2008 15.4157 18.326 15.3575 17.9075 15.1401C17.5366 14.9474 16.4413 14.7832 15.4739 14.7747C14.4663 14.7657 13.1681 14.5187 12.4362 14.1965C11.7345 13.8869 10.6994 13.6307 10.1355 13.6271C9.51139 13.6232 8.61667 13.2728 7.84473 12.7303C6.17052 11.5546 4.56397 11.3044 2.87974 11.9583C0.253138 12.9778 -0.678445 15.1318 0.616559 17.1922C1.30253 18.2842 3.31332 19.4161 4.56647 19.4161C5.0151 19.4161 5.83466 19.7402 6.38604 20.1364C7.6818 21.0686 9.16804 21.541 10.9701 21.5932C12.3485 21.6327 12.3285 21.6446 10.5114 21.8462C9.46126 21.9627 8.04773 22.3409 7.36602 22.6869C6.68681 23.0329 5.4913 23.4813 4.71435 23.6834C2.17046 24.3443 0.0025106 26.4925 4.3017e-06 28.3537C-0.00325388 30.5249 1.84464 32.0263 4.53139 32.0348C5.91487 32.0394 6.17552 31.9268 7.05273 30.9427C7.81214 30.0889 8.20563 29.8778 8.81717 29.9914C9.24825 30.0712 10.2357 29.9074 11.0102 29.6267C11.8398 29.3256 13.1957 29.1359 14.316 29.1638C15.3586 29.1898 16.6117 29.0646 17.0954 28.8855C17.7245 28.654 18.311 28.6555 19.1281 28.8908C19.9677 29.1323 20.6569 29.1262 21.692 28.8683C23.2334 28.483 23.4414 28.4757 25.3161 28.7428C26.0154 28.8423 27.0755 28.7996 27.6745 28.6477C28.4264 28.4575 29.1984 28.4978 30.1608 28.7773C30.9327 29.0022 32.028 29.0973 32.6119 28.9908C33.2661 28.8719 34.3288 29 35.3964 29.3254C36.3463 29.6153 37.5744 29.7881 38.1258 29.7097C38.7348 29.6228 39.5644 29.782 40.2336 30.1139C40.8426 30.4148 42.003 30.7532 42.8126 30.8658C43.6246 30.9786 44.9555 31.3996 45.775 31.8016C46.5921 32.2036 47.7149 32.5326 48.2663 32.5326C48.8202 32.5326 49.6096 32.7852 50.0207 33.0938C51.0107 33.8358 52.6548 34.3628 53.9781 34.3628C54.5646 34.3628 55.4995 34.5911 56.0533 34.8694C57.2839 35.4895 64.6324 35.7537 66.279 35.2374C67.2615 34.9295 67.3918 34.9754 68.3242 35.9634C69.3994 37.1039 71.5974 38.3282 72.5699 38.3282C72.9007 38.3282 73.9633 38.6788 74.9258 39.1073C76.2792 39.7083 77.1689 39.8827 78.8155 39.8704C79.991 39.8614 81.7304 39.9351 82.6803 40.0346C83.9008 40.1622 84.8257 40.0671 85.8232 39.7105C86.6026 39.4329 87.8156 39.157 88.5224 39.0973C90.0337 38.9695 92.0012 38.2215 92.8934 37.4363C93.2418 37.1294 94.0313 36.7912 94.6503 36.6844C95.2669 36.5779 96.4323 36.0856 97.2343 35.5909L98.698 34.691L100.041 35.2828C100.781 35.6084 101.608 35.8777 101.881 35.8813C102.154 35.885 102.703 36.2242 103.099 36.6349C103.793 37.3509 106.142 38.3268 107.179 38.3294C107.45 38.3302 108.38 38.68 109.244 39.1068C110.44 39.6974 111.267 39.8767 112.703 39.8575C113.741 39.8437 115.407 39.923 116.405 40.0336C117.743 40.1824 118.578 40.1028 119.58 39.7316C120.33 39.4545 121.159 39.3089 121.425 39.4084C122.187 39.6918 124.525 38.9821 125.906 38.0485C126.598 37.5812 127.55 37.1078 128.024 36.9967C128.495 36.8856 129.347 36.3984 129.914 35.9144C130.906 35.0698 130.987 35.053 131.869 35.5021C133.926 36.5478 145.077 36.4942 147.608 35.4262C148.295 35.1365 149.511 34.8689 150.308 34.832C151.187 34.7915 152.35 34.4455 153.255 33.9537C154.13 33.4806 155.24 33.1426 155.922 33.1426C156.568 33.1426 157.716 32.8221 158.478 32.4298C159.238 32.0379 160.463 31.6388 161.2 31.5435C161.939 31.4476 163.14 31.0602 163.872 30.6826C164.606 30.3046 165.584 30.0188 166.047 30.0472C166.513 30.0756 167.714 29.7985 168.721 29.4319C169.769 29.0488 171.1 28.7962 171.844 28.8389C172.556 28.8797 173.621 28.7181 174.21 28.4793C174.965 28.1739 175.511 28.1307 176.057 28.3335C176.486 28.4917 177.614 28.5303 178.566 28.4184C181.854 28.0334 185.882 28.1574 187.123 28.6827C187.764 28.9544 188.704 29.1771 189.208 29.1771C189.827 29.1771 190.286 29.4132 190.616 29.905C191.652 31.4374 194.742 32.3184 196.634 31.6206C198.18 31.0497 199 29.8553 199 28.1702C199 26.7907 198.88 26.5325 197.772 25.5089C197.01 24.805 196.09 24.2926 195.346 24.1572C194.687 24.0374 193.957 23.6746 193.724 23.3512C193.491 23.028 192.727 22.4795 192.025 22.133L190.752 21.5024L191.812 20.6244C192.393 20.141 193.053 19.7402 193.276 19.7334C194.025 19.7106 196.005 18.5652 196.93 17.6207C198.586 15.9291 198.333 12.1402 196.501 11.1892C194.797 10.3036 191.529 11.2404 190.784 12.8279C190.526 13.3742 190.1 13.6113 189.113 13.7544C188.383 13.8607 187.306 14.1979 186.717 14.5044C185.91 14.9244 185.413 14.9957 184.699 14.7943C184.178 14.6478 183.16 14.6124 182.436 14.716C181.571 14.8394 180.649 14.7375 179.762 14.4209C179.017 14.1552 177.842 13.8821 177.15 13.8141C176.458 13.7459 175.328 13.4075 174.636 13.062C173.945 12.7165 172.671 12.37 171.807 12.2919C170.942 12.2138 169.674 11.8629 168.99 11.5126C168.303 11.1615 167.155 10.875 166.436 10.875C165.639 10.875 164.589 10.5857 163.751 10.1364C162.995 9.73049 161.669 9.29936 160.804 9.17877C159.939 9.05795 158.904 8.71172 158.506 8.40941C158.105 8.10734 156.974 7.69244 155.989 7.48791C155.007 7.28289 153.984 6.93691 153.719 6.71928C152.826 5.98825 150.932 5.38435 149.531 5.38435C148.769 5.38435 147.739 5.17425 147.242 4.91707C146.621 4.5951 145.558 4.46335 143.826 4.49392C142.443 4.51843 140.799 4.4391 140.175 4.31803C139.433 4.17415 138.43 4.26853 137.297 4.58855C136.34 4.85835 135.137 5.07938 134.623 5.07938C134.109 5.07938 133.117 5.27493 132.418 5.51391C131.23 5.92152 131.112 5.90891 130.571 5.31715C130.255 4.96971 129.393 4.42478 128.658 4.10573C127.924 3.78643 127.322 3.40041 127.322 3.24755C127.322 2.74047 124.671 1.45334 123.235 1.26239C122.458 1.15903 120.971 0.867649 119.934 0.615077C118.415 0.244831 117.773 0.223958 116.633 0.507344C115.856 0.701201 114.34 0.901859 113.267 0.95378C111.881 1.0205 110.889 1.27865 109.846 1.84348C109.039 2.28094 108.222 2.64003 108.026 2.64075C107.016 2.64561 105.182 3.38198 104.285 4.14188C103.728 4.61475 102.816 5.09757 102.259 5.215C101.706 5.33219 100.773 5.74247 100.189 6.12606C99.1441 6.81439 99.114 6.81609 98.0564 6.26945C97.4674 5.96447 96.7556 5.70923 96.4774 5.70219C96.1992 5.69515 95.3621 5.21961 94.6127 4.6458C93.8658 4.07175 92.6077 3.43631 91.8182 3.23372C91.0287 3.03089 89.5475 2.47115 88.5249 1.98954C87.2517 1.38929 86.1815 1.11391 85.1239 1.11391C84.2768 1.11391 83.3444 0.992351 83.0512 0.844108C82.0236 0.319795 79.9885 0.230509 78.4371 0.641273ZM79.2917 1.62415C79.011 1.73285 79.2065 2.13973 79.9183 2.94476C80.4872 3.58456 81.3394 4.67176 81.8156 5.36106C82.773 6.74815 84.3469 7.82177 85.4246 7.82347L86.1289 7.82467L85.3745 5.80944C84.9585 4.70137 84.2266 3.39629 83.7479 2.90983C82.6176 1.76658 80.4948 1.15443 79.2917 1.62415ZM117.001 1.67632L116.27 1.87891L117.112 2.64026C117.573 3.05904 118.3 3.97932 118.728 4.68512C119.698 6.28329 121.473 7.82467 122.342 7.82467C122.941 7.82467 122.982 7.70555 122.791 6.52834C122.488 4.66449 121.418 2.68806 120.453 2.20985C119.327 1.65278 117.889 1.43055 117.001 1.67632ZM111.698 2.36319C110.721 2.64003 109.984 3.24902 110.625 3.24902C110.798 3.24902 111.763 3.91283 112.768 4.72417C113.773 5.53526 114.904 6.35898 115.28 6.55453C116.034 6.94637 118.52 7.04343 118.518 6.6807C118.515 6.26581 116.177 3.46664 115.375 2.91831C114.352 2.2181 112.951 2.00702 111.698 2.36319ZM73.7979 2.66332C73.1588 3.02508 73.0686 3.55399 73.6475 3.55399C73.8656 3.55399 74.7503 4.15012 75.6125 4.87896C76.4746 5.60732 77.4872 6.36237 77.8657 6.55647C78.5624 6.91434 81.1088 7.05508 81.1088 6.73554C81.1088 6.27989 79.0887 3.79104 78.1614 3.10563C77.0461 2.27973 74.8681 2.05894 73.7979 2.66332ZM85.8206 3.47781C86.1339 4.10718 86.55 5.20675 86.748 5.92201C87.1815 7.485 88.6352 9.17756 89.9184 9.61185C90.4322 9.78582 90.8533 9.87874 90.8533 9.81833C90.8533 9.75792 90.6478 8.66173 90.3946 7.38237C89.8508 4.61935 89.1064 3.49164 87.3946 2.82636C85.387 2.04681 85.1565 2.14216 85.8206 3.47781ZM123.072 2.88119C123.185 3.16724 123.43 4.01934 123.616 4.77415C124.49 8.34632 124.844 9.27776 125.581 9.94983C126.019 10.3482 126.458 10.5938 126.56 10.4955C126.661 10.3977 126.894 9.37335 127.079 8.21943C127.368 6.41284 127.337 5.96641 126.869 5.0078C126.285 3.81166 125.282 3.03404 123.796 2.62012C122.989 2.39594 122.891 2.43136 123.072 2.88119ZM106.59 4.19597C104.806 4.88745 104.861 5.11723 107.109 6.34588C109.919 7.88194 111.114 8.19881 112.615 7.80672C113.27 7.63592 113.803 7.38382 113.803 7.2465C113.803 6.89542 110.164 4.3583 109.317 4.11835C108.307 3.83205 107.468 3.85606 106.59 4.19597ZM69.2415 5.25746C68.0735 6.14886 67.9407 6.60451 68.8405 6.60451C69.1838 6.60451 70.5573 6.96069 71.8931 7.39596C74.0034 8.08356 74.4797 8.14227 75.5148 7.84142C76.1714 7.65096 76.7027 7.39766 76.6977 7.27853C76.6927 7.1594 75.8957 6.47859 74.9258 5.76551C72.7252 4.1489 70.9032 3.9861 69.2415 5.25746ZM91.1691 4.54535C91.1691 5.32321 92.2342 9.60943 92.5951 10.2866C93.0363 11.1166 94.708 12.3962 95.3521 12.3989C95.7706 12.4008 95.2343 8.06293 94.6729 6.91338C94.1591 5.85796 92.4097 4.46918 91.5926 4.46918C91.3595 4.46918 91.1691 4.50362 91.1691 4.54535ZM128.581 6.35436C128.581 6.90367 128.35 8.38611 128.072 9.64849C127.608 11.738 127.606 12.0463 128.054 13.0872C128.325 13.7158 128.666 14.2305 128.811 14.2305C129.225 14.2305 131.059 11.1273 131.28 10.0486C131.523 8.86918 130.53 6.72413 129.36 5.90381L128.581 5.35596V6.35436ZM138.079 5.64373C137.41 5.82812 137.531 6.01494 139.809 8.32546C141.957 10.5069 142.423 10.8325 143.633 11.0045C144.39 11.1122 145.075 11.138 145.155 11.0618C145.232 10.9854 144.907 10.2601 144.433 9.45026C142.48 6.12994 140.536 4.96438 138.079 5.64373ZM143.882 6.37572C144.23 6.75324 144.972 7.84748 145.526 8.80779C146.082 9.7681 146.939 10.833 147.433 11.1741C148.435 11.8671 150.273 12.3273 150.273 11.8862C150.273 11.2731 148.676 7.69608 148.155 7.13514C147.283 6.20151 146.014 5.68934 144.573 5.68934H143.245L143.882 6.37572ZM101.563 6.81851C100.966 7.12034 100.435 7.5095 100.38 7.68371C100.214 8.19637 104.54 9.95978 105.961 9.95978C107.347 9.95978 109.325 9.14117 108.889 8.74787C108.242 8.16654 104.665 6.56352 103.698 6.42352C103.024 6.32574 102.252 6.4684 101.563 6.81851ZM133.042 6.55866C132.641 6.6676 132.322 6.85976 132.332 6.98569C132.343 7.11185 132.353 7.41537 132.353 7.6609C132.353 8.18255 135.498 10.3155 137.004 10.8148C137.934 11.1237 139.897 11.0162 139.897 10.6566C139.897 10.5785 139.225 9.75088 138.403 8.81774C136.453 6.60112 135.049 6.0096 133.042 6.55866ZM149.796 7.10408C149.934 7.41658 150.378 8.53314 150.784 9.58541C151.19 10.6377 151.749 11.8321 152.024 12.2395C152.488 12.9264 155.18 14.4493 155.456 14.1812C155.649 13.9944 154.205 9.27073 153.734 8.54625C153.205 7.73322 152.007 7.04682 150.618 6.75786C149.656 6.55818 149.573 6.59287 149.796 7.10408ZM96.332 7.59588C96.4148 7.9734 96.5727 9.10428 96.6854 10.1092C96.9386 12.3557 97.7255 13.9085 98.9687 14.6116C99.4875 14.9054 100.016 15.1454 100.144 15.1454C100.588 15.1454 99.9537 10.1413 99.3897 9.20425C98.8659 8.33152 97.0489 6.9095 96.4599 6.9095C96.3095 6.9095 96.2518 7.21811 96.332 7.59588ZM58.6298 7.75092C57.0634 8.02388 57.0884 8.14131 59.1236 10.1575C60.2364 11.2595 61.5998 12.3525 62.1562 12.586C63.1988 13.0234 65.076 13.1661 65.076 12.8082C65.076 12.3965 63.1838 9.76471 62.294 8.93688C61.3567 8.06682 59.7677 7.55221 58.6298 7.75092ZM63.1888 7.64781C63.1888 8.18426 66.883 12.8077 67.5973 13.1668C68.3593 13.5492 69.7979 13.7971 69.7878 13.5441C69.7853 13.5019 69.5748 12.8014 69.3217 11.9864C68.3442 8.86165 66.8354 7.5197 64.2991 7.5197C63.6875 7.5197 63.1888 7.57721 63.1888 7.64781ZM77.2341 8.41571C76.8807 8.65713 76.0862 8.93518 75.4696 9.03417L74.3493 9.21395L75.8506 9.92338C77.219 10.5688 78.9032 12.2019 78.9108 12.8863C78.9108 13.0382 79.4747 13.4744 80.1639 13.8559C80.8506 14.237 81.7253 14.9576 82.1063 15.4572C82.8983 16.4956 83.7179 16.6218 84.3119 15.7976C84.8758 15.0202 87.0512 13.6203 87.6979 13.6203C87.9861 13.6203 88.7806 13.1399 89.4598 12.553C90.1415 11.9658 90.8382 11.4789 91.0112 11.4711C91.1841 11.4631 90.6327 11.1943 89.7881 10.874C88.9435 10.5537 87.9435 10.0112 87.5675 9.66814C87.1715 9.30712 86.4572 9.04485 85.8733 9.04485C85.3169 9.04485 84.3344 8.82527 83.6928 8.55644C82.1464 7.91033 78.1088 7.82225 77.2341 8.41571ZM114.172 8.53558C113.631 8.84274 112.613 9.13557 111.911 9.18628C111.207 9.23723 110.392 9.48399 110.097 9.73511C109.32 10.3946 107.635 11.1799 106.999 11.1799C106.676 11.1799 107.024 11.5368 107.848 12.049C108.615 12.5267 109.515 13.2131 109.843 13.5742C110.174 13.9352 110.683 14.2305 110.976 14.2305C111.563 14.2305 114.129 15.9174 114.528 16.5657C114.884 17.1458 115.583 17.074 116.064 16.4078C116.585 15.6877 118.783 14.2305 119.35 14.2305C119.585 14.2305 120.29 13.6821 120.911 13.0125C121.58 12.2955 122.55 11.6482 123.27 11.4391C125.169 10.8868 124.663 9.66378 122.28 9.04242C121.508 8.84152 120.601 8.53485 120.265 8.36064C119.177 7.79727 115.277 7.90912 114.172 8.53558ZM69.1613 8.18667C69.1613 8.26018 69.4219 8.86045 69.7402 9.52136C70.0585 10.182 70.4997 11.5461 70.7227 12.5527C71.0385 13.983 71.3768 14.6116 72.2666 15.4293L73.407 16.4752L73.6826 14.0005C73.9258 11.8248 73.8882 11.4073 73.3693 10.546C72.6225 9.31051 71.4946 8.49699 70.1839 8.24781C69.6224 8.14057 69.1613 8.1134 69.1613 8.18667ZM52.0884 8.95337C51.3014 9.15111 51.4668 9.39229 53.4418 10.9473C56.2513 13.1552 57.4769 13.6069 59.3416 13.1219C60.0308 12.9428 60.0108 12.8883 58.7275 11.5245C56.5897 9.25228 55.7175 8.73477 54.0884 8.77505C53.3014 8.7947 52.4017 8.87476 52.0884 8.95337ZM155.929 10.6428C156.924 14.1189 157.724 15.1178 160.037 15.7612C160.609 15.9201 161.115 16.0116 161.165 15.9643C161.275 15.8563 159.844 12.2492 159.205 11.0276C158.621 9.91296 157.523 9.09482 156.29 8.85535L155.368 8.67629L155.929 10.6428ZM101.407 12.0037C101.683 15.1617 102.367 16.6429 103.944 17.4938L105.187 18.1644L105.072 16.121C104.881 12.7471 104.056 11.0586 102.129 10.091L101.199 9.62471L101.407 12.0037ZM46.9981 10.5537C46.3064 10.8711 45.8853 11.1418 46.0607 11.1554C46.2387 11.169 47.2287 11.7981 48.2613 12.5532C50.5395 14.2174 51.8753 14.6398 53.512 14.2125C54.8027 13.875 54.9255 13.7127 54.2714 13.1964C50.3089 10.0605 49.0608 9.60749 46.9981 10.5537ZM131.799 12.0262C131.408 12.8189 130.736 14.017 130.31 14.6881C129.824 15.4526 129.533 16.3636 129.533 17.1281C129.533 19.2002 129.866 19.2601 131.623 17.5049C133.503 15.6277 133.924 14.9164 133.924 13.6103C133.924 12.6481 133.089 10.5634 132.708 10.5773C132.598 10.5811 132.19 11.2331 131.799 12.0262ZM160.807 11.1038C160.932 11.3973 161.228 12.2354 161.466 12.9664C162.355 15.727 163.551 16.9275 165.892 17.4169L166.894 17.626L165.824 15.1241C165.235 13.7479 164.501 12.3521 164.193 12.0223C162.964 10.7051 160.33 9.99035 160.807 11.1038ZM74.9959 13.9039C74.8205 16.2896 74.8706 17.1002 75.239 17.7861C75.6701 18.5907 77.3017 20.2951 77.3619 20.003C77.4922 19.3605 77.6225 18.3044 77.818 16.3508C78.0787 13.7231 77.6827 12.5932 76.1238 11.516L75.214 10.8888L74.9959 13.9039ZM140.699 11.8603C140.413 12.0158 139.373 12.1461 138.388 12.1507C135.162 12.1648 134.606 12.8786 135.784 15.488C136.663 17.4358 136.666 24.156 135.786 26.0893C135.084 27.6389 135.024 28.2615 135.573 28.2639C135.791 28.2651 136.358 28.4633 136.834 28.7047C137.505 29.0444 137.922 29.0694 138.671 28.8161C139.202 28.6361 140.333 28.5684 141.18 28.6657C142.195 28.7824 143.095 28.6916 143.814 28.4C144.415 28.1562 145.503 27.957 146.232 27.957C146.962 27.957 148.17 27.669 148.919 27.3174C149.669 26.9654 150.882 26.6075 151.613 26.5221C152.345 26.4367 153.644 26.0381 154.498 25.6365C155.353 25.2352 156.503 24.9067 157.052 24.9067C157.601 24.9067 158.684 24.5639 159.456 24.1446C160.23 23.7258 161.556 23.2945 162.403 23.1862C163.253 23.0783 164.471 22.7347 165.112 22.4232C165.777 22.101 166.947 21.8564 167.827 21.8564C168.676 21.8564 169.882 21.6495 170.506 21.3966C171.13 21.1441 172.2 20.916 172.889 20.8895C174.666 20.8223 174.19 20.4472 172.027 20.2097C171.017 20.0991 169.706 19.7587 169.112 19.4534C168.518 19.1485 167.275 18.8141 166.348 18.7105C165.423 18.6067 164.215 18.2653 163.669 17.9519C163.12 17.6384 161.929 17.2963 161.02 17.1919C160.11 17.0874 158.699 16.6633 157.884 16.2501C157.07 15.8364 155.837 15.407 155.145 15.2956C153.819 15.0823 151.528 13.9861 151.528 13.5642C151.528 13.4271 150.922 13.3153 150.18 13.3153C149.44 13.3153 148.273 13.0377 147.586 12.6985C146.671 12.2446 146.009 12.1298 145.082 12.2647C144.32 12.3749 143.305 12.2751 142.521 12.0129C141.668 11.7278 141.039 11.6754 140.699 11.8603ZM41.7324 12.1286C41.2562 12.306 40.8677 12.5508 40.8677 12.6726C40.8677 12.8921 44.161 15.0663 45.4843 15.7212C46.4166 16.1817 47.2738 16.1479 48.6322 15.5972L49.7751 15.1342L47.4943 13.5739C45.0557 11.9073 43.4241 11.4978 41.7324 12.1286ZM91.3997 12.592C90.926 12.8327 90.54 13.1338 90.54 13.2609C90.54 13.3881 91.5951 13.9328 92.8859 14.4714C95.1365 15.4099 97.4549 15.7636 97.4549 15.1677C97.4549 14.7584 95.8834 13.6203 95.3195 13.6203C95.0538 13.6203 94.2593 13.2905 93.5501 12.8873C92.3696 12.2162 92.1891 12.1914 91.3997 12.592ZM166.027 12.281C166.092 12.4343 166.548 13.5501 167.037 14.7608C168.015 17.1798 169.092 18.2922 170.934 18.7857C171.566 18.9558 172.132 19.0497 172.188 18.9951C172.245 18.9405 171.779 17.708 171.153 16.2569C170.378 14.4651 169.721 13.4162 169.105 12.9902C168.155 12.3336 165.817 11.795 166.027 12.281ZM192.494 12.8363C191.423 13.7362 191.569 13.8906 194.376 14.8198C196.627 15.5647 196.699 15.5656 196.807 14.8404C196.95 13.8588 196.772 13.3146 196.11 12.7172C195.163 11.8603 193.594 11.9122 192.494 12.8363ZM123.393 12.6883C123.047 12.8259 122.513 13.2095 122.205 13.5407C121.658 14.1307 121.693 14.1596 123.934 14.9508C126.114 15.7209 128.142 16.0164 127.881 15.5268C127.816 15.4009 127.443 14.6458 127.054 13.8491C126.395 12.4967 126.272 12.4013 125.185 12.4195C124.545 12.4302 123.738 12.5513 123.393 12.6883ZM2.74691 13.2537C0.588488 14.5248 1.28373 17.4266 3.8998 18.0637C4.74944 18.2707 4.79705 18.2355 4.60156 17.5544C4.48377 17.1524 4.3008 15.9609 4.19053 14.9069C4.08276 13.8532 3.90482 12.9373 3.79454 12.872C3.68677 12.8067 3.21559 12.9785 2.74691 13.2537ZM106.097 14.0017C106.174 14.7145 106.312 15.9718 106.405 16.7955C106.615 18.6453 107.874 20.4121 108.881 20.2723C109.473 20.1905 109.57 19.954 109.653 18.4267C109.773 16.1783 108.919 14.188 107.46 13.3245C106.886 12.9853 106.312 12.707 106.187 12.7065C106.059 12.7058 106.019 13.2888 106.097 14.0017ZM5.34343 13.9104C5.34343 15.4555 5.99256 17.8332 6.62665 18.6171C7.2031 19.3273 9.9074 20.5797 10.2182 20.2796C10.4663 20.0379 8.53895 15.0978 7.94997 14.4658C7.43367 13.9121 5.92489 13.0103 5.51637 13.0103C5.42113 13.0103 5.34343 13.4152 5.34343 13.9104ZM36.3338 14.0111L35.4165 14.4078L37.5268 15.8696C38.6897 16.6735 40.0832 17.4552 40.6296 17.6068C41.6471 17.8902 43.8276 17.512 44.156 16.9949C44.2512 16.8467 43.3865 16.0734 42.2336 15.2762C39.9253 13.6766 38.0431 13.2728 36.3338 14.0111ZM60.2013 14.0956C59.6824 14.3299 58.5521 14.5095 57.6875 14.4944C56.7626 14.4789 55.6824 14.6847 55.0658 14.9952C54.4894 15.2849 53.4268 15.5613 52.7074 15.6091C51.9881 15.6571 50.6222 16.0511 49.6698 16.4854C48.7199 16.9195 47.567 17.2761 47.1084 17.2776C46.6522 17.2795 45.6597 17.6202 44.9079 18.0353C44.156 18.4507 42.9479 18.8767 42.2236 18.9823C41.4993 19.0881 40.2386 19.5032 39.4191 19.9052C38.5945 20.3106 37.3614 20.6404 36.6496 20.646C35.1684 20.6569 33.8902 21.3462 34.7548 21.6679C35.033 21.7715 36.1032 21.8564 37.1333 21.8564C38.399 21.8564 39.414 22.0583 40.2612 22.478C40.9529 22.8199 41.6396 23.0263 41.7875 22.9373C42.2612 22.6549 45.2863 23.3517 46.1585 23.944C46.6196 24.2567 47.6999 24.6029 48.5595 24.7131C49.4192 24.823 50.6523 25.2546 51.3039 25.6727C52.0107 26.1256 52.938 26.4318 53.6097 26.4318C54.2263 26.4318 55.1837 26.6669 55.7376 26.9544C56.2914 27.2417 57.6624 27.5729 58.7877 27.6903C59.9105 27.8083 61.2288 28.0026 61.7176 28.1227L62.6023 28.3411L62.0985 27.174C61.4644 25.6964 61.3441 20.817 61.8329 16.2928C62.0334 14.4323 62.0008 13.8988 61.67 13.7763C61.4394 13.6904 61.2264 13.6317 61.1988 13.645C61.1687 13.6588 60.7201 13.8617 60.2013 14.0956ZM171.789 14.1788C173.03 17.9717 174.418 19.823 176.416 20.3449C177.932 20.7408 178.138 20.6166 177.526 19.6713C177.273 19.2792 176.834 18.2617 176.551 17.4101C175.907 15.4688 174.368 13.9687 172.764 13.7161C171.661 13.5421 171.591 13.5746 171.789 14.1788ZM64.2113 14.1458C63.274 14.2589 63.1888 14.3591 63.1888 15.3499C63.1888 16.2632 63.274 16.3956 63.7377 16.2028C64.0409 16.0773 65.0961 15.6806 66.0836 15.3208C67.7101 14.7286 67.8229 14.6325 67.2665 14.2962C66.6625 13.9294 66.1988 13.9066 64.2113 14.1458ZM87.8683 14.8807C87.3495 15.0268 86.5926 15.3965 86.1891 15.702L85.4522 16.2576L87.9811 17.2269C91.0087 18.3881 92.1741 18.4332 93.8408 17.4537L95.0989 16.7147L94.312 16.417C93.8809 16.253 92.8884 15.8534 92.1115 15.5285C90.2342 14.7451 89.0111 14.5583 87.8683 14.8807ZM10.356 16.4684C11.6117 20.0074 12.8598 21.2428 15.1882 21.245L16.3887 21.2462L15.7947 20.4075C15.4664 19.946 15.0077 19.1043 14.7746 18.5366C13.9525 16.5407 11.9425 14.8404 10.4062 14.8404C9.78459 14.8404 9.78457 14.8579 10.356 16.4684ZM69.6475 16.5944C69.5272 17.5593 69.3743 19.1033 69.3092 20.026C69.2415 20.9487 69.1688 21.9782 69.1437 22.3138C69.1061 22.8466 69.9583 25.4771 70.2691 25.7767C70.3292 25.8367 70.823 25.3966 71.3643 24.7985C71.9057 24.2002 72.8029 23.5516 73.3568 23.357C73.9107 23.1625 74.7353 22.5052 75.1864 21.896L76.006 20.7884L74.9408 19.5939C74.3568 18.9369 73.8781 18.2163 73.8781 17.9924C73.8781 17.7689 73.7077 17.5857 73.5022 17.5857C72.8731 17.5857 70.7653 16.0286 70.5648 15.4157C70.2215 14.3671 69.8706 14.8181 69.6475 16.5944ZM79.0461 17.1281C78.8807 18.3866 78.7804 19.4161 78.8256 19.4161C79.0361 19.4161 81.4221 16.9459 81.4221 16.7278C81.4221 16.4658 79.7704 14.8404 79.5023 14.8404C79.417 14.8404 79.2115 15.8699 79.0461 17.1281ZM188.007 15.3228L186.92 15.7808L187.852 16.5369C190.479 18.6686 192.692 19.0279 194.847 17.6731C195.569 17.2177 196.058 16.7603 195.93 16.657C195.594 16.3842 190.128 14.8297 189.569 14.8484C189.308 14.8572 188.606 15.0704 188.007 15.3228ZM31.1232 15.488L30.3387 15.7915L31.9102 17.1337C33.7874 18.738 35.1258 19.4161 36.414 19.4161C37.5068 19.4161 38.988 18.9345 38.9704 18.5849C38.9554 18.3005 35.7373 16.0584 34.602 15.5406C33.627 15.0971 32.1884 15.0753 31.1232 15.488ZM177.807 17.0519C179.168 20.4434 180.336 21.3714 182.258 20.5919L183.275 20.1787L182.03 18.2724C180.702 16.2411 179.25 15.1486 177.882 15.1466L177.04 15.1454L177.807 17.0519ZM110.781 15.9296C110.889 16.1969 110.974 17.1752 110.974 18.1037V19.7919L112.204 18.7651C112.881 18.2005 113.448 17.576 113.463 17.3778C113.49 16.9981 112.167 15.9977 111.174 15.6491C110.726 15.4914 110.635 15.5569 110.781 15.9296ZM118.285 16.0572C117.721 16.3898 117.262 16.7688 117.262 16.9001C117.262 17.2308 121.956 18.8127 122.926 18.809C123.911 18.8054 125.906 17.7929 125.906 17.2965C125.906 16.8108 121.869 15.4501 120.43 15.4518C119.811 15.4523 118.846 15.7248 118.285 16.0572ZM14.9776 15.9655C14.7195 16.2166 17.4113 20.6433 18.0804 21.0696C18.6243 21.4153 19.0454 21.441 20.0579 21.1914L21.3461 20.8745L20.8399 20.069C19.4739 17.8985 18.692 16.9095 18.098 16.599C17.3686 16.2178 15.1756 15.7726 14.9776 15.9655ZM66.1763 16.3867C64.071 17.1538 62.5597 18.7472 62.5597 20.1998C62.5597 20.8034 62.6675 21.2513 62.7953 21.1953C62.9256 21.1395 64.0635 20.5581 65.3267 19.9035C67.6249 18.7122 68.5322 17.7148 68.5322 16.3808C68.5322 15.6345 68.2365 15.635 66.1763 16.3867ZM182.441 15.9917C181.877 16.3403 184.606 19.8431 185.912 20.4441C187.273 21.0705 187.97 21.0686 189.601 20.4354L190.905 19.93L190 19.485C189.504 19.2399 188.408 18.4851 187.566 17.807C185.544 16.1758 183.383 15.4108 182.441 15.9917ZM26.0079 16.2772L25.1382 16.4075L26.6169 18.0867C28.0881 19.7582 29.9302 20.9412 31.063 20.9412C31.3889 20.9412 32.1182 20.7857 32.6796 20.5952L33.7022 20.2493L32.3337 19.0609C29.5142 16.6118 28.0555 15.9706 26.0079 16.2772ZM97.7481 16.4772C97.1316 16.6676 96.0137 17.3361 95.2618 17.9625C94.51 18.5895 93.4348 19.1856 92.8734 19.2882C92.3095 19.3904 91.54 19.7946 91.1616 20.1859C90.525 20.842 90.5099 20.9495 90.956 21.5677C91.2217 21.9362 92.2468 22.5561 93.2343 22.9451C94.2192 23.3342 95.4348 24.0318 95.9335 24.4954C96.7481 25.2519 97.0589 25.3369 98.9687 25.3196C100.961 25.3019 101.202 25.2221 102.811 24.0374C103.756 23.3422 104.979 22.6908 105.53 22.5896C106.082 22.4887 106.758 22.1641 107.034 21.8683C107.498 21.3709 107.465 21.2583 106.613 20.3732C106.107 19.8467 105.53 19.4161 105.335 19.4161C104.711 19.4161 102.668 18.2879 102.014 17.5833C100.941 16.4279 99.2945 16.0004 97.7481 16.4772ZM20.1181 16.4709C20.1181 16.8523 22.276 19.8958 23.0203 20.5681C23.7046 21.1836 23.9953 21.2399 25.5642 21.0608L27.3362 20.8585L26.058 19.3761C25.3537 18.5606 24.3787 17.6175 23.89 17.2798C23.0479 16.6982 20.1181 16.0698 20.1181 16.4709ZM132.29 18.5405C130.237 20.5751 129.332 22.2407 129.731 23.2518C129.964 23.8358 130.047 23.8144 132.037 22.6629C134.13 21.4534 135.182 20.0532 135.182 18.4808C135.182 17.2468 134.924 16.3384 134.598 16.4095C134.485 16.4338 133.448 17.3926 132.29 18.5405ZM127.024 18.0685C126.43 18.6814 125.368 19.4226 124.663 19.7153C122.593 20.5758 122.37 21.0448 123.435 22.2769C123.931 22.8485 124.628 23.3961 124.987 23.4937C125.345 23.5914 126.175 24.0245 126.831 24.4564C127.488 24.8883 128.114 25.1549 128.222 25.0489C128.395 24.8822 128.49 23.7918 128.633 20.331C128.651 19.9118 128.54 18.9803 128.385 18.2614L128.107 16.9544L127.024 18.0685ZM81.9058 18.4005C80.8055 19.1249 80.7379 19.2404 81.2817 19.4379C81.6176 19.5602 82.6552 19.9486 83.5875 20.3007C85.9234 21.1856 87.931 21.1455 89.2693 20.1871C90.2117 19.5126 90.2593 19.4115 89.7229 19.2268C89.3946 19.1135 88.3169 18.6977 87.3269 18.3032C84.9359 17.3497 83.4572 17.3763 81.9058 18.4005ZM114.59 18.5528C114.245 18.7392 113.711 19.1021 113.402 19.3596C112.886 19.7946 112.999 19.8919 114.976 20.7253C117.595 21.8285 119.403 21.9411 120.598 21.0752C121.741 20.2473 121.849 19.8322 120.969 19.6378C120.573 19.5503 119.438 19.19 118.448 18.8374C116.44 18.1214 115.518 18.0535 114.59 18.5528ZM66.0109 20.6853C65.0635 21.1877 64.0259 21.8472 63.7051 22.151C62.9457 22.8667 62.67 25.2173 63.1988 26.4546C63.5647 27.3094 63.6349 27.3475 63.9206 26.8409C64.0936 26.5323 64.9707 25.4558 65.8705 24.4491C67.7026 22.3941 68.2189 21.5655 68.2189 20.6744C68.2189 19.7072 67.853 19.7092 66.0109 20.6853ZM78.1213 21.0994C77.605 21.3714 76.9283 21.8142 76.6225 22.0837C76.0987 22.5423 76.2215 22.6195 78.5073 23.2712C81.367 24.0866 82.6978 24.1565 83.8983 23.5541C85.7379 22.6311 85.6803 22.3036 83.5474 21.548C80.9258 20.6188 79.2967 20.4839 78.1213 21.0994ZM109.736 21.4757C108.676 21.9976 108.082 22.7713 108.738 22.7713C108.921 22.7713 109.881 23.1314 110.871 23.5713C113.3 24.649 114.643 24.7766 115.986 24.058C116.583 23.7397 117.114 23.3541 117.167 23.2015C117.285 22.8572 112.503 20.941 111.528 20.9417C111.137 20.9417 110.33 21.1822 109.736 21.4757ZM182.832 21.822C182.737 21.9704 182.872 22.2628 183.13 22.472C183.391 22.6806 184.238 23.7787 185.015 24.9123C186.388 26.9171 188.042 28.136 189.073 27.9009C189.616 27.7762 188.408 24.0294 187.506 23.0472C186.411 21.8533 183.326 21.0448 182.832 21.822ZM88.2843 22.0619C87.8457 22.1745 87.7856 22.4851 87.9209 23.933C88.2142 27.109 88.8808 28.2675 90.8909 29.0942L91.713 29.4326L91.5751 28.0082C91.3195 25.3471 90.8182 23.4206 90.1841 22.6374C89.56 21.8676 89.3219 21.7955 88.2843 22.0619ZM177.228 22.035C177.128 22.1332 177.351 22.5695 177.727 23.0048C180.724 26.4813 181.539 27.042 183.599 27.042H184.89L184.321 26.0987C183.411 24.5893 181.719 22.7925 180.749 22.306C179.867 21.8627 177.586 21.6873 177.228 22.035ZM20.3536 22.3623C20.0529 22.444 19.8048 22.5886 19.8048 22.6835C19.8048 23.1028 23.4214 26.8006 24.2259 27.2046C25.1708 27.6782 27.3487 27.8204 27.3487 27.4079C27.3487 26.9537 24.5316 23.4024 23.8148 22.9557C23.0128 22.4533 21.1807 22.1393 20.3536 22.3623ZM25.464 22.2992C25.464 22.7187 28.4615 26.5075 29.1959 27.0137C30.0104 27.5773 32.6946 28.1188 32.6946 27.7197C32.6946 27.0595 29.9528 23.2394 29.1307 22.7524C28.266 22.2414 25.464 21.895 25.464 22.2992ZM120.799 22.3633C120.222 22.5889 120.28 26.8341 120.871 27.9482C121.322 28.7911 122.884 30.0923 123.448 30.0923C123.713 30.0923 123.663 26.0024 123.38 24.7014C123.23 24.0095 121.761 22.1437 121.4 22.1854C121.285 22.1985 121.014 22.2788 120.799 22.3633ZM134.766 22.396C134.623 22.6088 133.776 23.1389 132.879 23.574C130.012 24.9674 128.38 26.4318 129.696 26.4318C129.964 26.4318 130.613 26.6485 131.142 26.9134C131.929 27.3082 132.265 27.3293 133.009 27.0302C134.338 26.4961 135.24 24.9103 135.122 23.3163C135.059 22.4974 134.926 22.1534 134.766 22.396ZM171.458 22.3487C171.08 22.4998 174.353 25.9476 175.696 26.8111C176.516 27.3388 178.077 27.5093 178.987 27.1704C179.353 27.0345 179.07 26.5206 177.757 24.9319C176.819 23.7979 175.691 22.7105 175.25 22.5159C174.471 22.1709 172.158 22.0689 171.458 22.3487ZM14.3761 22.6503C14.0578 22.9584 17.301 26.7266 18.3235 27.2407C19.2058 27.6826 21.5567 27.8839 21.905 27.5472C22.1858 27.2728 18.8373 23.5288 17.8373 23.0002C16.8624 22.4851 14.7646 22.2728 14.3761 22.6503ZM31.1633 22.6525C31.652 23.7348 33.3538 26.1577 34.2661 27.0707C35.2586 28.0632 37.4792 28.9073 37.9328 28.4655C38.196 28.2108 35.9203 24.1601 35.0932 23.4138C34.5343 22.907 33.7899 22.6374 32.6646 22.5326C31.7698 22.4494 31.0956 22.5032 31.1633 22.6525ZM189.564 24.041C189.88 24.9365 190.308 26.285 190.516 27.0379C190.872 28.3192 192.634 30.3973 193.363 30.3973C193.524 30.3973 193.657 29.3999 193.657 28.1809C193.657 24.9021 192.526 23.2576 189.829 22.6134L188.992 22.413L189.564 24.041ZM8.83972 23.4051C8.10287 23.6914 8.11289 23.7115 9.5891 24.9872C12.2282 27.2662 13.4814 27.957 14.9776 27.957C15.732 27.957 16.3461 27.8665 16.3461 27.7561C16.3461 27.2575 13.6819 24.1987 12.7846 23.6683C11.722 23.0402 10.0653 22.9298 8.83972 23.4051ZM38.0406 25.4405C38.6972 26.7409 39.5895 28.1246 40.0206 28.516C40.9228 29.3334 43.8101 29.9118 43.1885 29.1505C42.9955 28.9134 42.597 28.0067 42.3038 27.1357C41.4216 24.5069 39.8225 23.0766 37.7699 23.0766H36.8426L38.0406 25.4405ZM116.575 25.456L118.991 27.0547L119.089 25.974C119.142 25.3796 119.142 24.5088 119.089 24.0396L118.991 23.1857L116.575 25.456ZM165.907 23.4087C165.418 23.6853 165.541 23.8729 166.962 25.0008C169.376 26.9195 170.744 27.6421 171.965 27.6423C174.035 27.6428 174.117 27.2514 172.411 25.5154C171.561 24.6483 170.481 23.7448 170.015 23.5077C169.03 23.0082 166.714 22.9523 165.907 23.4087ZM85.2091 24.2715L84.1239 25.145L85.2091 25.7874C85.8081 26.1404 86.4046 26.4301 86.5374 26.4306C86.6703 26.4314 86.753 25.7454 86.7229 24.9067C86.6928 24.0679 86.5826 23.3852 86.4823 23.3898C86.3796 23.3944 85.8081 23.7911 85.2091 24.2715ZM104.681 24.2567C104.079 24.5699 103.643 24.9475 103.713 25.0955C103.879 25.4456 107.387 26.8882 108.666 27.1316C109.846 27.3562 111.46 26.9569 112.28 26.2373C112.846 25.7404 112.773 25.6777 110.495 24.7029C107.801 23.5504 106.265 23.4325 104.681 24.2567ZM66.8931 25.1559C64.457 27.7726 64.1487 29.9237 65.8906 32.141L66.7853 33.2785L67.0685 32.2189C67.2239 31.6366 67.6901 30.1758 68.1011 28.9733C68.9432 26.51 68.9808 26.0347 68.4345 24.7929L68.0485 23.9163L66.8931 25.1559ZM74.0335 24.4195C73.5172 24.6415 72.838 25.0998 72.5272 25.438C71.9708 26.0448 71.9959 26.0609 74.5348 26.7259C77.5423 27.5135 78.8105 27.389 80.2216 26.1671L81.1915 25.325L78.8707 24.6573C76.2165 23.894 75.3594 23.8518 74.0335 24.4195ZM92.5951 26.203C92.8508 28.903 93.5024 30.3238 94.9085 31.2322C96.6579 32.3633 96.7606 32.2269 96.2719 29.4205C96.0313 28.0446 95.6278 26.5286 95.3721 26.0519C94.9536 25.2646 93.2719 23.9956 92.6428 23.9927C92.5024 23.9922 92.4824 24.987 92.5951 26.203ZM43.2537 26.0507C43.6622 27.0151 44.0005 27.9706 44.0031 28.1729C44.0256 29.2087 47.6497 31.8489 48.2512 31.2664C48.4242 31.0994 47.547 28.3704 46.8226 26.8101C46.1585 25.3827 44.6572 24.2996 43.3389 24.2977L42.5093 24.2965L43.2537 26.0507ZM161.172 24.7359C159.942 25.1651 159.365 25.5166 159.892 25.5166C160.055 25.5166 161.145 26.1931 162.313 27.0197C164.774 28.761 165.741 29.0427 167.596 28.5582L168.939 28.2071L167.701 27.1561C164.681 24.5944 163.177 24.0366 161.172 24.7359ZM4.58652 25.0608C3.90982 25.2905 3.06521 25.7615 2.70931 26.1077L2.06017 26.7368H2.79703C3.20305 26.7368 4.6567 27.2284 6.02765 27.8286C8.08281 28.7297 8.73694 28.885 9.75951 28.7171C10.4412 28.6055 11.0678 28.4046 11.153 28.2709C11.3235 28.0055 8.94247 25.7675 7.98255 25.2883C6.83467 24.7157 5.80459 24.6466 4.58652 25.0608ZM124.869 27.5064C124.974 29.4753 125.162 30.3036 125.636 30.9192C126.368 31.8722 127.523 32.7119 128.455 32.9718C129.107 33.1533 129.112 33.1285 128.693 31.558C128.458 30.6785 128.265 29.6207 128.265 29.207C128.265 27.545 126.235 24.9067 124.954 24.9067C124.831 24.9067 124.791 26.0764 124.869 27.5064ZM81.788 26.4818C81.2115 27.1139 80.2742 27.7947 79.7053 27.9943C79.1363 28.194 78.4371 28.7414 78.1514 29.2101C77.8656 29.6794 77.2065 30.3573 76.6852 30.7176C75.9233 31.2445 75.8105 31.4564 76.1087 31.8057C76.3569 32.0945 76.808 32.1796 77.4621 32.0605C78.0235 31.9581 79.0737 32.0879 79.9058 32.3623C80.991 32.7192 81.5825 32.7639 82.2015 32.5353C82.6602 32.366 83.7379 32.2277 84.5976 32.2277C85.5324 32.2277 86.4848 32.0214 86.966 31.715C87.4096 31.4335 88.4147 31.0446 89.1991 30.8512L90.6277 30.4994L89.4798 29.8111C88.8483 29.4326 88.1866 28.8603 88.0086 28.54C87.8332 28.2195 87.4748 27.957 87.2141 27.957C86.5074 27.957 84.2667 26.7795 83.5048 26.0087L82.8382 25.3323L81.788 26.4818ZM194.912 28.1096C194.912 30.5181 194.96 30.7023 195.556 30.7023C196.544 30.7023 197.742 29.3584 197.742 28.2527C197.742 27.2136 196.296 25.5166 195.408 25.5166C194.997 25.5166 194.912 25.9519 194.912 28.1096ZM48.2387 26.508C48.359 26.8855 48.6698 27.9456 48.9329 28.8629C49.5821 31.1225 50.3565 32.0821 52.0383 32.7052C52.8202 32.9944 53.5145 33.1741 53.5872 33.1048C53.8378 32.8626 51.9505 27.9388 51.364 27.2987C50.7776 26.6606 49.0858 25.8219 48.3866 25.8219C48.1585 25.8219 48.1034 26.0737 48.2387 26.508ZM114.262 26.147C113.851 26.7943 111.493 28.2624 110.849 28.2736C110.485 28.2797 109.643 28.7377 108.976 29.2912L107.766 30.2973L108.731 30.6853C109.262 30.8986 109.859 31.2642 110.059 31.4978C110.27 31.7439 111.009 31.9224 111.813 31.9224C112.58 31.9224 113.633 32.1364 114.152 32.3975C114.926 32.7862 115.3 32.8083 116.202 32.5191C116.811 32.325 117.826 32.2354 118.463 32.3208C119.267 32.4286 120.017 32.2803 120.921 31.8356L122.225 31.1953L120.766 29.8058C119.961 29.0418 118.811 28.1974 118.205 27.9296C117.6 27.6617 116.751 27.0804 116.32 26.6373C115.5 25.7993 114.618 25.5887 114.262 26.147ZM155.538 26.4813C155.062 26.65 154.676 26.8792 154.684 26.9911C154.704 27.3985 158.944 30.0203 159.914 30.225C160.864 30.4257 163.496 29.8948 163.458 29.5103C163.428 29.2077 159.849 26.7759 158.942 26.441C157.904 26.0582 156.691 26.0727 155.538 26.4813ZM97.1516 26.8132C97.1967 28.3447 98.1466 32.0641 98.6779 32.7889C99.2569 33.5791 101.081 34.6275 101.355 34.3278C101.638 34.0175 100.818 29.5336 100.332 28.7254C99.8108 27.858 97.9937 26.4318 97.4098 26.4318C97.2619 26.4318 97.1466 26.6036 97.1516 26.8132ZM100.766 26.9928C101.107 27.3014 101.981 27.717 102.708 27.9162C103.435 28.1154 104.457 28.6276 104.979 29.0544C105.919 29.8196 105.944 29.8228 106.881 29.2851C107.402 28.9857 107.831 28.6523 107.831 28.5446C107.831 28.1191 102.766 26.4318 101.49 26.4318C100.169 26.4318 100.157 26.442 100.766 26.9928ZM71.0686 27.8556C71.5147 28.3306 72.1187 29.0971 72.412 29.5585C73.1438 30.7032 74.7052 30.7091 76.0962 29.5721L77.1088 28.7475L74.8506 28.0788C73.61 27.7112 72.0711 27.316 71.4295 27.2005L70.2615 26.9911L71.0686 27.8556ZM53.9606 29.9295C54.8879 32.6071 56.1335 33.8785 58.1536 34.2097C59.6599 34.4564 59.9983 34.2795 59.3817 33.5672C59.1411 33.2894 58.4494 32.1558 57.8454 31.0485C56.695 28.9466 55.1887 27.652 53.8904 27.652H53.1711L53.9606 29.9295ZM129.322 28.1858C129.408 28.4796 129.576 29.3373 129.693 30.0923C130.142 32.9143 131.453 34.3499 133.982 34.791L135.142 34.9933L134.205 33.0764C133.691 32.0226 133.027 30.6838 132.731 30.1018C131.894 28.4527 128.911 26.7766 129.322 28.1858ZM150.35 28.0324C149.789 28.2071 149.33 28.4335 149.333 28.5352C149.335 28.6366 150.338 29.4401 151.561 30.3211C153.508 31.7245 153.964 31.9212 155.25 31.9118C156.057 31.9057 157.05 31.7218 157.456 31.5032C158.185 31.1106 158.167 31.0873 156.197 29.7327C154.323 28.4432 152.506 27.6124 151.719 27.6831C151.528 27.7003 150.912 27.8573 150.35 28.0324ZM1.25617 28.2423C1.25617 29.0629 1.96494 30.1171 2.79953 30.5351C4.10782 31.1917 4.84969 31.1269 5.87477 30.2682L6.75699 29.5289L5.02764 28.7457C3.31333 27.9693 1.25617 27.6945 1.25617 28.2423ZM69.0485 30.0273C68.061 33.4398 68.6425 35.3078 71.0661 36.5068C72.4872 37.2107 72.8305 37.1551 72.3718 36.2955C72.2089 35.9874 71.9783 34.6498 71.858 33.3234C71.6325 30.81 71.2215 29.701 70.1814 28.7865C69.5773 28.2566 69.5523 28.2843 69.0485 30.0273ZM59.0684 30.6261C60.1286 32.6481 61.0384 33.6703 62.1386 34.0765C63.1086 34.4341 65.2966 34.4511 65.5171 34.1024C65.7201 33.7846 61.7301 29.6646 60.7727 29.2031C60.3942 29.0211 59.6499 28.8722 59.1185 28.8722H58.1486L59.0684 30.6261ZM102.335 30.9311C102.783 34.7185 103.748 36.2698 105.914 36.6903C106.866 36.8754 106.931 36.8424 106.65 36.3144C106.48 35.9959 106.159 34.7745 105.939 33.6002C105.6 31.8067 105.347 31.2819 104.362 30.3211C103.716 29.692 102.949 29.1771 102.658 29.1771C102.197 29.1771 102.154 29.4084 102.335 30.9311ZM144.503 29.4423C144.002 29.633 144.195 29.9106 145.844 31.3935C147.974 33.3074 149.531 33.9163 151.142 33.4675C151.691 33.3153 152.283 33.1043 152.458 32.998C152.824 32.7796 149.135 29.9327 147.897 29.4756C146.967 29.1332 145.353 29.1175 144.503 29.4423ZM133.924 29.6425C133.924 29.7306 134.423 30.7644 135.034 31.9399C136.35 34.4785 137.455 35.2753 139.661 35.2767C140.483 35.2772 141.155 35.193 141.155 35.0894C141.155 34.9856 140.766 34.4547 140.29 33.9095C139.814 33.3641 139.022 32.4087 138.528 31.7861C137.43 30.4009 135.942 29.485 134.789 29.4833C134.312 29.4828 133.924 29.5542 133.924 29.6425ZM139.175 29.9785C139.067 30.0838 139.383 30.736 139.879 31.4275C141.909 34.2679 143.724 35.2284 145.957 34.6452L147.177 34.3261L145.072 32.438C143.914 31.3996 142.593 30.3844 142.14 30.1823C141.247 29.7866 139.498 29.6665 139.175 29.9785ZM73.0937 33.219C73.5648 36.6937 75.209 38.6296 77.6927 38.632L78.8331 38.6334L77.2942 35.8117C76.2792 33.9486 75.4045 32.7571 74.7177 32.3038C73.0912 31.2268 72.8405 31.3673 73.0937 33.219ZM106.899 31.8133C106.904 31.9574 107.099 32.9301 107.33 33.9755C107.981 36.9271 109.097 38.1698 111.412 38.5347C112.48 38.7026 112.979 38.3192 112.26 37.8866C112.099 37.7918 111.6 36.7766 111.149 35.6305C110.698 34.4848 109.944 33.1914 109.473 32.7566C108.61 31.961 106.879 31.3258 106.899 31.8133ZM88.4172 32.2946C88.0287 32.4768 87.7104 32.7134 87.7104 32.8209C87.7104 32.9281 88.6302 33.5381 89.753 34.1762C92.3947 35.6751 93.8207 35.8685 95.7055 34.9829C97.0463 34.3531 97.5802 33.7528 96.8007 33.7528C96.6153 33.7528 95.495 33.3408 94.312 32.8376C92.0438 31.8712 89.7706 31.6621 88.4172 32.2946ZM122.212 32.5681C121.738 32.7442 121.347 33.0029 121.347 33.1431C121.347 33.2826 122.215 33.9578 123.27 34.6425C125.438 36.0466 127.042 36.2635 128.611 35.3646C129.789 34.6884 129.761 34.4739 128.453 34.2361C127.866 34.1291 126.851 33.6895 126.197 33.2588C124.821 32.3526 123.44 32.1134 122.212 32.5681ZM77.6501 33.4609C77.6501 34.3463 79.7404 37.5261 80.7679 38.2038C81.8456 38.9142 83.8532 39.1849 84.966 38.77C85.6577 38.5131 80.8983 33.835 79.6927 33.5859C79.1739 33.4789 78.5023 33.326 78.2015 33.2464C77.8982 33.1669 77.6501 33.2632 77.6501 33.4609ZM111.603 33.302C111.603 33.3893 112.004 34.3189 112.493 35.3672C113.683 37.9138 114.954 38.9384 116.919 38.9384C117.741 38.9384 118.5 38.8554 118.606 38.754C118.946 38.4231 115.332 34.5331 114.032 33.829C112.861 33.196 111.603 32.923 111.603 33.302ZM82.8682 33.704C82.778 33.8448 83.4572 34.725 84.3745 35.6598C86.6076 37.9323 88.2542 38.3353 90.9335 37.2631C91.7505 36.9356 91.6202 36.7344 89.9861 35.7998C89.1666 35.3318 87.9309 34.6136 87.2392 34.2034C85.9785 33.4553 83.2266 33.1411 82.8682 33.704ZM116.708 33.7016C116.423 33.8773 116.803 34.4736 118.064 35.8255C120.137 38.0482 121.473 38.5721 123.408 37.9221C124.621 37.5137 125.255 36.8031 124.403 36.8031C124.152 36.8031 123.255 36.2729 122.413 35.6247C119.811 33.6281 117.884 32.9776 116.708 33.7016Z" fill="#E1B900"/>
</svg>
