<svg width="10" height="10" viewBox="0 0 10 10" fill="none" xmlns="http://www.w3.org/2000/svg">
<path fill-rule="evenodd" clip-rule="evenodd" d="M4.71493 8.22217C4.64114 8.18798 4.51863 8.09441 4.4427 8.0142C3.98135 7.52689 0.0743622 2.93688 0.0418303 2.84395C-0.123647 2.37133 0.222634 1.87251 0.714437 1.87501C0.907482 1.87598 1.09761 1.96965 1.26426 2.14586C1.34012 2.22607 2.20494 3.2271 3.18609 4.37042C4.16725 5.51374 4.9835 6.44916 5 6.44916C5.0165 6.44916 5.83275 5.51374 6.81391 4.37042C7.79506 3.2271 8.65988 2.22607 8.73574 2.14586C8.90239 1.96965 9.09252 1.87598 9.28556 1.87501C9.77737 1.87251 10.1236 2.37133 9.95817 2.84395C9.92457 2.93989 5.63887 7.95974 5.44867 8.1259C5.26391 8.28732 4.94567 8.32907 4.71493 8.22217Z" fill="#4A5568"/>
</svg>
