<svg width="65" height="65" viewBox="0 0 65 65" fill="none" xmlns="http://www.w3.org/2000/svg">
<path fill-rule="evenodd" clip-rule="evenodd" d="M16.288 13.9905C7.56792 20.0352 0.333498 25.0975 0.211242 25.2399C-0.0939533 25.5956 -0.0670393 26.0085 0.282844 26.3373C0.560998 26.5986 0.693156 26.6133 2.75843 26.6133H4.94025V43.9424V61.2715H3.18258C1.59605 61.2715 1.40295 61.2957 1.19894 61.5212C0.909865 61.8406 0.909865 62.3527 1.19894 62.6722C1.4225 62.9192 1.76058 62.9219 32.4891 62.9219C63.2176 62.9219 63.5556 62.9192 63.7792 62.6722C64.0683 62.3527 64.0683 61.8406 63.7792 61.5212C63.5752 61.2957 63.3821 61.2715 61.7956 61.2715H60.0379V43.9424V26.6133H62.2375C64.3725 26.6133 64.4451 26.6046 64.7131 26.3195C65.0467 25.9643 65.0655 25.5879 64.7669 25.2399C64.6447 25.0975 57.4102 20.0352 48.6902 13.9905C37.1283 5.97565 32.7418 3 32.4891 3C32.2363 3 27.8498 5.97565 16.288 13.9905ZM46.9686 14.8947L61.2102 24.7725L59.7538 24.808L58.2975 24.8437L45.679 16.0815C38.7387 11.2622 32.9319 7.28391 32.7747 7.24062C32.6176 7.19732 32.3606 7.19732 32.2034 7.24062C32.0463 7.28391 26.2394 11.2622 19.2992 16.0815L6.68065 24.8437L5.22411 24.808L3.76758 24.7725L18.0944 14.8361C25.9741 9.37114 32.49 4.92626 32.5741 4.95851C32.6582 4.99075 39.1357 9.46204 46.9686 14.8947ZM34.4453 10.3924L36.1406 11.5693L34.3148 11.6045C33.3107 11.6238 31.6667 11.6238 30.6615 11.6045L28.8338 11.5693L30.6264 10.3289C31.6123 9.64663 32.4935 9.11698 32.5845 9.15189C32.6756 9.18681 33.513 9.74502 34.4453 10.3924ZM40.8102 14.8066L42.8213 16.2031H32.4891H22.1569L24.1679 14.8066L26.1789 13.4102H32.4891H38.7993L40.8102 14.8066ZM47.1776 19.2183L49.1489 20.583L40.819 20.6156C36.2375 20.6337 28.7408 20.6337 24.1596 20.6156L15.8302 20.583L17.7802 19.2238L19.7303 17.8647L32.4683 17.8591L45.2062 17.8535L47.1776 19.2183ZM53.4917 23.5981L55.1827 24.7725L43.8359 24.8048C37.5951 24.8227 27.3831 24.8227 21.1425 24.8048L9.79608 24.7725L11.4623 23.6047L13.1287 22.4372L32.4647 22.4304L51.8005 22.4238L53.4917 23.5981ZM9.63751 43.9424V61.2715H8.17755H6.71759V43.9424V26.6133H8.17755H9.63751V43.9424ZM13.4461 26.6479C13.4461 26.6671 12.9891 27.1371 12.4305 27.6924L11.4149 28.702V27.6577V26.6133H12.4305C12.9891 26.6133 13.4461 26.6289 13.4461 26.6479ZM15.0956 30.2327L11.4783 33.8521L11.442 32.492L11.4057 31.1318L13.6624 28.8725L15.919 26.6133H17.316H18.713L15.0956 30.2327ZM48.7067 31.4686L53.5633 36.3239V48.7986V61.2731L44.137 61.2405L34.7108 61.208V54.9873V48.7666L39.7805 48.7333C44.2755 48.7039 44.8764 48.6765 45.0808 48.4915C45.2821 48.3093 45.3113 48.0629 45.3113 46.5449C45.3113 44.9392 45.291 44.7885 45.0441 44.5651C44.7852 44.3307 44.3945 44.3232 32.4891 44.3232C20.5837 44.3232 20.1929 44.3307 19.934 44.5651C19.6871 44.7885 19.6668 44.9392 19.6668 46.5449C19.6668 48.0629 19.696 48.3093 19.8974 48.4915C20.1017 48.6765 20.7026 48.7039 25.1976 48.7333L30.2674 48.7666V54.9873V61.208L20.8411 61.2405L11.4149 61.2731V48.7997V36.3265L16.2702 31.4699L21.1255 26.6133H32.4878H43.8501L48.7067 31.4686ZM51.3157 28.8725L53.5724 31.1318L53.5361 32.492L53.4998 33.8521L49.8825 30.2327L46.2651 26.6133H47.6621H49.0591L51.3157 28.8725ZM53.5633 27.6289C53.5633 28.1875 53.5477 28.6445 53.5286 28.6445C53.5095 28.6445 53.0395 28.1875 52.4842 27.6289L51.4745 26.6133H52.5189H53.5633V27.6289ZM58.2606 43.9424V61.2715H56.8006H55.3406V43.9424V26.6133H56.8006H58.2606V43.9424ZM43.6609 46.5449V47.0527H32.4891H21.3172V46.5449V46.0371H32.4891H43.6609V46.5449ZM32.9969 54.9873V61.2715H32.4891H31.9813V54.9873V48.7031H32.4891H32.9969V54.9873Z" fill="#4A5568"/>
</svg>
