<svg width="65" height="65" viewBox="0 0 65 65" fill="none" xmlns="http://www.w3.org/2000/svg">
<path fill-rule="evenodd" clip-rule="evenodd" d="M25.3633 0.154604C25.1189 0.232045 24.6603 0.554633 24.3441 0.871508C23.1535 2.06512 23.1636 3.63249 24.3699 4.84375C24.7001 5.17547 25.0587 5.44677 25.1668 5.44677C25.3288 5.44677 25.3633 5.63657 25.3633 6.52587V7.60498H24.7228C24.212 7.60498 24.0191 7.66807 23.7707 7.91665C23.5993 8.08803 23.459 8.37622 23.459 8.55712C23.459 8.73803 23.5993 9.02622 23.7707 9.1976C24.0191 9.44618 24.212 9.50927 24.7228 9.50927H25.3633V10.5884C25.3633 11.4777 25.3288 11.6675 25.1668 11.6675C25.0587 11.6675 24.7001 11.9388 24.3699 12.2705C23.1524 13.4932 23.1524 15.0468 24.3699 16.2695C24.7001 16.6013 25.0587 16.8726 25.1668 16.8726C25.3392 16.8726 25.3633 17.2788 25.3633 20.1733V23.4741H22.4424H19.5214L19.3178 22.9653C19.0552 22.3091 18.0358 21.3953 17.2784 21.1372C16.4098 20.8412 9.566 20.8395 8.69866 21.135C7.93694 21.3945 7.00561 22.2212 6.65852 22.9459C6.39979 23.4862 6.34063 23.5292 5.6396 23.6875C3.64465 24.138 1.6911 25.6599 0.757487 27.4912C0.609967 27.7804 0.365836 28.4933 0.214889 29.0755C-0.45682 31.667 0.477936 34.5278 2.5752 36.2989C3.48177 37.0646 4.43024 37.5514 5.54438 37.823L6.36107 38.0222L6.57156 38.791C6.82331 39.7108 7.35956 40.774 7.86102 41.3481L8.22614 41.7659L8.19364 51.9355L8.16114 62.1051L6.44968 62.6894C5.03403 63.173 4.70573 63.3327 4.54958 63.6144C4.30532 64.0551 4.47924 64.5893 4.95341 64.8555C5.27905 65.0382 5.41425 65.0095 7.52168 64.3109C9.10529 63.7859 9.80125 63.4947 9.93759 63.3002C10.1042 63.0624 10.1289 61.74 10.1289 53.0962V43.1656L10.8589 43.4325C11.8981 43.8128 14.0726 43.8128 15.1118 43.4325L15.8418 43.1656V53.0962C15.8418 61.74 15.8666 63.0624 16.0331 63.3002C16.1695 63.4947 16.8654 63.7859 18.449 64.3109C20.5565 65.0095 20.6917 65.0382 21.0173 64.8555C21.4915 64.5893 21.6654 64.0551 21.4211 63.6144C21.265 63.3327 20.9367 63.173 19.521 62.6894L17.8096 62.1051L17.7771 51.9408L17.7446 41.7767L18.0474 41.4169C18.4828 40.8992 19.0598 39.8876 19.3386 39.1528C19.5615 38.565 19.5825 38.0315 19.6212 31.9482L19.6631 25.3784H24.1171C27.2569 25.3784 28.7253 25.3326 29.0937 25.2233C29.4076 25.13 29.8456 24.8386 30.1911 24.4933C31.3707 23.3137 31.3707 21.7303 30.1911 20.5506C29.5496 19.9093 28.9242 19.6655 27.9194 19.6655H27.2676V18.269C27.2676 17.0932 27.2987 16.8726 27.4641 16.8726C27.5721 16.8726 27.9308 16.6013 28.261 16.2695C29.4785 15.0468 29.4785 13.4932 28.261 12.2705C27.9308 11.9389 27.5721 11.6675 27.4641 11.6675C27.3021 11.6675 27.2676 11.4777 27.2676 10.5884V9.50927H27.9081C28.4189 9.50927 28.6118 9.44618 28.8602 9.1976C29.0316 9.02622 29.1719 8.73803 29.1719 8.55712C29.1719 8.37622 29.0316 8.08803 28.8602 7.91665C28.6118 7.66807 28.4189 7.60498 27.9081 7.60498H27.2676V6.52587C27.2676 5.63657 27.3021 5.44677 27.4641 5.44677C27.5721 5.44677 27.9308 5.17535 28.261 4.84375C29.4673 3.63236 29.4775 2.06373 28.2868 0.872905C27.4639 0.0499947 26.4664 -0.195025 25.3633 0.154604ZM26.9559 2.20375C27.1273 2.37514 27.2676 2.66333 27.2676 2.84423C27.2676 3.2675 26.7387 3.79638 26.3154 3.79638C25.8922 3.79638 25.3633 3.2675 25.3633 2.84423C25.3633 2.42097 25.8922 1.89208 26.3154 1.89208C26.4963 1.89208 26.7845 2.03237 26.9559 2.20375ZM11.9063 5.78002C9.45136 6.25585 7.45325 8.00627 6.62678 10.4052C6.29734 11.361 6.29734 13.3704 6.62678 14.3263C7.35004 16.4256 8.92552 18.001 11.0248 18.7243C11.9807 19.0537 13.9901 19.0537 14.9459 18.7243C16.5333 18.1774 17.8869 17.0973 18.6795 15.745C19.3813 14.5473 19.5821 13.7957 19.5821 12.3657C19.5821 10.9357 19.3813 10.1842 18.6795 8.98648C17.8987 7.65436 16.5459 6.56383 15.0166 6.0338C14.3858 5.81519 12.5132 5.66234 11.9063 5.78002ZM15.0349 8.11228C15.4787 8.33077 15.8418 8.55611 15.8418 8.61298C15.8418 8.7346 14.8526 9.17107 14.1279 9.36912C13.4787 9.54647 12.492 9.54647 11.8428 9.36912C11.1496 9.1797 10.1289 8.73664 10.1289 8.62517C10.1289 8.48197 11.3107 7.87539 11.8569 7.73828C12.7679 7.50951 14.1381 7.67086 15.0349 8.11228ZM9.46508 10.4528C10.4115 11.0703 11.4653 11.334 12.9854 11.334C14.5054 11.334 15.5592 11.0703 16.5056 10.4528C16.7659 10.2831 17.0311 10.144 17.0948 10.144C17.2835 10.144 17.6193 11.1239 17.702 11.9157C17.7875 12.733 17.5987 13.7296 17.2079 14.5239C16.8808 15.189 15.9095 16.1903 15.2705 16.5213C13.2994 17.5422 11.1004 17.2023 9.60244 15.645C8.60446 14.6075 8.12686 13.2722 8.26867 11.9157C8.35144 11.1239 8.68723 10.144 8.87589 10.144C8.93962 10.144 9.20482 10.2831 9.46508 10.4528ZM26.9559 13.6295C27.1273 13.8009 27.2676 14.0891 27.2676 14.27C27.2676 14.6933 26.7387 15.2222 26.3154 15.2222C25.8922 15.2222 25.3633 14.6933 25.3633 14.27C25.3633 13.8468 25.8922 13.3179 26.3154 13.3179C26.4963 13.3179 26.7845 13.4582 26.9559 13.6295ZM28.8602 21.8815C29.0316 22.0529 29.1719 22.3411 29.1719 22.522C29.1719 22.7029 29.0316 22.9911 28.8602 23.1624C28.6118 23.411 28.4189 23.4741 27.9081 23.4741H27.2676V22.522V21.5698H27.9081C28.4189 21.5698 28.6118 21.6329 28.8602 21.8815ZM16.8694 23.036C17.0785 23.144 17.3611 23.4155 17.4973 23.639C17.7339 24.0271 17.7452 24.319 17.7456 30.1074L17.7461 36.1694H12.9854H8.22462V30.1328C8.22462 23.4704 8.21179 23.5836 9.02429 23.0882C9.4016 22.858 9.68343 22.8402 12.96 22.8399C15.8986 22.8395 16.5527 22.8722 16.8694 23.036ZM6.32032 30.784V36.0627L5.90772 35.9734C5.20732 35.822 4.27701 35.2837 3.58549 34.6297C1.43262 32.5937 1.34033 29.3034 3.37501 27.1282C4.13203 26.3189 5.48306 25.5348 6.16163 25.511C6.28617 25.5065 6.32032 26.6427 6.32032 30.784ZM41.425 28.1753L40.1309 29.4487L39.2734 29.064C38.2475 28.6037 37.8131 28.5799 37.4598 28.9648C37.0996 29.3573 34.0301 36.6308 33.7306 37.8014C33.565 38.4491 33.4883 39.1866 33.4883 40.131C33.4883 41.4291 33.5072 41.5319 33.8 41.8246C34.1736 42.1983 34.6219 42.2236 35.0294 41.8937C35.3073 41.6688 35.3348 41.5327 35.4083 40.0212C35.4729 38.6924 35.5515 38.2178 35.8331 37.4534C36.1249 36.6615 38.533 30.9547 38.6058 30.8831C38.619 30.8699 38.9441 30.9948 39.3281 31.1606C40.4887 31.6616 40.6073 31.6237 41.9159 30.3361L43.0706 29.2L44.2292 30.3361C45.5419 31.6234 45.6597 31.6609 46.8184 31.1604C47.3184 30.9443 47.5398 30.9008 47.5982 31.0068C47.7648 31.3085 50.224 37.1443 50.4426 37.7563C50.5875 38.1621 50.6889 38.895 50.7238 39.7876C50.7841 41.333 50.5965 42.3386 50.0441 43.4285L49.734 44.0405H48.3291C47.5563 44.0405 46.946 43.9976 46.9726 43.9453C47.8076 42.3027 47.9851 41.4003 47.706 40.2152C47.4323 39.0525 47.0992 38.5762 45.2535 36.709C43.7203 35.1577 43.4095 34.8999 43.0732 34.8999C42.737 34.8999 42.4262 35.1577 40.893 36.709C39.0473 38.5762 38.7142 39.0525 38.4405 40.2152C38.1614 41.4003 38.3389 42.3027 39.1739 43.9453C39.2005 43.9977 36.5871 44.0405 33.3662 44.0405H27.5099L27.1984 44.3522C27.027 44.5236 26.8867 44.8118 26.8867 44.9927C26.8867 45.1736 27.027 45.4618 27.1984 45.6332L27.5099 45.9448H31.4233H35.3367L36.3075 46.897L37.2783 47.8491H29.5378H21.797L21.4855 48.1608C21.1783 48.468 21.1738 48.5038 21.1738 50.7056C21.1738 52.9073 21.1783 52.9431 21.4855 53.2503C21.7832 53.5482 21.868 53.562 23.3898 53.562H24.9824V58.9632V64.3646L25.2941 64.6761L25.6056 64.9878H43.0732H60.5409L60.8524 64.6761L61.1641 64.3646V58.9632V53.562H62.7567C64.2785 53.562 64.3633 53.5482 64.661 53.2503C64.9682 52.9431 64.9727 52.9073 64.9727 50.7056C64.9727 48.5038 64.9682 48.468 64.661 48.1608L64.3495 47.8491H56.6087H48.8682L49.839 46.897L50.8098 45.9448H54.7232H58.6366L58.9481 45.6332C59.1195 45.4618 59.2598 45.1736 59.2598 44.9927C59.2598 44.8118 59.1195 44.5236 58.9481 44.3522L58.6366 44.0405H55.2665C53.4129 44.0405 51.8965 44.0189 51.8965 43.9925C51.8965 43.9661 51.9831 43.7374 52.089 43.4841C52.7141 41.9878 52.8582 39.5193 52.4198 37.8128C52.1161 36.6307 49.0478 29.3583 48.6867 28.9648C48.3334 28.5799 47.899 28.6037 46.8731 29.064L46.0156 29.4487L44.7215 28.1753C43.7056 27.1756 43.3513 26.9019 43.0732 26.9019C42.7952 26.9019 42.4409 27.1756 41.425 28.1753ZM45.6256 39.9606C46.159 41.0844 45.9461 42.2603 45.0475 43.1549C43.8624 44.3348 42.2816 44.3351 41.1019 43.1554C40.2774 42.3307 40.0434 41.4201 40.3711 40.3101C40.4845 39.9256 40.8597 39.4428 41.7919 38.4814L43.0587 37.1753L44.2392 38.3509C44.8884 38.9974 45.5124 39.7218 45.6256 39.9606ZM17.6179 38.2324C17.6151 38.5917 16.967 39.7486 16.4612 40.2973C14.537 42.3849 11.4337 42.3849 9.50951 40.2973C9.00373 39.7486 8.35563 38.5917 8.35284 38.2324C8.35182 38.1084 9.36224 38.0737 12.9854 38.0737C16.6085 38.0737 17.6189 38.1084 17.6179 38.2324ZM47.834 46.1989C47.2942 46.6212 45.9035 47.3018 45.1045 47.5345C44.6044 47.6801 43.9066 47.7564 43.0732 47.7564C42.2399 47.7564 41.5421 47.6801 41.042 47.5345C40.243 47.3018 38.8523 46.6212 38.3125 46.1989C37.996 45.9512 38.0095 45.9504 43.0732 45.9504C48.137 45.9504 48.1505 45.9512 47.834 46.1989ZM63.0684 50.7056V51.6577H43.0732H23.0781V50.7056V49.7534H43.0732H63.0684V50.7056ZM36.4082 54.5142V55.4663H31.6475H26.8867V54.5142V53.562H31.6475H36.4082V54.5142ZM47.834 54.5142V55.4663H43.0732H38.3125V54.5142V53.562H43.0732H47.834V54.5142ZM59.2598 54.5142V55.4663H54.499H49.7383V54.5142V53.562H54.499H59.2598V54.5142ZM30.6953 58.3228V59.2749H28.791H26.8867V58.3228V57.3706H28.791H30.6953V58.3228ZM42.1211 58.3228V59.2749H37.3604H32.5996V58.3228V57.3706H37.3604H42.1211V58.3228ZM53.5469 58.3228V59.2749H48.7861H44.0254V58.3228V57.3706H48.7861H53.5469V58.3228ZM59.2598 58.3228V59.2749H57.3555H55.4512V58.3228V57.3706H57.3555H59.2598V58.3228ZM36.4082 62.1314V63.0835H31.6475H26.8867V62.1314V61.1792H31.6475H36.4082V62.1314ZM47.834 62.1314V63.0835H43.0732H38.3125V62.1314V61.1792H43.0732H47.834V62.1314ZM59.2598 62.1314V63.0835H54.499H49.7383V62.1314V61.1792H54.499H59.2598V62.1314Z" fill="#4A5568"/>
</svg>
