<svg width="65" height="65" viewBox="0 0 65 65" fill="none" xmlns="http://www.w3.org/2000/svg">
<path fill-rule="evenodd" clip-rule="evenodd" d="M51.9244 6.18499C46.4667 7.30497 42.7647 12.0715 43.0746 17.58C43.2163 20.1002 44.028 22.1191 45.7037 24.1195C47.3787 26.1192 49.5717 27.2921 52.7813 27.9049L53.067 27.9595V40.5889V53.2183H51.7934C50.3693 53.2183 49.9354 53.3469 49.2099 53.9838C48.3163 54.7685 48.1887 55.1811 48.138 57.4493C48.1069 58.844 48.1409 59.574 48.2494 59.8357C48.5537 60.5705 48.6404 60.5816 54.0743 60.5816H59.0297L59.4443 60.2115L59.859 59.8413L59.9001 57.991C59.9482 55.8192 59.7894 55.077 59.1054 54.2779C58.4051 53.4597 57.7527 53.2183 56.2416 53.2183H54.97L55.0024 40.5634L55.0347 27.9084L56.0207 27.7419C59.6247 27.1331 62.8859 24.4349 64.2432 20.9386C66.4556 15.2397 63.515 8.74919 57.7713 6.65446C55.9879 6.00395 53.7011 5.82038 51.9244 6.18499ZM56.4947 8.21471C60.5957 9.47447 63.3155 13.3115 63.06 17.4766C62.6627 23.9479 55.8815 27.9304 50.0836 25.0974C49.4552 24.7903 48.6152 24.2768 48.217 23.9561C46.9499 22.9359 45.7827 21.142 45.2383 19.3782C45.0595 18.7989 45.0067 18.2253 45.011 16.9097C45.016 15.376 45.0534 15.0891 45.3675 14.1802C46.4512 11.0437 48.9148 8.81469 52.1148 8.0757C53.1122 7.84541 55.5437 7.92259 56.4947 8.21471ZM0.312241 11.7624C-0.0849955 12.1595 -0.0849955 12.6463 0.312241 13.0434L0.623784 13.355H16.9869C32.6779 13.355 33.3585 13.3646 33.56 13.5872C34.0824 14.1645 33.9514 14.3469 30.7287 17.5268C27.7639 20.4521 27.6818 20.5469 27.4759 21.2801C27.2026 22.2529 27.2959 23.1808 27.7509 24.0169C28.1658 24.7792 31.2002 27.7928 32.6952 28.9275C35.9927 31.43 39.4807 32.9745 43.4185 33.6754C44.2249 33.8189 44.2611 33.8426 45.0054 34.714C45.7455 35.5805 46.3364 36.4256 46.3378 36.6192C46.3382 36.6716 45.0635 36.7144 43.5051 36.7144C41.3615 36.7144 40.5161 36.7606 40.0332 36.9041C38.4947 37.3609 37.4517 38.7754 37.4517 40.4052C37.4517 42.0162 38.4966 43.4318 40.0195 43.884C40.4714 44.0183 41.2297 44.0777 42.4895 44.0777C43.4892 44.0777 44.3071 44.092 44.3069 44.1094C44.3068 44.1268 43.6566 46.1591 42.8618 48.6255C41.3018 53.4674 41.1773 53.7231 40.2519 53.9802C39.8465 54.0928 35.8013 54.1688 35.8013 54.0638C35.8013 54.0401 35.92 53.5687 36.0652 53.0165C36.2588 52.2795 36.329 51.6238 36.329 50.5523C36.329 48.7367 36.0469 47.5784 35.2075 45.9472C34.0983 43.7918 31.8572 41.8654 29.5806 41.1107C27.096 40.2869 24.5548 40.4124 22.2607 41.4724C18.5922 43.1673 16.3718 46.6295 16.3797 50.6422C16.3816 51.6023 16.4664 52.1773 16.8485 53.8213L16.9149 54.107H8.72085H0.526791L0.263745 54.4415C-0.0853764 54.8852 -0.0686186 55.3189 0.312241 55.6996L0.623784 56.0113L9.29417 56.0189L17.9644 56.0266L18.5357 56.7767C19.4999 58.0427 21.3013 59.3795 22.7973 59.9392C24.7219 60.6593 27.3007 60.7638 29.1363 60.1963C31.1078 59.5867 33.0589 58.2746 34.2008 56.7906L34.7874 56.0284L37.6747 55.9882C40.476 55.9489 40.5829 55.938 41.2603 55.6189C42.0396 55.2517 42.7991 54.5351 43.1154 53.8688C43.2304 53.6263 44.4354 49.9674 45.7933 45.7377L48.2623 38.0474L48.2195 37.0318C48.1883 36.2914 48.0968 35.8532 47.8818 35.4148C47.4516 34.5374 38.6706 24.3197 38.2579 24.2161C37.6081 24.053 36.8938 24.8623 37.1639 25.4553C37.2374 25.6168 38.3659 26.9922 39.6715 28.5117C40.977 30.0313 42.0135 31.3062 41.9748 31.3449C41.8602 31.4596 39.7766 30.7648 38.458 30.1721C35.7497 28.9549 33.6468 27.4561 31.0815 24.9144C28.6662 22.5214 28.635 22.271 30.5139 20.3644L31.6818 19.1793L32.9308 20.6479C34.7941 22.8388 35.0546 23.0105 35.7207 22.4864C35.9647 22.2946 36.0553 22.1067 36.0553 21.7923C36.0553 21.4261 35.8336 21.102 34.5802 19.635L33.105 17.9086L34.2445 16.7427C35.5245 15.4331 35.7325 15.0062 35.6496 13.8597C35.5796 12.8914 35.12 12.2116 34.2387 11.7723L33.5933 11.4507H17.1085H0.623784L0.312241 11.7624ZM51.0366 11.8112L50.6549 12.1929V17.0327V21.8725L50.9665 22.184C51.3636 22.5812 51.8504 22.5812 52.2475 22.184C52.5485 21.8831 52.5592 21.8122 52.5592 20.107V18.3416L54.0149 18.2774C55.2579 18.2226 55.5725 18.1633 56.1673 17.8723C57.3721 17.2828 58.0503 16.1848 58.0495 14.8243C58.049 13.8928 57.8193 13.3034 57.1822 12.5982C56.3061 11.6284 55.964 11.5226 53.5439 11.473L51.4184 11.4294L51.0366 11.8112ZM55.3399 13.5156C56.0747 13.8933 56.3907 15.0117 55.943 15.6507C55.5475 16.2154 55.2153 16.3322 53.8604 16.3825L52.5592 16.4307V14.8928V13.355L53.7969 13.3569C54.5263 13.358 55.16 13.4232 55.3399 13.5156ZM0.263745 19.9103C-0.164214 20.4543 -0.0655717 20.9928 0.517524 21.2943C0.814213 21.4478 1.71736 21.48 5.71892 21.48C10.0518 21.48 10.6915 21.5066 11.8 21.7324C14.6219 22.3075 16.9913 23.5819 18.9801 25.5941C20.1385 26.7661 22.2227 29.6377 22.3988 30.3043C22.5519 30.8832 22.2538 31.5404 21.6795 31.8906C21.275 32.1372 21.023 32.1432 10.9446 32.1436L0.623784 32.1441L0.312241 32.4558C-0.0849955 32.8529 -0.0849955 33.3396 0.312241 33.7367L0.623784 34.0484H10.9532C22.8528 34.0484 22.2124 34.1044 23.322 32.9664C24.426 31.8343 24.6643 30.2858 23.9328 28.9981C23.179 27.6712 21.4118 25.3704 20.2501 24.2034C18.4271 22.3724 16.4924 21.1773 13.9991 20.3419C11.9802 19.6656 10.9948 19.5768 5.50056 19.5763L0.526791 19.5757L0.263745 19.9103ZM9.85658 37.6124C9.43738 37.9421 9.39789 38.6215 9.77596 38.9996C10.008 39.2316 10.1991 39.2535 12.0034 39.2535C13.9295 39.2535 13.9845 39.246 14.2885 38.9418C14.4599 38.7704 14.6002 38.4822 14.6002 38.3013C14.6002 38.1204 14.4599 37.8322 14.2885 37.6608C13.9856 37.3578 13.9245 37.3492 12.084 37.3492C10.3612 37.3492 10.161 37.3728 9.85658 37.6124ZM46.0226 38.7774C45.9929 38.8647 45.7345 39.6645 45.4485 40.5547L44.9285 42.1734H42.826C40.9273 42.1734 40.6777 42.1476 40.2505 41.9076C39.6403 41.5645 39.356 41.0711 39.356 40.3544C39.356 39.694 39.7788 39.0804 40.4288 38.7973C40.9706 38.5613 46.1023 38.543 46.0226 38.7774ZM28.3111 42.7029C28.6253 42.7767 29.3648 43.0661 29.9544 43.3459C32.0033 44.3186 33.6538 46.3656 34.2295 48.648C34.4998 49.7196 34.4955 51.5246 34.22 52.5734C33.008 57.1871 28.07 59.813 23.6526 58.193C22.3103 57.7008 21.4004 57.0889 20.3938 56.0016C18.8722 54.3581 18.2064 52.4855 18.3212 50.1714C18.3925 48.7313 18.6214 47.9043 19.3021 46.6272C20.4089 44.5506 22.7424 42.9323 25.1857 42.5469C25.9314 42.4293 27.4746 42.5063 28.3111 42.7029ZM25.0318 46.29C24.2576 46.5421 23.9947 46.8181 23.9947 47.3785C23.9947 48.0782 24.3311 48.3281 25.1024 48.2013C25.4358 48.1464 26.0609 48.096 26.4914 48.0892C27.1678 48.0784 27.3474 48.1285 27.8131 48.4576C29.1985 49.4366 29.3063 51.4215 28.0331 52.5112C26.5019 53.8218 24.2482 52.9968 23.8097 50.965C23.5622 49.8185 21.9635 49.9546 21.9635 51.1222C21.9635 52.1572 22.7767 53.5269 23.8157 54.2418C24.6222 54.7967 25.3348 55.0156 26.3433 55.018C28.1167 55.0222 29.68 54.0292 30.4173 52.4301C30.7319 51.7478 30.7856 51.4741 30.7861 50.5523C30.7866 49.6508 30.7316 49.3558 30.4522 48.7597C29.702 47.16 28.3064 46.2255 26.5573 46.152C25.9527 46.1265 25.3725 46.179 25.0318 46.29ZM57.3904 55.2534C57.8584 55.5039 58.0181 56.0504 58.0181 57.4014V58.6773H54.0082H49.9983L50.0409 57.206C50.0824 55.7748 50.0932 55.7265 50.4398 55.4287C50.7957 55.1229 50.7986 55.1226 53.9711 55.1226C55.906 55.1226 57.2416 55.1736 57.3904 55.2534Z" fill="#4A5568"/>
</svg>
