<svg width="65" height="65" viewBox="0 0 65 65" fill="none" xmlns="http://www.w3.org/2000/svg">
<path fill-rule="evenodd" clip-rule="evenodd" d="M48.2515 0.185944C47.8094 0.281921 46.9525 0.599431 46.3472 0.891423C45.451 1.32383 45.0437 1.62534 44.1532 2.51591C43.2609 3.40827 42.9651 3.80804 42.5461 4.68859C41.9774 5.88297 41.6291 7.24086 41.6276 8.26829C41.6267 8.92248 41.6119 8.9499 41.1092 9.23707C39.3119 10.2635 38.3682 12.0234 38.4792 14.1408C38.5808 16.0762 39.6509 17.6631 41.4459 18.5403L42.3268 18.9708L50.3249 19.0076C59.176 19.0485 59.3497 19.0359 60.9519 18.2432C62.0839 17.6833 63.6526 16.0829 64.2092 14.9203C65.5889 12.0385 65.0396 8.70831 62.8165 6.47711C61.6105 5.26661 59.9856 4.49004 58.3587 4.34671L57.5057 4.27155L56.8582 3.40091C56.0357 2.29464 55.0407 1.48087 53.7526 0.8607C52.0281 0.0302998 50.0731 -0.209388 48.2515 0.185944ZM52.2292 2.26886C53.6625 2.77465 55.0134 3.88383 55.7348 5.14689C56.2965 6.13014 56.3843 6.17762 57.7516 6.23463C58.7778 6.27741 59.0856 6.34482 59.8157 6.68658C61.509 7.47953 62.6785 9.00462 62.9906 10.827C63.4519 13.5201 61.6731 16.235 58.9767 16.9529C58.4572 17.0913 56.7456 17.1271 50.6422 17.1272L42.9616 17.1275L42.3268 16.8306C41.1156 16.264 40.473 15.3229 40.3827 13.9824C40.2841 12.5217 41.123 11.2065 42.4632 10.7206C42.8071 10.596 43.2128 10.3606 43.3647 10.1977C43.6117 9.9329 43.6337 9.80391 43.5727 8.97719C43.3776 6.32933 44.7987 3.80576 47.134 2.65328C47.702 2.37297 48.4237 2.0905 48.7379 2.02562C49.6265 1.84192 51.3622 1.96291 52.2292 2.26886ZM18.2354 2.28626C17.9725 2.34897 17.544 2.51109 17.2833 2.64655C17.0172 2.7848 13.2106 6.50199 8.60387 11.1222C0.839037 18.9098 0.386576 19.3884 0.177103 20.0357C-0.249332 21.3541 0.106898 22.7281 1.11008 23.6346C1.75259 24.215 1.97844 24.3331 2.77114 24.5031L3.41568 24.6413V43.2294V61.8175H2.01348C0.69393 61.8175 0.592748 61.8359 0.299613 62.1292C-0.097877 62.5265 -0.0974961 63.0131 0.300248 63.4109L0.61268 63.7233L32.3535 63.6908L64.0944 63.6583L64.5095 63.2436L64.9245 62.8288L64.9636 60.4486C65.0017 58.1318 64.9948 58.0566 64.7059 57.6279C64.2021 56.8804 64.1403 56.8703 60.0916 56.8682C55.7281 56.8659 55.4717 56.8196 54.3978 55.8381C53.2269 54.7679 52.2989 53.1989 51.022 50.1306C50.6605 49.2617 49.9415 47.5497 49.4243 46.3262C47.0694 40.755 44.8418 37.9363 41.6107 36.4396C39.9716 35.6803 39.188 35.5214 36.7091 35.4459L34.5192 35.3793V30.0022V24.6251L34.8683 24.5504C36.7708 24.1433 37.8358 22.918 37.8358 21.1363C37.8358 19.706 37.7085 19.5382 33.402 15.2892C30.295 12.2236 29.4673 11.4726 29.1601 11.4397C28.6531 11.3855 28.1715 11.8303 28.1715 12.353C28.1715 12.6868 28.6762 13.2431 32.0436 16.6222C35.904 20.4959 35.9157 20.5092 35.9157 21.0468C35.9157 21.9429 35.5603 22.4066 34.6872 22.65C34.0076 22.8396 33.5387 22.4232 26.373 15.2643C19.8348 8.7323 19.2749 8.20494 18.891 8.21586C18.5173 8.22652 17.7704 8.93327 11.3582 15.3447C6.02939 20.6729 4.13449 22.4921 3.81888 22.5825C2.58858 22.9354 1.47774 21.5821 2.07366 20.4562C2.17357 20.2676 5.84404 16.5353 10.2304 12.1623C16.2754 6.13573 18.2946 4.19563 18.5731 4.14663C19.3518 4.00977 19.6522 4.23791 22.7228 7.29875C25.6775 10.2441 25.7331 10.2913 26.2059 10.2514C26.8242 10.1995 27.2313 9.71022 27.102 9.17473C26.9693 8.62604 21.1702 2.87215 20.4257 2.55057C19.7106 2.24182 18.8551 2.13848 18.2354 2.28626ZM25.8206 17.3788L32.6149 24.1657V32.2641V40.3624H29.1354H25.6558L25.6051 37.3473C25.5564 34.4667 25.5394 34.2932 25.2223 33.4588C24.4152 31.3354 22.7593 29.8055 20.6647 29.2481C19.6606 28.9808 17.9551 29.012 16.9721 29.3156C15.383 29.8064 13.7114 31.2176 13.0024 32.6666C12.3872 33.9241 12.3056 34.4939 12.3039 37.5377L12.3024 40.3624H8.81119H5.31997V32.2061V24.0498L12.0798 17.2891C15.7978 13.5706 18.8817 10.5425 18.933 10.56C18.9843 10.5776 22.0838 13.646 25.8206 17.3788ZM18.3079 17.7781C16.9672 17.9492 15.7231 18.8821 15.1091 20.1769C14.6637 21.1161 14.6378 22.7234 15.0536 23.6269C15.4398 24.4665 16.2722 25.3177 17.1086 25.7285C17.731 26.0341 17.9745 26.0801 18.9674 26.079C19.9692 26.078 20.1927 26.0345 20.7808 25.7256C22.9605 24.5809 23.7767 22.0172 22.6313 19.9128C21.7887 18.3647 20.1297 17.5456 18.3079 17.7781ZM20.2485 20.0057C20.9939 20.4941 21.4194 21.6066 21.1886 22.4637C21.0214 23.0847 20.3852 23.836 19.8305 24.0679C19.2528 24.3092 18.4675 24.281 17.915 23.9989C17.3332 23.702 17.0661 23.4137 16.8141 22.8106C16.0855 21.0668 17.5858 19.2958 19.4518 19.6969C19.7182 19.7541 20.0768 19.8931 20.2485 20.0057ZM20.9601 31.3717C21.9181 31.8189 22.7666 32.6904 23.2618 33.7353L23.6647 34.5861L23.7068 37.4742L23.749 40.3624H18.9778H14.2067V37.5743C14.2067 35.0595 14.2326 34.7167 14.4713 34.0789C14.9588 32.7758 16.1326 31.5973 17.3652 31.1736C18.3039 30.8508 20.0505 30.9471 20.9601 31.3717ZM39.6608 37.6917C41.8915 38.3949 43.8155 39.9902 45.3538 42.4122C46.2376 43.804 47.4311 46.3458 48.715 49.5713C51.0814 55.5163 53.055 58.0776 55.6948 58.6298C56.0893 58.7123 57.7567 58.7706 59.7256 58.7706H63.0836V60.2941V61.8175L59.4972 61.8153C55.4662 61.8128 54.7233 61.7172 53.2485 61.0107C51.4646 60.1563 50.2296 58.9979 48.8301 56.8663C48 55.6021 47.1131 53.7391 45.6508 50.1885C43.67 45.3782 42.5993 43.4742 41.0721 42.0456C39.6776 40.7411 38.5266 40.3624 35.9558 40.3624H34.5192V38.8227V37.283L36.6457 37.3473C38.3583 37.3991 38.945 37.4661 39.6608 37.6917ZM7.60513 52.0421V61.8175H6.46255H5.31997V52.0421V42.2667H6.46255H7.60513V52.0421ZM14.1757 52.0738L14.2082 61.8175H11.8588H9.50943V52.0392V42.261L11.8263 42.2955L14.1432 42.3302L14.1757 52.0738ZM21.7956 44.0758L21.7604 45.8849L18.9357 45.919L16.111 45.9532V44.11V42.2667H18.9709H21.8309L21.7956 44.0758ZM28.2985 52.0421V61.8175H26.0133H23.7282V52.0421V42.2667H26.0133H28.2985V52.0421ZM32.6149 47.006C32.6752 51.4486 32.6907 51.691 32.9248 51.862C33.2688 52.1135 33.8015 52.0864 34.156 51.7995L34.4557 51.5569L34.492 46.8976L34.5283 42.2382L36.2694 42.2905C38.3046 42.3516 38.8242 42.5244 39.8444 43.4786C41.0776 44.6322 42.149 46.6051 43.9085 50.963C46.1669 56.5563 48.024 59.6295 50.1712 61.3268L50.792 61.8175H42.6615H34.531L34.4934 58.4418C34.4557 55.0682 34.4556 55.066 34.156 54.8237C33.7662 54.5083 33.2415 54.5152 32.8928 54.84C32.6205 55.0937 32.6149 55.1659 32.6149 58.4582V61.8175H31.4088H30.2028V52.1268C30.2028 46.7968 30.2429 42.3958 30.292 42.3468C30.341 42.2977 30.8695 42.274 31.4664 42.2939L32.5514 42.3302L32.6149 47.006ZM21.8239 49.63V51.4073H18.9674H16.111V49.63V47.8527H18.9674H21.8239V49.63ZM21.8239 55.089V56.8663H18.9674H16.111V55.089V53.3116H18.9674H21.8239V55.089ZM21.8239 60.2941V61.8175H18.9674H16.111V60.2941V58.7706H18.9674H21.8239V60.2941Z" fill="#4A5568"/>
</svg>
