<svg width="65" height="65" viewBox="0 0 65 65" fill="none" xmlns="http://www.w3.org/2000/svg">
<path fill-rule="evenodd" clip-rule="evenodd" d="M24.4114 0.298185C24.2396 0.469623 24.0989 0.751797 24.0989 0.925394C24.0989 1.11296 23.8844 1.48822 23.5695 1.85091C22.24 3.38331 22.2422 4.67684 23.5769 6.25458C23.864 6.5939 24.0989 7.00497 24.0989 7.1679C24.0989 7.3406 23.8425 7.75637 23.484 8.16503C22.5815 9.19379 22.3373 10.1957 22.8351 10.827C23.3547 11.4861 24.4808 11.0696 24.4808 10.2183C24.4808 10.0676 24.7682 9.60524 25.1193 9.19099C25.7844 8.40644 26.0066 7.87384 26.0078 7.06211C26.0088 6.40608 25.7562 5.8562 25.0656 5.01032C24.744 4.61652 24.4808 4.20697 24.4808 4.1003C24.4808 3.8119 24.7176 3.41696 25.2629 2.79585C26.0483 1.90119 26.2334 0.834088 25.696 0.298185C25.2978 -0.0991699 24.8097 -0.0991699 24.4114 0.298185ZM30.1404 0.298185C29.9686 0.469623 29.8279 0.745956 29.8279 0.912314C29.8279 1.08464 29.5566 1.55184 29.1969 1.99898C27.9909 3.49785 28 4.61525 29.2302 6.12174C29.5724 6.54094 29.8279 6.98414 29.8279 7.15863C29.8279 7.33197 29.6074 7.71751 29.3169 8.05252C28.6714 8.7963 28.4424 9.23861 28.3493 9.92132C28.2513 10.6397 28.627 11.1616 29.242 11.1616C29.7091 11.1616 30.2098 10.7285 30.2098 10.3245C30.2098 10.0403 30.4703 9.61832 30.9864 9.06629C31.7409 8.25951 31.9513 6.99265 31.4929 6.0185C31.3614 5.73912 31.0189 5.23293 30.7318 4.89349C30.4447 4.55416 30.2098 4.17065 30.2098 4.04125C30.2098 3.91184 30.473 3.48376 30.7946 3.08996C31.491 2.23721 31.7376 1.69458 31.7376 1.01568C31.7376 0.104905 30.7699 -0.329786 30.1404 0.298185ZM36.0953 0.0713791C35.8977 0.150749 35.5569 0.784561 35.5569 1.0727C35.5569 1.18814 35.2784 1.61508 34.9379 2.02145C33.7842 3.3988 33.78 4.67328 34.9251 6.02409C35.7332 6.97754 35.7344 7.21666 34.9356 8.20948C33.8959 9.50174 33.7911 10.7699 34.6978 11.088C35.2997 11.299 35.719 11.0567 35.9388 10.3706C36.0439 10.0428 36.3362 9.52892 36.5884 9.22833C37.2728 8.41279 37.4666 7.95727 37.4666 7.16371C37.4666 6.28048 37.2681 5.80592 36.571 5.02251C35.8501 4.21243 35.8581 3.92035 36.6272 2.97846C37.3361 2.11035 37.4666 1.81319 37.4666 1.06674C37.4666 0.6196 37.4019 0.462131 37.1311 0.249675C36.8091 -0.00303767 36.4393 -0.0666602 36.0953 0.0713791ZM18.7708 13.0279C18.5361 13.1432 18.1924 13.4661 18.0069 13.7454C17.696 14.2135 17.6663 14.3749 17.6276 15.8109L17.5855 17.3687L14.3175 17.4082L11.0495 17.4477L10.4463 17.8014C8.54804 18.9144 8.51162 21.46 10.377 22.6543L10.9719 23.0353L10.9789 24.8315C10.9877 27.1215 11.1696 28.9217 11.5551 30.5354C12.0351 32.5443 13.1533 35.1468 13.6504 35.4121C14.3093 35.7639 15.0598 35.359 15.0598 34.6518C15.0598 34.4405 14.8665 33.8834 14.6302 33.4137C13.4553 31.0779 13.0353 29.161 12.9338 25.6704L12.8591 23.0988H29.6824H46.5057L46.5053 25.4164C46.5048 28.093 46.324 29.3737 45.6695 31.3349C44.2898 35.4693 41.3301 38.9451 37.5194 40.9064C34.9582 42.2246 33.2554 42.6567 30.2735 42.7455C27.7528 42.8205 26.4596 42.6473 24.3954 41.9584C22.0521 41.1764 20.1857 40.0644 18.329 38.3445C17.3847 37.4696 17.1607 37.3218 16.779 37.3218C16.2152 37.3218 15.8236 37.6924 15.8236 38.2257C15.8236 38.5459 15.9837 38.7783 16.6578 39.4376C17.4996 40.2609 19.3367 41.6883 19.8658 41.9303C20.0233 42.0023 20.1522 42.152 20.1524 42.2632C20.1524 42.3741 19.6539 44.6215 19.0447 47.2572L17.937 52.0495L17.2358 52.2528C16.0839 52.5869 15.2996 53.0569 14.4147 53.9437C11.8477 56.5161 11.8653 60.5428 14.4548 63.1019C15.2845 63.9217 16.6121 64.6423 17.7077 64.8673C21.0374 65.551 24.3116 63.5325 25.2962 60.1888C25.8394 58.3442 25.367 56.0085 24.1471 54.5078C23.6726 53.9239 23.6524 53.8178 23.8594 52.998L24.0017 52.4337H29.8196H35.6375L36.8228 57.5451C37.4746 60.3563 38.1119 62.862 38.239 63.1131C38.7526 64.1276 40.1819 64.8713 41.2472 64.6782C42.7409 64.4077 43.8227 63.2096 43.8294 61.8184C43.8323 61.2114 42.9099 57.0411 42.6766 56.6062C42.3639 56.0234 41.4932 56.0638 41.0886 56.6797C40.8882 56.985 40.9032 57.1088 41.401 59.257C41.6886 60.4981 41.9236 61.639 41.9233 61.7922C41.9229 61.9455 41.7866 62.2284 41.6208 62.4208C41.2456 62.8559 40.5231 62.9045 40.1383 62.5207C39.9461 62.3289 39.388 60.1201 37.7455 53.0499L35.6035 43.8293L36.6183 43.4313C37.1766 43.2124 37.6425 43.0483 37.6539 43.0666C37.6653 43.0849 38.2003 45.3857 38.8427 48.1795C40.0998 53.6465 40.1213 53.7037 40.9181 53.7037C41.3846 53.7037 41.7952 53.3 41.7952 52.8413C41.7952 52.6463 41.2531 50.1471 40.5904 47.2877C39.6097 43.0553 39.4185 42.0705 39.5619 41.9905C40.0623 41.7111 41.8508 40.309 42.6083 39.6022C44.7948 37.5619 46.8127 34.3495 47.596 31.6614L47.7969 30.9723H51.2293C55.0185 30.9723 55.2342 30.9363 56.0334 30.1721C57.8082 28.4752 57.0173 25.5212 54.6529 25.0154C54.2958 24.9389 52.7494 24.8767 51.21 24.8767H48.4154L48.4172 23.956L48.4191 23.0353L49.0457 22.6905C49.8348 22.2566 50.3473 21.44 50.4261 20.4914C50.5248 19.3052 49.9653 18.309 48.8731 17.7259C48.3871 17.4666 48.1516 17.445 45.4017 17.4076L42.4516 17.3674L42.4098 15.7463C42.3699 14.1966 42.3524 14.1047 42.0114 13.6592C41.3215 12.7578 42.0919 12.8123 30.0571 12.8154C20.2235 12.818 19.157 12.8382 18.7708 13.0279ZM40.5221 16.0516V17.3857L30.0507 17.3532L19.5793 17.3207L19.5423 16.1878C19.5218 15.5648 19.5344 14.979 19.57 14.8862C19.6234 14.7477 21.5095 14.7174 30.0786 14.7174H40.5221V16.0516ZM48.2301 19.6008C48.6187 19.9884 48.6331 20.5101 48.2659 20.9001L47.989 21.1939H29.7973C17.2178 21.1939 11.5278 21.1524 11.3532 21.0592C10.762 20.7435 10.7964 19.7353 11.4086 19.4401C11.5987 19.3484 17.3901 19.3035 29.8018 19.2977L47.9177 19.2891L48.2301 19.6008ZM54.7401 27.1908C55.2217 27.6715 55.2197 28.351 54.7356 28.7664C54.3876 29.065 54.3607 29.0674 51.3232 29.0674H48.2616L48.3529 28.0197C48.4032 27.4436 48.4715 26.9262 48.505 26.8702C48.5385 26.8143 49.8772 26.7857 51.4798 26.8067L54.3937 26.845L54.7401 27.1908ZM23.0486 43.4973C23.5563 43.6815 23.9716 43.8773 23.9716 43.9323C23.9716 44.049 22.0788 52.2956 21.9995 52.5244C21.9603 52.6377 21.8014 52.6152 21.3992 52.4392C21.0985 52.3075 20.638 52.1605 20.376 52.1123C19.9714 52.038 19.9094 51.9839 19.9641 51.7531C20.2467 50.5594 21.9346 43.2371 21.9346 43.2048C21.9346 43.1155 22.1608 43.175 23.0486 43.4973ZM29.0165 44.6482C30.9601 44.7132 32.7077 44.6012 33.54 44.3583C33.7129 44.3077 33.7993 44.5012 34.0175 45.4284C34.1639 46.0508 34.2838 46.5958 34.2838 46.6397C34.2838 46.6833 32.2786 46.7191 29.8279 46.7191C26.3464 46.7191 25.3726 46.6845 25.3751 46.5604C25.3785 46.3877 25.5658 45.5311 25.7609 44.7961C25.883 44.3363 25.8865 44.3343 26.3599 44.4545C26.6218 44.5209 27.8173 44.608 29.0165 44.6482ZM34.9148 49.2886C34.9934 49.654 35.0903 50.0826 35.1302 50.241L35.2026 50.5289H29.8416C25.6374 50.5289 24.4809 50.4946 24.4816 50.3701C24.482 50.2829 24.5336 50.0114 24.5965 49.7669C24.6593 49.5225 24.746 49.1653 24.7892 48.9732L24.8676 48.624H29.8198H34.7719L34.9148 49.2886ZM20.7486 54.2313C21.6394 54.5638 22.5611 55.4178 23.0828 56.3942C23.443 57.068 23.5199 57.3606 23.5656 58.2287C23.6294 59.4398 23.4173 60.2224 22.7849 61.1097C21.0784 63.5038 17.7087 63.7512 15.6976 61.6301C14.7462 60.6267 14.501 59.9949 14.4932 58.5274C14.4874 57.4115 14.5189 57.2541 14.9053 56.4704C15.981 54.2891 18.4097 53.3584 20.7486 54.2313ZM17.5035 55.5565C15.4096 56.5973 15.0724 59.4651 16.864 60.9949C17.4018 61.4541 18.3678 61.8311 19.0064 61.8311C19.6721 61.8311 20.6783 61.4344 21.1983 60.9668C22.9607 59.3819 22.5784 56.5048 20.4757 55.5281C19.559 55.1023 18.3949 55.1134 17.5035 55.5565ZM19.8509 57.3574C20.6872 58.0332 20.58 59.2524 19.6416 59.7365C19.175 59.9771 18.8363 59.9764 18.3657 59.7336C17.4386 59.2553 17.371 57.9758 18.2367 57.2952C18.5336 57.0618 19.5326 57.1004 19.8509 57.3574Z" fill="#4A5568"/>
</svg>
