<svg width="65" height="65" viewBox="0 0 65 65" fill="none" xmlns="http://www.w3.org/2000/svg">
<path fill-rule="evenodd" clip-rule="evenodd" d="M30.1922 7.07497C19.825 7.78819 10.2103 12.5267 3.06054 20.4469C1.04465 22.6802 0.523766 23.4034 0.219332 24.3923C-0.91766 28.0848 2.57393 31.4083 5.89922 29.7986C6.45222 29.5308 6.86787 29.1161 8.84872 26.8555C12.968 22.1546 19.0198 18.4327 25.0157 16.9128C29.323 15.821 34.0192 15.6719 38.3054 16.4907C43.0898 17.4048 47.6611 19.4944 51.8452 22.6801C53.044 23.5928 55.5476 26.0044 57.812 28.4279C58.9766 29.6742 59.5082 29.9309 60.9247 29.9309C63.6706 29.9309 65.6198 26.982 64.7532 24.1384C64.3995 22.9775 63.4118 21.74 60.6121 18.9494C57.6955 16.0423 54.1544 13.3 53.3172 13.3C52.6413 13.3 52.2365 13.9525 52.4948 14.6258C52.5379 14.738 53.0662 15.1679 53.6692 15.581C55.6208 16.9188 57.5182 18.515 59.4005 20.4026C61.6261 22.6345 62.7659 24.0283 62.9624 24.7584C63.3999 26.383 62.3613 28.0266 60.897 28.0266C60.0253 28.0266 59.7065 27.8195 58.6147 26.5439C52.4816 19.3786 44.265 14.9855 35.4843 14.1771C33.493 13.9937 29.7773 14.0915 27.9145 14.3763C19.761 15.6227 12.4042 19.7736 6.80401 26.2872C6.03569 27.1809 5.22967 28.0038 5.01296 28.1159C4.17976 28.5467 3.06537 28.2695 2.48456 27.4871C1.55805 26.2392 1.69021 25.0613 2.93321 23.4892C3.97854 22.1672 6.87523 19.2224 8.36376 17.9687C19.7713 8.36075 34.8806 6.24444 48.1496 12.396C48.7703 12.6836 49.413 12.9191 49.5778 12.9191C50.2702 12.9191 50.6752 11.8244 50.1564 11.3548C49.7959 11.0287 47.4328 9.95668 45.6245 9.29893C40.8424 7.55993 35.124 6.73575 30.1922 7.07497ZM30.644 21.1237C26.0278 21.5041 21.5811 23.0355 17.6948 25.5833C15.789 26.8328 14.2742 28.0982 12.5166 29.9085C10.7331 31.7459 10.3305 32.5255 10.3422 34.1203C10.3562 36.0261 11.1577 37.4019 12.7042 38.1747C13.3542 38.4996 13.6308 38.5634 14.3826 38.5624C15.8014 38.5605 16.3344 38.244 18.5152 36.108C21.7432 32.9465 24.6483 31.3216 28.6914 30.4163C29.8315 30.161 30.3517 30.1214 32.5483 30.1222C35.3183 30.1232 36.1551 30.2439 38.4402 30.9717C41.6036 31.9794 44.1799 33.6285 46.9452 36.4157C48.624 38.1079 49.108 38.3685 50.5757 38.3713C51.3997 38.3729 51.7106 38.3145 52.224 38.0618C54.4127 36.9849 55.2881 34.2075 54.1805 31.8547C53.8154 31.0791 50.6089 27.8778 48.9888 26.6712C45.1792 23.8341 41.0451 22.0851 36.4562 21.3694C35.1544 21.1664 31.8309 21.0259 30.644 21.1237ZM34.7065 23.08C39.5621 23.5363 44.2429 25.3897 48.0951 28.3814C49.513 29.4825 51.9788 31.8862 52.3651 32.5437C53.1743 33.9214 52.6562 35.7991 51.3118 36.3609C50.3328 36.7699 49.5328 36.4508 48.4464 35.2181C47.5805 34.2353 45.6279 32.5757 44.2915 31.6864C43.035 30.8504 40.301 29.5252 38.9941 29.119C36.575 28.3669 35.5571 28.2259 32.5483 28.2259C29.4728 28.2259 28.3251 28.3924 25.9468 29.1836C22.5227 30.3228 18.8826 32.73 16.4122 35.4892C15.5574 36.4441 15.179 36.6594 14.3559 36.6594C12.7071 36.6594 11.638 34.4977 12.4807 32.868C12.5923 32.6525 13.2091 31.9263 13.8514 31.2543C19.4887 25.3577 27.1194 22.3667 34.7065 23.08ZM30.9614 35.224C27.9262 35.5488 24.7667 36.9493 22.365 39.0345C21.8062 39.5199 21.4615 39.9527 21.1823 40.5198C19.6548 43.6224 21.9546 47.3663 25.1831 47.0332C26.0544 46.9432 26.7996 46.6073 27.594 45.9462C28.3188 45.343 29.58 44.6598 30.5501 44.3451C31.2638 44.1134 31.4692 43.8774 31.4692 43.289C31.4692 42.9178 31.2185 42.6065 30.7999 42.458C30.4713 42.3413 28.7293 42.9279 27.8728 43.4436C27.4658 43.6888 26.7915 44.1458 26.3745 44.4592C25.9574 44.7727 25.4137 45.0672 25.1663 45.1137C23.8745 45.356 22.5862 44.091 22.5833 42.5774C22.581 41.4461 23.2151 40.6103 24.9774 39.4211C29.2507 36.5375 34.5748 36.291 39.0229 38.7706C40.2246 39.4404 41.5719 40.4998 41.966 41.0844C42.7479 42.2447 42.2986 44.2372 41.1174 44.848C40.9151 44.9526 40.4672 45.0383 40.1222 45.0383C39.6065 45.0383 39.3853 44.9589 38.8781 44.5922C36.9336 43.1859 35.339 42.4153 34.7036 42.5748C34.0494 42.739 33.7795 43.6493 34.2569 44.0813C34.3936 44.2051 34.9367 44.4938 35.4636 44.7228C35.9905 44.952 36.8368 45.4573 37.3442 45.846C38.4411 46.686 39.0995 46.9426 40.1589 46.9426C41.7781 46.9426 43.0441 46.1156 43.8115 44.5566C44.1902 43.7875 44.2278 43.6064 44.2249 42.5654C44.2222 41.5777 44.1715 41.3106 43.8572 40.6237C43.2417 39.2796 41.3593 37.7452 38.8988 36.5823C36.5277 35.4617 33.5323 34.9491 30.9614 35.224ZM31.1518 50.287C28.6843 51.1055 27.211 53.4276 27.6496 55.8077C28.3732 59.735 32.9326 61.297 35.8428 58.6146C36.979 57.5672 37.6182 55.6763 37.3275 54.2221C36.8514 51.8407 35.0274 50.2448 32.681 50.1569C32.0685 50.1339 31.4564 50.186 31.1518 50.287ZM33.4143 52.1568C34.0164 52.324 34.828 53.0428 35.186 53.7259C35.8044 54.9057 35.3983 56.5916 34.2924 57.4351C32.3208 58.9389 29.4885 57.502 29.5072 55.0075C29.5225 52.9699 31.4026 51.5982 33.4143 52.1568Z" fill="#4A5568"/>
</svg>
