<svg width="85" height="87" viewBox="0 0 85 87" fill="none" xmlns="http://www.w3.org/2000/svg">
<path fill-rule="evenodd" clip-rule="evenodd" d="M21.2996 18.7257C9.89651 26.8163 0.436113 33.592 0.27624 33.7826C-0.122862 34.2588 -0.0876668 34.8113 0.369872 35.2514C0.733613 35.6011 0.906435 35.6208 3.60718 35.6208H6.46032V58.8152V82.0095H4.16184C2.08714 82.0095 1.83463 82.042 1.56784 82.3438C1.18982 82.7713 1.18982 83.4567 1.56784 83.8843C1.86019 84.2149 2.30229 84.2185 42.4857 84.2185C82.6691 84.2185 83.1112 84.2149 83.4036 83.8843C83.7816 83.4567 83.7816 82.7713 83.4036 82.3438C83.1368 82.042 82.8843 82.0095 80.8096 82.0095H78.5111V58.8152V35.6208H81.3875C84.1794 35.6208 84.2743 35.6093 84.6248 35.2277C85.0611 34.7522 85.0857 34.2484 84.6952 33.7826C84.5353 33.592 75.0749 26.8163 63.6718 18.7257C48.5524 7.99818 42.8162 4.01538 42.4857 4.01538C42.1552 4.01538 36.419 7.99818 21.2996 18.7257ZM61.4205 19.936L80.0441 33.157L78.1396 33.2046L76.2352 33.2523L59.7341 21.5245C50.6583 15.0741 43.0648 9.74922 42.8592 9.69128C42.6537 9.63334 42.3177 9.63334 42.1122 9.69128C41.9067 9.74922 34.3131 15.0741 25.2374 21.5245L8.73623 33.2523L6.83153 33.2046L4.92684 33.157L23.6619 19.8575C33.9661 12.5429 42.4869 6.59361 42.5969 6.63677C42.7068 6.67993 51.1775 12.6646 61.4205 19.936ZM45.0438 13.9098L47.2608 15.4851L44.8732 15.5322C43.5602 15.558 41.4103 15.558 40.0958 15.5322L37.7058 15.4851L40.0499 13.8248C41.3392 12.9116 42.4915 12.2027 42.6106 12.2495C42.7296 12.2962 43.8246 13.0433 45.0438 13.9098ZM53.3672 19.8181L55.9971 21.6873H42.4857H28.9744L31.6042 19.8181L34.2339 17.949H42.4857H50.7375L53.3672 19.8181ZM61.6937 25.7229L64.2716 27.5496L53.3787 27.5932C47.3875 27.6174 37.5841 27.6174 31.5933 27.5932L20.701 27.5496L23.251 25.7304L25.8011 23.9112L42.4585 23.9037L59.1158 23.8962L61.6937 25.7229ZM69.9507 31.5852L72.162 33.157L57.3239 33.2003C49.1629 33.2243 35.8087 33.2243 27.6479 33.2003L12.8103 33.157L14.9892 31.594L17.1683 30.0313L42.4538 30.0223L67.7392 30.0134L69.9507 31.5852ZM12.6029 58.8152V82.0095H10.6937H8.78454V58.8152V35.6208H10.6937H12.6029V58.8152ZM17.5834 35.6672C17.5834 35.6929 16.9857 36.3219 16.2552 37.0652L14.9271 38.4166V37.0188V35.6208H16.2552C16.9857 35.6208 17.5834 35.6417 17.5834 35.6672ZM19.7404 40.4653L15.0101 45.3098L14.9626 43.4893L14.9152 41.6687L17.8663 38.6448L20.8172 35.6208H22.644H24.4709L19.7404 40.4653ZM63.6934 42.1195L70.0443 48.6182V65.315V82.0117L57.7176 81.9681L45.391 81.9246V73.5984V65.2722L52.0207 65.2277C57.8988 65.1883 58.6845 65.1516 58.9518 64.904C59.2151 64.6602 59.2533 64.3303 59.2533 62.2986C59.2533 60.1494 59.2267 59.9477 58.9038 59.6487C58.5653 59.335 58.0543 59.325 42.4857 59.325C26.9171 59.325 26.4061 59.335 26.0676 59.6487C25.7447 59.9477 25.7181 60.1494 25.7181 62.2986C25.7181 64.3303 25.7563 64.6602 26.0196 64.904C26.2869 65.1516 27.0727 65.1883 32.9508 65.2277L39.5804 65.2722V73.5984V81.9246L27.2538 81.9681L14.9271 82.0117V65.3166V48.6216L21.2764 42.1212L27.6257 35.6208H42.4841H57.3424L63.6934 42.1195ZM67.1052 38.6448L70.0563 41.6687L70.0088 43.4893L69.9613 45.3098L65.231 40.4653L60.5006 35.6208H62.3274H64.1542L67.1052 38.6448ZM70.0443 36.9802C70.0443 37.7279 70.0239 38.3396 69.999 38.3396C69.9739 38.3396 69.3593 37.7279 68.6332 36.9802L67.3129 35.6208H68.6785H70.0443V36.9802ZM76.1869 58.8152V82.0095H74.2777H72.3685V58.8152V35.6208H74.2777H76.1869V58.8152ZM57.0951 62.2986V62.9783H42.4857H27.8763V62.2986V61.6189H42.4857H57.0951V62.2986ZM43.1498 73.5984V82.0095H42.4857H41.8217V73.5984V65.1873H42.4857H43.1498V73.5984Z" fill="#4A5568"/>
</svg>
