<svg width="85" height="87" viewBox="0 0 85 87" fill="none" xmlns="http://www.w3.org/2000/svg">
<path fill-rule="evenodd" clip-rule="evenodd" d="M33.1674 0.206932C32.8478 0.310584 32.2481 0.742355 31.8346 1.16648C30.2777 2.76409 30.2908 4.86194 31.8683 6.48317C32.3001 6.92717 32.7691 7.2903 32.9104 7.2903C33.1222 7.2903 33.1674 7.54433 33.1674 8.73463V10.179H32.3298C31.6618 10.179 31.4096 10.2634 31.0847 10.5961C30.8606 10.8255 30.6771 11.2112 30.6771 11.4534C30.6771 11.6955 30.8606 12.0812 31.0847 12.3106C31.4096 12.6433 31.6618 12.7278 32.3298 12.7278H33.1674V14.1721C33.1674 15.3624 33.1222 15.6165 32.9104 15.6165C32.7691 15.6165 32.3001 15.9796 31.8683 16.4236C30.2762 18.0601 30.2762 20.1396 31.8683 21.7761C32.3001 22.2201 32.7691 22.5833 32.9104 22.5833C33.1358 22.5833 33.1674 23.127 33.1674 27.0012V31.4192H29.3477H25.528L25.2617 30.7382C24.9184 29.8598 23.5853 28.6367 22.5948 28.2913C21.459 27.8952 12.5094 27.8928 11.3752 28.2884C10.3791 28.6357 9.16118 29.7422 8.7073 30.7122C8.36896 31.4353 8.29159 31.4929 7.37486 31.7048C4.76609 32.3077 2.21144 34.3447 0.99056 36.7959C0.797649 37.183 0.478401 38.1372 0.281009 38.9165C-0.59738 42.3851 0.624993 46.2141 3.36757 48.5847C4.55309 49.6095 5.79339 50.2612 7.25034 50.6246L8.31832 50.8912L8.59358 51.9203C8.92279 53.1514 9.62404 54.5745 10.2798 55.3428L10.7573 55.9021L10.7148 69.5136L10.6723 83.1252L8.4342 83.9074C6.58296 84.5546 6.15365 84.7684 5.94945 85.1454C5.63003 85.7352 5.85747 86.4503 6.47754 86.8066C6.90337 87.0511 7.08018 87.0127 9.83604 86.0776C11.9069 85.375 12.817 84.9852 12.9953 84.7249C13.2131 84.4066 13.2455 82.6365 13.2455 71.0672V57.7754L14.2001 58.1328C15.5591 58.6417 18.4026 58.6417 19.7616 58.1328L20.7162 57.7754V71.0672C20.7162 82.6365 20.7486 84.4066 20.9664 84.7249C21.1447 84.9852 22.0548 85.375 24.1257 86.0776C26.8815 87.0127 27.0583 87.0511 27.4842 86.8066C28.1042 86.4503 28.3317 85.7352 28.0123 85.1454C27.8081 84.7684 27.3787 84.5546 25.5275 83.9074L23.2894 83.1252L23.2469 69.5208L23.2044 55.9165L23.6004 55.4349C24.1698 54.742 24.9244 53.3881 25.2889 52.4046C25.5805 51.6178 25.6079 50.9036 25.6585 42.7615L25.7133 33.968H31.5378C35.6437 33.968 37.5638 33.9067 38.0456 33.7604C38.4561 33.6355 39.0289 33.2455 39.4806 32.7833C41.0232 31.2044 41.0232 29.0852 39.4806 27.5062C38.6417 26.6478 37.8239 26.3215 36.5099 26.3215H35.6576V24.4524C35.6576 22.8786 35.6983 22.5833 35.9146 22.5833C36.0559 22.5833 36.5249 22.2201 36.9567 21.7761C38.5488 20.1396 38.5488 18.0601 36.9567 16.4236C36.5249 15.9798 36.0559 15.6165 35.9146 15.6165C35.7028 15.6165 35.6576 15.3624 35.6576 14.1721V12.7278H36.4952C37.1632 12.7278 37.4154 12.6433 37.7403 12.3106C37.9644 12.0812 38.1478 11.6955 38.1478 11.4534C38.1478 11.2112 37.9644 10.8255 37.7403 10.5961C37.4154 10.2634 37.1632 10.179 36.4952 10.179H35.6576V8.73463C35.6576 7.54433 35.7028 7.2903 35.9146 7.2903C36.0559 7.2903 36.5249 6.927 36.9567 6.48317C38.5342 4.86177 38.5474 2.76222 36.9904 1.16835C35.9143 0.0669159 34.6099 -0.261033 33.1674 0.206932ZM35.25 2.94964C35.4742 3.17904 35.6576 3.56476 35.6576 3.8069C35.6576 4.37342 34.966 5.08131 34.4125 5.08131C33.859 5.08131 33.1674 4.37342 33.1674 3.8069C33.1674 3.24038 33.859 2.53248 34.4125 2.53248C34.6491 2.53248 35.0259 2.72025 35.25 2.94964ZM15.5697 7.73634C12.3595 8.37321 9.74656 10.7161 8.66579 13.9269C8.23498 15.2063 8.23498 17.8958 8.66579 19.1751C9.61158 21.985 11.6718 24.0937 14.4171 25.0617C15.667 25.5027 18.2947 25.5027 19.5446 25.0617C21.6205 24.3297 23.3906 22.884 24.427 21.074C25.3447 19.471 25.6074 18.465 25.6074 16.551C25.6074 14.637 25.3447 13.6311 24.427 12.0281C23.406 10.2451 21.6369 8.78544 19.6371 8.07601C18.8122 7.78341 16.3634 7.57882 15.5697 7.73634ZM19.661 10.858C20.2414 11.1504 20.7162 11.452 20.7162 11.5281C20.7162 11.6909 19.4226 12.2751 18.475 12.5402C17.626 12.7776 16.3357 12.7776 15.4867 12.5402C14.5803 12.2867 13.2455 11.6937 13.2455 11.5445C13.2455 11.3528 14.7909 10.5409 15.5051 10.3574C16.6965 10.0512 18.4883 10.2672 19.661 10.858ZM12.3774 13.9907C13.6151 14.8172 14.9931 15.1701 16.9809 15.1701C18.9686 15.1701 20.3467 14.8172 21.5843 13.9907C21.9246 13.7635 22.2714 13.5774 22.3548 13.5774C22.6015 13.5774 23.0406 14.8889 23.1488 15.9487C23.2606 17.0426 23.0137 18.3765 22.5027 19.4397C22.0749 20.3299 20.8047 21.6701 19.9691 22.1131C17.3916 23.4796 14.5159 23.0245 12.557 20.9403C11.252 19.5515 10.6274 17.7643 10.8129 15.9487C10.9211 14.8889 11.3602 13.5774 11.6069 13.5774C11.6903 13.5774 12.0371 13.7635 12.3774 13.9907ZM35.25 18.2426C35.4742 18.472 35.6576 18.8577 35.6576 19.0999C35.6576 19.6664 34.966 20.3743 34.4125 20.3743C33.859 20.3743 33.1674 19.6664 33.1674 19.0999C33.1674 18.5333 33.859 17.8255 34.4125 17.8255C34.6491 17.8255 35.0259 18.0132 35.25 18.2426ZM37.7403 29.2875C37.9644 29.5169 38.1478 29.9026 38.1478 30.1448C38.1478 30.3869 37.9644 30.7726 37.7403 31.002C37.4154 31.3348 37.1632 31.4192 36.4952 31.4192H35.6576V30.1448V28.8704H36.4952C37.1632 28.8704 37.4154 28.9548 37.7403 29.2875ZM22.0599 30.8328C22.3334 30.9774 22.7029 31.3407 22.881 31.6399C23.1905 32.1594 23.2053 32.55 23.2058 40.2976L23.2064 48.4114H16.9809H10.7553V40.3316C10.7553 31.4143 10.7385 31.5657 11.801 30.9026C12.2944 30.5946 12.663 30.5708 16.9477 30.5703C20.7904 30.5698 21.6459 30.6136 22.0599 30.8328ZM8.26503 41.2031V48.2685L7.72548 48.149C6.80957 47.9463 5.59301 47.2258 4.68872 46.3506C1.87343 43.6254 1.75274 39.2215 4.41347 36.3101C5.40342 35.2268 7.17016 34.1774 8.05751 34.1454C8.22037 34.1395 8.26503 35.6603 8.26503 41.2031ZM54.1712 37.7116L52.4788 39.4159L51.3575 38.901C50.016 38.2849 49.4479 38.2531 48.9858 38.7683C48.5149 39.2936 44.5009 49.0289 44.1093 50.5957C43.8927 51.4627 43.7924 52.4497 43.7924 53.7138C43.7924 55.4513 43.8171 55.5889 44.1999 55.9806C44.6885 56.4808 45.2747 56.5146 45.8076 56.0732C46.1711 55.7721 46.2071 55.5899 46.3032 53.5668C46.3877 51.7882 46.4905 51.1531 46.8587 50.13C47.2402 49.07 50.3893 41.4317 50.4845 41.3358C50.5017 41.3182 50.9269 41.4854 51.4291 41.7073C52.9468 42.3778 53.1019 42.3272 54.8132 40.6036L56.3231 39.083L57.8381 40.6036C59.5547 42.3267 59.7088 42.377 61.224 41.707C61.878 41.4177 62.1675 41.3595 62.2439 41.5013C62.4617 41.9053 65.6776 49.7162 65.9634 50.5354C66.1529 51.0785 66.2855 52.0594 66.3312 53.2542C66.41 55.3226 66.1646 56.6686 65.4423 58.1273L65.0367 58.9465H63.1996C62.1891 58.9465 61.3909 58.8891 61.4257 58.8191C62.5176 56.6205 62.7497 55.4127 62.3848 53.8265C62.0269 52.2703 61.5912 51.6328 59.1777 49.1336C57.1727 47.0573 56.7663 46.7122 56.3266 46.7122C55.8868 46.7122 55.4804 47.0573 53.4754 49.1336C51.0619 51.6328 50.6262 52.2703 50.2683 53.8265C49.9034 55.4127 50.1355 56.6205 51.2274 58.8191C51.2622 58.8893 47.8447 58.9465 43.6327 58.9465H35.9745L35.5671 59.3637C35.343 59.5931 35.1596 59.9788 35.1596 60.221C35.1596 60.4631 35.343 60.8488 35.5671 61.0782L35.9745 61.4954H41.092H46.2096L47.4791 62.7698L48.7486 64.0442H38.6263H28.5038L28.0964 64.4614C27.6947 64.8726 27.6889 64.9205 27.6889 67.8674C27.6889 70.8144 27.6947 70.8623 28.0964 71.2735C28.4857 71.6722 28.5966 71.6907 30.5867 71.6907H32.6693V78.92V86.1495L33.0769 86.5665L33.4843 86.9837H56.3266H79.1688L79.5762 86.5665L79.9838 86.1495V78.92V71.6907H82.0665C84.0565 71.6907 84.1674 71.6722 84.5567 71.2735C84.9584 70.8623 84.9642 70.8144 84.9642 67.8674C84.9642 64.9205 84.9584 64.8726 84.5567 64.4614L84.1493 64.0442H74.0268H63.9045L65.174 62.7698L66.4436 61.4954H71.5611H76.6786L77.086 61.0782C77.3101 60.8488 77.4935 60.4631 77.4935 60.221C77.4935 59.9788 77.3101 59.5931 77.086 59.3637L76.6786 58.9465H72.2715C69.8477 58.9465 67.8646 58.9177 67.8646 58.8823C67.8646 58.847 67.9779 58.5408 68.1163 58.2018C68.9338 56.1991 69.1222 52.8951 68.549 50.611C68.1518 49.0287 64.1394 39.2949 63.6673 38.7683C63.2052 38.2531 62.6371 38.2849 61.2956 38.901L60.1743 39.4159L58.4819 37.7116C57.1535 36.3734 56.6901 36.0071 56.3266 36.0071C55.963 36.0071 55.4996 36.3734 54.1712 37.7116ZM59.6643 53.4858C60.3617 54.9899 60.0833 56.5637 58.9083 57.7612C57.3585 59.3404 55.2913 59.3408 53.7487 57.7619C52.6704 56.658 52.3644 55.4392 52.7929 53.9536C52.9413 53.4389 53.4319 52.7927 54.651 51.5058L56.3075 49.7577L57.8512 51.3312C58.7002 52.1966 59.5162 53.1661 59.6643 53.4858ZM23.0388 51.1726C23.0351 51.6535 22.1876 53.202 21.5262 53.9364C19.0099 56.7306 14.9518 56.7306 12.4355 53.9364C11.7741 53.202 10.9266 51.6535 10.9229 51.1726C10.9216 51.0066 12.2429 50.9602 16.9809 50.9602C21.7188 50.9602 23.0401 51.0066 23.0388 51.1726ZM62.5521 61.8354C61.8462 62.4007 60.0277 63.3117 58.9828 63.6231C58.3289 63.818 57.4163 63.9202 56.3266 63.9202C55.2368 63.9202 54.3242 63.818 53.6703 63.6231C52.6254 63.3117 50.8069 62.4007 50.101 61.8354C49.6871 61.5039 49.7047 61.5028 56.3266 61.5028C62.9484 61.5028 62.966 61.5039 62.5521 61.8354ZM82.474 67.8674V69.1419H56.3266H30.1791V67.8674V66.593H56.3266H82.474V67.8674ZM47.6107 72.9651V74.2395H41.3852H35.1596V72.9651V71.6907H41.3852H47.6107V72.9651ZM62.5521 72.9651V74.2395H56.3266H50.101V72.9651V71.6907H56.3266H62.5521V72.9651ZM77.4935 72.9651V74.2395H71.268H65.0424V72.9651V71.6907H71.268H77.4935V72.9651ZM40.14 78.0628V79.3372H37.6498H35.1596V78.0628V76.7883H37.6498H40.14V78.0628ZM55.0814 78.0628V79.3372H48.8559H42.6303V78.0628V76.7883H48.8559H55.0814V78.0628ZM70.0228 78.0628V79.3372H63.7973H57.5717V78.0628V76.7883H63.7973H70.0228V78.0628ZM77.4935 78.0628V79.3372H75.0033H72.5131V78.0628V76.7883H75.0033H77.4935V78.0628ZM47.6107 83.1604V84.4348H41.3852H35.1596V83.1604V81.886H41.3852H47.6107V83.1604ZM62.5521 83.1604V84.4348H56.3266H50.101V83.1604V81.886H56.3266H62.5521V83.1604ZM77.4935 83.1604V84.4348H71.268H65.0424V83.1604V81.886H71.268H77.4935V83.1604Z" fill="#4A5568"/>
</svg>
