<svg width="85" height="87" viewBox="0 0 85 87" fill="none" xmlns="http://www.w3.org/2000/svg">
<path fill-rule="evenodd" clip-rule="evenodd" d="M67.9011 8.27836C60.7641 9.77741 55.9231 16.1573 56.3283 23.5302C56.5136 26.9033 57.5751 29.6056 59.7664 32.2831C61.9568 34.9595 64.8245 36.5294 69.0217 37.3496L69.3953 37.4227V54.3267V71.2307H67.7298C65.8676 71.2307 65.3002 71.4028 64.3514 72.2553C63.1828 73.3056 63.016 73.8578 62.9497 76.8937C62.909 78.7604 62.9535 79.7375 63.0953 80.0878C63.4932 81.0714 63.6066 81.0861 70.7126 81.0861H77.1927L77.7349 80.5908L78.2771 80.0953L78.3309 77.6187C78.3938 74.7119 78.1861 73.7185 77.2916 72.6488C76.3759 71.5537 75.5227 71.2307 73.5467 71.2307H71.8838L71.9262 54.2925L71.9685 37.3544L73.2578 37.1314C77.9708 36.3167 82.2354 32.7051 84.0103 28.0255C86.9034 20.3977 83.058 11.7104 75.5471 8.90673C73.215 8.03605 70.2245 7.79034 67.9011 8.27836ZM73.8777 10.9951C79.2405 12.6812 82.7972 17.8169 82.463 23.3917C81.9436 32.0533 73.0758 37.3838 65.4939 33.592C64.6721 33.1809 63.5738 32.4936 63.053 32.0644C61.396 30.6989 59.8696 28.2977 59.1578 25.937C58.924 25.1616 58.8549 24.3939 58.8606 22.633C58.8671 20.5802 58.916 20.1962 59.3268 18.9797C60.7439 14.7816 63.9656 11.7981 68.1502 10.809C69.4544 10.5008 72.6341 10.6041 73.8777 10.9951ZM0.408315 15.7435C-0.111148 16.2751 -0.111148 16.9265 0.408315 17.458L0.815717 17.8752H22.2136C42.7327 17.8752 43.6227 17.888 43.8861 18.186C44.5693 18.9586 44.398 19.2028 40.1837 23.459C36.3067 27.3743 36.1993 27.5013 35.93 28.4826C35.5726 29.7847 35.6946 31.0266 36.2896 32.1458C36.8321 33.166 40.8002 37.1996 42.7552 38.7183C47.0673 42.0678 51.6286 44.1351 56.7781 45.0732C57.8326 45.2653 57.8799 45.297 58.8533 46.4634C59.821 47.6231 60.5938 48.7543 60.5956 49.0134C60.5961 49.0836 58.9291 49.1408 56.8913 49.1408C54.0881 49.1408 52.9826 49.2027 52.3511 49.3947C50.3392 50.0061 48.9753 51.8993 48.9753 54.0808C48.9753 56.2371 50.3417 58.1317 52.3332 58.737C52.9242 58.9168 53.9158 58.9963 55.5632 58.9963C56.8706 58.9963 57.94 59.0155 57.9399 59.0388C57.9397 59.0621 57.0894 61.7822 56.0501 65.0834C54.0101 71.5641 53.8472 71.9063 52.6372 72.2504C52.1069 72.4011 46.8171 72.5029 46.8171 72.3624C46.8171 72.3306 46.9724 71.6997 47.1621 70.9605C47.4153 69.9741 47.5071 69.0965 47.5071 67.6623C47.5071 65.2323 47.1382 63.6819 46.0405 61.4986C44.59 58.6136 41.6594 56.0352 38.6824 55.0251C35.4333 53.9224 32.1102 54.0905 29.1101 55.5092C24.3129 57.7778 21.4093 62.4117 21.4196 67.7826C21.4221 69.0677 21.533 69.8373 22.0327 72.0378L22.1195 72.4201H11.4042H0.688881L0.344897 72.8679C-0.111646 73.4617 -0.089732 74.0422 0.408315 74.5518L0.815717 74.9689L12.1539 74.9791L23.492 74.9895L24.239 75.9934C25.4999 77.6879 27.8555 79.4771 29.8118 80.2263C32.3286 81.1901 35.7009 81.33 38.1013 80.5704C40.6794 79.7545 43.2309 77.9983 44.7242 76.0121L45.4912 74.9919L49.2669 74.938C52.9302 74.8855 53.07 74.8709 53.9558 74.4437C54.9748 73.9523 55.9681 72.9931 56.3816 72.1013C56.532 71.7768 58.1079 66.8795 59.8836 61.2182L63.1122 50.925L63.0563 49.5656C63.0155 48.5746 62.8958 47.9881 62.6147 47.4013C62.0521 46.227 50.5693 32.551 50.0295 32.4124C49.1799 32.194 48.2457 33.2773 48.599 34.071C48.6951 34.2871 50.1708 36.128 51.8781 38.1618C53.5853 40.1958 54.9408 41.9022 54.8902 41.954C54.7402 42.1074 52.0156 41.1774 50.2912 40.3842C46.7496 38.755 43.9997 36.7489 40.645 33.3469C37.4866 30.1441 37.4457 29.8088 39.9028 27.2569L41.4301 25.6707L43.0634 27.6364C45.5 30.5689 45.8406 30.7986 46.7117 30.0972C47.0308 29.8404 47.1492 29.5889 47.1492 29.1682C47.1492 28.678 46.8593 28.2442 45.2202 26.2807L43.2911 23.97L44.7813 22.4094C46.4551 20.6567 46.7272 20.0852 46.6188 18.5506C46.5271 17.2547 45.9261 16.3447 44.7737 15.7568L43.9296 15.3264H22.3727H0.815717L0.408315 15.7435ZM66.7402 15.8088L66.241 16.3197V22.7977V29.2754L66.6485 29.6924C67.1678 30.2241 67.8043 30.2241 68.3236 29.6924C68.7173 29.2897 68.7312 29.1947 68.7312 26.9125V24.5496L70.6349 24.4636C72.2604 24.3902 72.6718 24.3108 73.4495 23.9214C75.025 23.1324 75.9119 21.6628 75.9109 19.8417C75.9102 18.595 75.6099 17.806 74.7767 16.8621C73.631 15.5641 73.1837 15.4226 70.019 15.3561L67.2394 15.2978L66.7402 15.8088ZM72.3676 18.0902C73.3285 18.5957 73.7417 20.0925 73.1562 20.9479C72.639 21.7037 72.2046 21.86 70.4329 21.9273L68.7312 21.9919V19.9335V17.8752L70.3499 17.8778C71.3036 17.8791 72.1324 17.9665 72.3676 18.0902ZM0.344897 26.6491C-0.214742 27.3772 -0.0857476 28.098 0.676762 28.5016C1.06474 28.707 2.24578 28.7502 7.47859 28.7502C13.1447 28.7502 13.9813 28.7857 15.4307 29.088C19.1209 29.8578 22.2194 31.5634 24.8201 34.2567C26.335 35.8254 29.0605 39.6689 29.2907 40.5611C29.4909 41.336 29.1011 42.2157 28.3501 42.6843C27.8211 43.0145 27.4916 43.0225 14.3121 43.023L0.815717 43.0236L0.408315 43.4408C-0.111148 43.9723 -0.111148 44.6238 0.408315 45.1553L0.815717 45.5725H14.3234C29.8844 45.5725 29.047 45.6474 30.498 44.1242C31.9417 42.609 32.2533 40.5363 31.2967 38.8128C30.311 37.0368 28.0001 33.9573 26.4809 32.3954C24.0969 29.9446 21.567 28.3449 18.3065 27.2269C15.6665 26.3217 14.3779 26.2027 7.19304 26.2021L0.688881 26.2014L0.344897 26.6491ZM12.8894 50.3427C12.3412 50.784 12.2896 51.6934 12.7839 52.1994C13.0874 52.51 13.3373 52.5393 15.6967 52.5393C18.2155 52.5393 18.2874 52.5292 18.685 52.1221C18.9091 51.8927 19.0925 51.507 19.0925 51.2649C19.0925 51.0227 18.9091 50.637 18.685 50.4076C18.2889 50.002 18.209 49.9904 15.8021 49.9904C13.5493 49.9904 13.2875 50.022 12.8894 50.3427ZM60.1834 51.9021C60.1445 52.019 59.8067 53.0895 59.4327 54.281L58.7527 56.4475H56.0033C53.5204 56.4475 53.194 56.413 52.6353 56.0917C51.8373 55.6325 51.4656 54.972 51.4656 54.0128C51.4656 53.1289 52.0184 52.3077 52.8684 51.9287C53.577 51.6129 60.2877 51.5884 60.1834 51.9021ZM37.0222 57.1562C37.4331 57.2549 38.4002 57.6424 39.1711 58.0169C41.8505 59.3188 44.0088 62.0586 44.7617 65.1135C45.1152 66.5478 45.1095 68.9637 44.7493 70.3675C43.1643 76.5428 36.707 80.0574 30.9303 77.8891C29.175 77.2303 27.9852 76.4112 26.6688 74.956C24.679 72.7562 23.8084 70.2499 23.9585 67.1525C24.0518 65.225 24.3511 64.1181 25.2413 62.4087C26.6886 59.6293 29.7401 57.4633 32.9351 56.9474C33.9103 56.79 35.9284 56.893 37.0222 57.1562ZM32.7339 61.9574C31.7215 62.2948 31.3777 62.6642 31.3777 63.4143C31.3777 64.3509 31.8176 64.6853 32.8262 64.5155C33.2621 64.4421 34.0796 64.3747 34.6426 64.3655C35.5271 64.351 35.762 64.4182 36.3709 64.8586C38.1827 66.169 38.3236 68.8258 36.6587 70.2842C34.6563 72.0385 31.7092 70.9342 31.1358 68.2147C30.8121 66.6802 28.7214 66.8623 28.7214 68.4251C28.7214 69.8105 29.7849 71.6437 31.1436 72.6006C32.1983 73.3433 33.1302 73.6363 34.449 73.6395C36.7681 73.6451 38.8124 72.316 39.7764 70.1756C40.1878 69.2625 40.258 68.8961 40.2587 67.6623C40.2594 66.4557 40.1875 66.0608 39.8221 65.263C38.8411 63.1218 37.0161 61.871 34.7287 61.7726C33.9382 61.7385 33.1795 61.8088 32.7339 61.9574ZM75.0489 73.9545C75.661 74.2898 75.8699 75.0213 75.8699 76.8296V78.5373H70.6261H65.3823L65.4381 76.5681C65.4924 74.6524 65.5065 74.5878 65.9597 74.1892C66.4251 73.7798 66.4289 73.7795 70.5776 73.7795C73.1079 73.7795 74.8544 73.8478 75.0489 73.9545Z" fill="#4A5568"/>
</svg>
