<svg width="85" height="87" viewBox="0 0 85 87" fill="none" xmlns="http://www.w3.org/2000/svg">
<path fill-rule="evenodd" clip-rule="evenodd" d="M63.0981 0.248879C62.52 0.37734 61.3994 0.802315 60.6078 1.19314C59.4359 1.77189 58.9033 2.17545 57.7387 3.36746C56.572 4.56184 56.1852 5.09692 55.6372 6.2755C54.8936 7.87412 54.438 9.69161 54.436 11.0668C54.4349 11.9424 54.4156 11.9791 53.7582 12.3635C51.4079 13.7373 50.1737 16.0929 50.319 18.9269C50.4518 21.5173 51.8512 23.6413 54.1985 24.8155L55.3504 25.3917L65.8094 25.441C77.384 25.4957 77.6112 25.4789 79.7063 24.4179C81.1866 23.6684 83.2381 21.5263 83.9659 19.9702C85.7702 16.1131 85.0518 11.6557 82.1447 8.66936C80.5676 7.04915 78.4427 6.00974 76.3152 5.8179L75.1998 5.71731L74.3531 4.55198C73.2775 3.07128 71.9762 1.98208 70.2919 1.15201C68.0367 0.0405551 65.4802 -0.280257 63.0981 0.248879ZM68.2997 3.03679C70.174 3.71376 71.9406 5.19836 72.884 6.88892C73.6185 8.20496 73.7334 8.26851 75.5213 8.34481C76.8633 8.40207 77.2658 8.4923 78.2206 8.94973C80.4349 10.0111 81.9642 12.0523 82.3723 14.4916C82.9756 18.0961 80.6494 21.7299 77.1234 22.6908C76.4441 22.876 74.2058 22.9239 66.2245 22.9241L56.1805 22.9244L55.3504 22.5272C53.7665 21.7688 52.9263 20.5092 52.8081 18.715C52.6793 16.7598 53.7763 14.9995 55.5288 14.3492C55.9785 14.1823 56.5091 13.8673 56.7076 13.6493C57.0307 13.2948 57.0594 13.1222 56.9797 12.0156C56.7246 8.47157 58.5829 5.09386 61.6368 3.55131C62.3796 3.17612 63.3233 2.79805 63.7342 2.71122C64.8962 2.46534 67.1659 2.62728 68.2997 3.03679ZM23.8463 3.06007C23.5025 3.14401 22.9422 3.361 22.6012 3.54231C22.2532 3.72735 17.2754 8.70266 11.2512 14.8866C1.0972 25.31 0.505523 25.9506 0.231597 26.817C-0.32605 28.5817 0.13979 30.4207 1.45165 31.634C2.29185 32.4108 2.58719 32.5689 3.62379 32.7964L4.46666 32.9814V57.8609V82.7403H2.63301C0.907447 82.7403 0.775132 82.765 0.391802 83.1575C-0.127993 83.6894 -0.127495 84.3407 0.392632 84.873L0.801197 85.2912L42.3084 85.2477L83.8158 85.2042L84.3585 84.6491L84.9012 84.0939L84.9524 80.9081C85.0022 77.8072 84.9932 77.7066 84.6154 77.1328C83.9566 76.1323 83.8758 76.1187 78.5814 76.1159C72.8752 76.1129 72.5399 76.0509 71.1356 74.7372C69.6044 73.3048 68.3908 71.2047 66.721 67.0978C66.2484 65.9349 65.3081 63.6435 64.6317 62.0058C61.5523 54.549 58.6392 50.7763 54.414 48.773C52.2705 47.7567 51.2459 47.5441 48.0043 47.443L45.1405 47.3538V40.1567V32.9597L45.597 32.8598C48.0849 32.3148 49.4776 30.6749 49.4776 28.2901C49.4776 26.3757 49.3111 26.1511 43.6796 20.464C39.6165 16.3609 38.5342 15.3556 38.1325 15.3116C37.4694 15.239 36.8397 15.8345 36.8397 16.534C36.8397 16.9807 37.4996 17.7253 41.9032 22.2482C46.9514 27.433 46.9667 27.4508 46.9667 28.1703C46.9667 29.3698 46.502 29.9903 45.3601 30.3162C44.4714 30.5699 43.8583 30.0126 34.4878 20.4307C25.9378 11.6879 25.2057 10.982 24.7036 10.9966C24.2149 11.0109 23.2382 11.9568 14.8531 20.5382C7.88459 27.6699 5.40664 30.1048 4.99392 30.2258C3.38506 30.6982 1.93243 28.8868 2.7117 27.3798C2.84236 27.1275 7.6422 22.1319 13.3782 16.2788C21.2832 8.21244 23.9237 5.61569 24.2879 5.5501C25.3063 5.36693 25.6991 5.67228 29.7145 9.76909C33.5783 13.7113 33.651 13.7745 34.2693 13.7211C35.0778 13.6516 35.6102 12.9968 35.441 12.28C35.2675 11.5456 27.6841 3.84426 26.7106 3.41384C25.7754 3.00059 24.6566 2.86228 23.8463 3.06007ZM33.7654 23.2609L42.6503 32.3449V43.1842V54.0236H38.1001H33.5499L33.4835 49.9879C33.4199 46.1324 33.3977 45.9001 32.983 44.7834C31.9276 41.9413 29.7621 39.8935 27.023 39.1474C25.71 38.7897 23.4798 38.8315 22.1943 39.2378C20.1163 39.8947 17.9304 41.7836 17.0032 43.7231C16.1986 45.4061 16.0919 46.1687 16.0897 50.2428L16.0878 54.0236H11.5223H6.95689V43.1066V32.1898L15.7967 23.1408C20.6587 18.1637 24.6915 14.1108 24.7586 14.1342C24.8257 14.1577 28.8788 18.2647 33.7654 23.2609ZM23.9411 23.7953C22.1878 24.0243 20.561 25.2729 19.758 27.006C19.1756 28.2631 19.1418 30.4144 19.6855 31.6238C20.1905 32.7475 21.2791 33.8868 22.3728 34.4367C23.1867 34.8457 23.5052 34.9072 24.8036 34.9058C26.1136 34.9044 26.4058 34.8462 27.1749 34.4327C30.0253 32.9006 31.0926 29.4692 29.5948 26.6525C28.4929 24.5805 26.3234 23.4842 23.9411 23.7953ZM26.4788 26.7769C27.4535 27.4306 28.01 28.9196 27.7082 30.0668C27.4895 30.898 26.6576 31.9036 25.9321 32.2139C25.1768 32.5369 24.1498 32.4992 23.4273 32.1216C22.6665 31.7242 22.3172 31.3383 21.9876 30.5312C21.0348 28.1971 22.9968 25.8267 25.4369 26.3635C25.7854 26.4401 26.2542 26.6262 26.4788 26.7769ZM27.4094 41.9899C28.6621 42.5883 29.7718 43.7548 30.4192 45.1535L30.9461 46.2921L31.0013 50.1578L31.0564 54.0236H24.8172H18.578V50.2917C18.578 46.9257 18.6119 46.467 18.924 45.6133C19.5615 43.8692 21.0964 42.2918 22.7083 41.7246C23.9358 41.2927 26.2199 41.4215 27.4094 41.9899ZM51.8641 50.4489C54.7812 51.3901 57.2971 53.5253 59.3088 56.7671C60.4646 58.63 62.0253 62.0321 63.7042 66.3493C66.7987 74.3064 69.3796 77.7346 72.8317 78.4738C73.3475 78.5842 75.528 78.6622 78.1027 78.6622H82.494V80.7013V82.7403L77.8041 82.7375C72.5327 82.7341 71.5612 82.6061 69.6326 81.6605C67.2999 80.5169 65.6849 78.9664 63.8548 76.1134C62.7692 74.4213 61.6094 71.9277 59.6972 67.1753C57.1069 60.737 55.7067 58.1885 53.7097 56.2764C51.886 54.5304 50.3809 54.0236 47.0191 54.0236H45.1405V51.9627V49.9019L47.9212 49.9879C50.1608 50.0572 50.9281 50.147 51.8641 50.4489ZM9.94517 69.6564V82.7403H8.45103H6.95689V69.6564V56.5724H8.45103H9.94517V69.6564ZM18.5375 69.6988L18.58 82.7403H15.5077H12.4354V69.6525V56.5647L15.4652 56.611L18.495 56.6573L18.5375 69.6988ZM28.5019 58.9938L28.4559 61.4152L24.7621 61.4609L21.0682 61.5066V59.0395V56.5724H24.8081H28.5481L28.5019 58.9938ZM37.0057 69.6564V82.7403H34.0174H31.0292V69.6564V56.5724H34.0174H37.0057V69.6564ZM42.6503 62.9157C42.7291 68.862 42.7494 69.1864 43.0555 69.4152C43.5054 69.7519 44.202 69.7157 44.6655 69.3316L45.0575 69.0069L45.105 62.7706L45.1524 56.5341L47.4292 56.6042C50.0906 56.6861 50.7701 56.9173 52.1042 58.1945C53.7169 59.7385 55.1179 62.3791 57.4188 68.212C60.3721 75.6984 62.8006 79.8117 65.6086 82.0836L66.4204 82.7403H55.7881H45.1559L45.1068 78.2221C45.0575 73.7066 45.0573 73.7037 44.6655 73.3794C44.1558 72.9573 43.4697 72.9664 43.0137 73.4013C42.6576 73.7408 42.6503 73.8375 42.6503 78.244V82.7403H41.0731H39.496V69.7697C39.496 62.6357 39.5484 56.7452 39.6127 56.6796C39.6767 56.6138 40.3679 56.5821 41.1483 56.6087L42.5672 56.6573L42.6503 62.9157ZM28.5389 66.4278V68.8068H24.8036H21.0682V66.4278V64.0489H24.8036H28.5389V66.4278ZM28.5389 73.7345V76.1134H24.8036H21.0682V73.7345V71.3556H24.8036H28.5389V73.7345ZM28.5389 80.7013V82.7403H24.8036H21.0682V80.7013V78.6622H24.8036H28.5389V80.7013Z" fill="#4A5568"/>
</svg>
