<svg width="85" height="87" viewBox="0 0 85 87" fill="none" xmlns="http://www.w3.org/2000/svg">
<path fill-rule="evenodd" clip-rule="evenodd" d="M32.1534 0.399109C31.9287 0.628573 31.7447 1.00625 31.7447 1.2386C31.7447 1.48965 31.4642 1.99192 31.0524 2.47737C29.3139 4.52843 29.3167 6.25977 31.0621 8.37151C31.4375 8.82568 31.7447 9.37588 31.7447 9.59395C31.7447 9.82512 31.4094 10.3816 30.9406 10.9286C29.7604 12.3055 29.441 13.6466 30.092 14.4915C30.7716 15.3737 32.2441 14.8162 32.2441 13.6769C32.2441 13.4751 32.6199 12.8562 33.0791 12.3018C33.9488 11.2517 34.2395 10.5388 34.241 9.45237C34.2423 8.57429 33.912 7.8383 33.0088 6.70612C32.5883 6.17903 32.2441 5.63087 32.2441 5.48809C32.2441 5.10208 32.5538 4.57347 33.2669 3.74213C34.2939 2.54467 34.536 1.11639 33.8332 0.399109C33.3125 -0.132735 32.6742 -0.132735 32.1534 0.399109ZM39.6452 0.399109C39.4204 0.628573 39.2365 0.998433 39.2365 1.2211C39.2365 1.45175 38.8817 2.07708 38.4114 2.67555C36.8343 4.68174 36.8461 6.17733 38.4548 8.19372C38.9023 8.7548 39.2365 9.348 39.2365 9.58155C39.2365 9.81356 38.9481 10.3296 38.5682 10.778C37.7241 11.7735 37.4246 12.3655 37.3029 13.2793C37.1747 14.2408 37.666 14.9394 38.4703 14.9394C39.0812 14.9394 39.7359 14.3596 39.7359 13.819C39.7359 13.4386 40.0766 12.8737 40.7515 12.1349C41.7381 11.055 42.0133 9.35939 41.4138 8.05553C41.2418 7.68159 40.7939 7.00408 40.4185 6.54974C40.0431 6.09557 39.7359 5.58226 39.7359 5.40906C39.7359 5.23585 40.0801 4.66288 40.5006 4.13579C41.4113 2.99442 41.7337 2.26813 41.7337 1.35946C41.7337 0.140411 40.4683 -0.441406 39.6452 0.399109ZM47.4323 0.0955382C47.174 0.201771 46.7283 1.0501 46.7283 1.43577C46.7283 1.59028 46.364 2.16173 45.9188 2.70564C44.4101 4.54916 44.4047 6.25501 45.902 8.06301C46.9589 9.33916 46.9604 9.65922 45.9158 10.9881C44.5562 12.7177 44.4191 14.4151 45.6048 14.8408C46.392 15.1233 46.9402 14.799 47.2277 13.8807C47.3651 13.442 47.7473 12.7541 48.0771 12.3518C48.9721 11.2602 49.2255 10.6505 49.2255 9.58834C49.2255 8.40618 48.966 7.771 48.0543 6.72243C47.1117 5.63818 47.1222 5.24724 48.1279 3.98655C49.0549 2.82462 49.2255 2.42688 49.2255 1.42778C49.2255 0.82931 49.141 0.618544 48.7868 0.33418C48.3658 -0.0040658 47.8822 -0.0892221 47.4323 0.0955382ZM24.7772 17.4373C24.4703 17.5917 24.0208 18.0239 23.7783 18.3977C23.3717 19.0242 23.3329 19.2402 23.2823 21.1623L23.2272 23.2474L18.9537 23.3002L14.6801 23.3531L13.8913 23.8265C11.409 25.3163 11.3614 28.7234 13.8007 30.322L14.5787 30.8319L14.5878 33.236C14.5993 36.3011 14.8372 38.7106 15.3413 40.8705C15.969 43.5593 17.4312 47.0427 18.0813 47.3978C18.9429 47.8686 19.9243 47.3267 19.9243 46.3801C19.9243 46.0973 19.6716 45.3516 19.3626 44.7229C17.8261 41.5966 17.2769 39.0308 17.1442 34.3588L17.0465 30.9169H39.0462H61.0459L61.0454 34.0189C61.0448 37.6014 60.8083 39.3156 59.9525 41.9406C58.1483 47.4742 54.2778 52.1266 49.2946 54.7516C45.9453 56.5159 43.7186 57.0944 39.8192 57.2132C36.523 57.3136 34.8318 57.0818 32.1324 56.1597C29.0681 55.113 26.6275 53.6247 24.1995 51.3226C22.9646 50.1517 22.6716 49.9538 22.1725 49.9538C21.4353 49.9538 20.9232 50.4498 20.9232 51.1637C20.9232 51.5922 21.1325 51.9032 22.014 52.7857C23.1148 53.8877 25.5172 55.7981 26.2091 56.1221C26.415 56.2185 26.5837 56.4189 26.5838 56.5676C26.5838 56.7162 25.9321 59.7242 25.1354 63.252L23.6869 69.6662L22.7699 69.9383C21.2635 70.3855 20.238 71.0146 19.0807 72.2015C15.7239 75.6447 15.7469 81.0342 19.1332 84.4594C20.2182 85.5568 21.9542 86.5212 23.387 86.8224C27.7412 87.7375 32.0229 85.0358 33.3105 80.5604C34.0207 78.0914 33.403 74.9653 31.8078 72.9566C31.1873 72.175 31.1608 72.0331 31.4315 70.9357L31.6177 70.1806H39.2257H46.8337L48.3836 77.022C49.236 80.7846 50.0694 84.1384 50.2356 84.4744C50.9072 85.8323 52.7763 86.8277 54.1695 86.5693C56.1227 86.2073 57.5374 84.6036 57.5461 82.7415C57.5499 81.9291 56.3437 76.3473 56.0386 75.7652C55.6297 74.9852 54.4911 75.0392 53.962 75.8636C53.7 76.2722 53.7196 76.4379 54.3706 79.3132C54.7467 80.9743 55.054 82.5014 55.0535 82.7065C55.053 82.9117 54.8748 83.2904 54.6579 83.5479C54.1673 84.1302 53.2225 84.1953 52.7194 83.6815C52.468 83.4248 51.7381 80.4685 49.5903 71.0053L46.7892 58.6639L48.1163 58.1312C48.8463 57.8382 49.4556 57.6186 49.4704 57.643C49.4854 57.6675 50.185 60.7471 51.0251 64.4865C52.6689 71.8038 52.6971 71.8803 53.7391 71.8803C54.3491 71.8803 54.886 71.3399 54.886 70.726C54.886 70.4651 54.1771 67.12 53.3106 63.2928C52.0281 57.6279 51.7781 56.3098 51.9655 56.2027C52.62 55.8287 54.9588 53.9521 55.9493 53.006C58.8085 50.2752 61.4473 45.9754 62.4717 42.3776L62.7344 41.4552H67.223C72.1781 41.4552 72.4601 41.4071 73.5053 40.3842C75.8261 38.113 74.7919 34.1591 71.6999 33.4821C71.2329 33.3798 69.2108 33.2965 67.1977 33.2965H63.5432L63.5455 32.0642L63.548 30.8319L64.3674 30.3704C65.3993 29.7896 66.0696 28.6967 66.1726 27.427C66.3017 25.8393 65.57 24.5058 64.1417 23.7255C63.5062 23.3784 63.1982 23.3495 59.6022 23.2994L55.7444 23.2457L55.6898 21.0758C55.6375 19.0016 55.6147 18.8785 55.1687 18.2823C54.2665 17.0758 55.2741 17.1487 39.5362 17.153C26.6769 17.1564 25.2823 17.1834 24.7772 17.4373ZM53.2212 21.4844V23.2701L39.5278 23.2266L25.8345 23.1831L25.7861 21.6668C25.7592 20.8329 25.7757 20.0488 25.8223 19.9246C25.8921 19.7393 28.3586 19.6987 39.5643 19.6987H53.2212V21.4844ZM63.301 26.235C63.8091 26.7537 63.8279 27.452 63.3477 27.974L62.9856 28.3673H39.1965C22.7464 28.3673 15.3055 28.3117 15.0773 28.1869C14.3041 27.7644 14.3491 26.415 15.1497 26.0198C15.3983 25.8971 22.9716 25.8371 39.2024 25.8292L62.8924 25.8177L63.301 26.235ZM71.814 36.3939C72.4438 37.0372 72.4411 37.9468 71.8081 38.5027C71.353 38.9024 71.3178 38.9056 67.3457 38.9056H63.3421L63.4614 37.5033C63.5272 36.7321 63.6166 36.0397 63.6604 35.9647C63.7042 35.8899 65.4548 35.8517 67.5505 35.8797L71.361 35.9311L71.814 36.3939ZM30.3712 58.2194C31.0351 58.466 31.5782 58.7281 31.5782 58.8017C31.5782 58.9579 29.1031 69.9956 28.9994 70.3019C28.9481 70.4535 28.7403 70.4234 28.2144 70.1879C27.8212 70.0116 27.219 69.8148 26.8764 69.7504C26.3473 69.6509 26.2662 69.5785 26.3376 69.2695C26.7072 67.6718 28.9145 57.8711 28.9145 57.828C28.9145 57.7085 29.2103 57.788 30.3712 58.2194ZM38.1755 59.7599C40.717 59.8469 43.0024 59.697 44.0908 59.3718C44.3169 59.3042 44.4298 59.5632 44.7151 60.8042C44.9066 61.6372 45.0634 62.3667 45.0634 62.4254C45.0634 62.4839 42.4413 62.5318 39.2365 62.5318C34.6838 62.5318 33.4104 62.4854 33.4135 62.3193C33.418 62.0882 33.6629 60.9417 33.9181 59.9579C34.0778 59.3424 34.0823 59.3397 34.7014 59.5007C35.0439 59.5896 36.6072 59.7062 38.1755 59.7599ZM45.8885 65.9708C45.9914 66.46 46.1181 67.0337 46.1702 67.2456L46.2649 67.631H39.2545C33.7567 67.631 32.2443 67.5851 32.2451 67.4185C32.2456 67.3017 32.3132 66.9383 32.3955 66.6111C32.4776 66.2839 32.5909 65.8058 32.6474 65.5488L32.7499 65.0814H39.2258H45.7017L45.8885 65.9708ZM27.3635 72.5865C28.5284 73.0315 29.7337 74.1746 30.416 75.4815C30.887 76.3834 30.9875 76.775 31.0473 77.9369C31.1307 79.558 30.8533 80.6053 30.0264 81.7929C27.7949 84.9974 23.3883 85.3285 20.7584 82.4895C19.5143 81.1465 19.1936 80.3009 19.1835 78.3367C19.1758 76.8431 19.2171 76.6324 19.7224 75.5835C21.129 72.6639 24.305 71.4181 27.3635 72.5865ZM23.12 74.3602C20.3818 75.7533 19.9408 79.5918 22.2837 81.6393C22.987 82.2539 24.2502 82.7585 25.0853 82.7585C25.9559 82.7585 27.2716 82.2275 27.9517 81.6017C30.2563 79.4804 29.7564 75.6295 27.0067 74.3223C25.8079 73.7524 24.2857 73.7672 23.12 74.3602ZM26.1896 76.7707C27.2832 77.6752 27.1431 79.3071 25.9159 79.955C25.3057 80.2771 24.8629 80.2761 24.2474 79.9511C23.0351 79.311 22.9467 77.5983 24.0788 76.6875C24.467 76.375 25.7734 76.4267 26.1896 76.7707Z" fill="#4A5568"/>
</svg>
