<svg width="85" height="87" viewBox="0 0 85 87" fill="none" xmlns="http://www.w3.org/2000/svg">
<path fill-rule="evenodd" clip-rule="evenodd" d="M39.4821 9.10034C25.9249 10.055 13.3519 16.3973 4.00225 26.9982C1.36609 29.9873 0.684924 30.9554 0.286819 32.2789C-1.20002 37.2212 3.36591 41.6696 7.71436 39.515C8.43752 39.1566 8.98106 38.6015 11.5714 35.5759C16.9581 29.2838 24.8721 24.3022 32.7128 22.2679C38.3454 20.8066 44.4867 20.6069 50.0917 21.7029C56.3481 22.9264 62.326 25.7233 67.7976 29.9871C69.3653 31.2089 72.6391 34.4367 75.6003 37.6804C77.1232 39.3485 77.8185 39.6921 79.6707 39.6921C83.2616 39.6921 85.8104 35.7451 84.6772 31.939C84.2147 30.3853 82.9231 28.7289 79.262 24.9938C75.4479 21.1028 70.8172 17.4323 69.7225 17.4323C68.8387 17.4323 68.3092 18.3057 68.6471 19.2068C68.7034 19.357 69.3943 19.9324 70.1827 20.4853C72.7349 22.2759 75.2162 24.4123 77.6775 26.9389C80.5879 29.9261 82.0784 31.7917 82.3354 32.7689C82.9075 34.9434 81.5493 37.1432 79.6345 37.1432C78.4946 37.1432 78.0778 36.8661 76.65 35.1587C68.6298 25.5683 57.885 19.6883 46.4025 18.6063C43.7985 18.3607 38.9396 18.4918 36.5036 18.8729C25.8413 20.5412 16.2208 26.097 8.89755 34.8151C7.89283 36.0114 6.83879 37.1128 6.5554 37.2629C5.46584 37.8394 4.00856 37.4685 3.24904 36.4212C2.03745 34.7509 2.21028 33.1744 3.83574 31.0702C5.20271 29.3007 8.99069 25.3592 10.9372 23.6812C25.8547 10.8213 45.6131 7.98871 62.9649 16.2223C63.7765 16.6073 64.6171 16.9225 64.8326 16.9225C65.738 16.9225 66.2676 15.4573 65.5891 14.8288C65.1178 14.3922 62.0275 12.9574 59.6628 12.077C53.4093 9.74945 45.9313 8.64631 39.4821 9.10034ZM40.073 27.9041C34.0363 28.4132 28.2214 30.4629 23.1394 33.8731C20.6471 35.5455 18.6662 37.2391 16.3679 39.6622C14.0356 42.1214 13.5091 43.1649 13.5244 45.2995C13.5427 47.8504 14.5909 49.6918 16.6131 50.7261C17.4631 51.1609 17.8249 51.2464 18.808 51.2451C20.6634 51.2425 21.3603 50.8189 24.2122 47.96C28.4334 43.7284 32.2324 41.5536 37.5195 40.3418C39.0105 40.0001 39.6906 39.9471 42.5632 39.9481C46.1855 39.9495 47.2797 40.1111 50.268 41.0853C54.4048 42.4339 57.7737 44.6412 61.3899 48.3718C63.5853 50.6367 64.2181 50.9856 66.1374 50.9893C67.215 50.9914 67.6216 50.9132 68.293 50.5751C71.1551 49.1336 72.2998 45.4162 70.8514 42.2671C70.374 41.229 66.1809 36.9441 64.0622 35.3291C59.0804 31.5317 53.6743 29.1909 47.6735 28.2329C45.9712 27.9612 41.625 27.7731 40.073 27.9041ZM45.3855 30.5224C51.7351 31.1333 57.8561 33.614 62.8937 37.6182C64.7477 39.0919 67.9722 42.3092 68.4774 43.1892C69.5356 45.0332 68.8581 47.5465 67.1 48.2984C65.8198 48.8459 64.7736 48.4187 63.353 46.7688C62.2206 45.4534 59.6673 43.232 57.9197 42.0417C56.2766 40.9228 52.7013 39.1492 50.9923 38.6054C47.8289 37.5988 46.4978 37.41 42.5632 37.41C38.5413 37.41 37.0405 37.6329 33.9304 38.6919C29.4528 40.2166 24.6926 43.4387 21.4621 47.1318C20.3443 48.4097 19.8494 48.6979 18.7732 48.6979C16.6169 48.6979 15.2189 45.8047 16.3209 43.6234C16.4669 43.3349 17.2734 42.3629 18.1134 41.4635C25.4852 33.5711 35.4639 29.5678 45.3855 30.5224ZM40.488 46.7768C36.5189 47.2114 32.3873 49.086 29.2466 51.877C28.5158 52.5266 28.0651 53.1059 27.7 53.8649C25.7025 58.0176 28.7099 63.0288 32.9318 62.5829C34.0712 62.4624 35.0457 62.0128 36.0844 61.1281C37.0322 60.3206 38.6816 59.4062 39.9501 58.985C40.8835 58.6749 41.1521 58.359 41.1521 57.5714C41.1521 57.0746 40.8242 56.6579 40.2768 56.4591C39.847 56.303 37.5691 57.0882 36.449 57.7784C35.9168 58.1065 35.0351 58.7182 34.4897 59.1378C33.9443 59.5573 33.2333 59.9515 32.9097 60.0137C31.2205 60.3381 29.5358 58.6448 29.532 56.619C29.529 55.1048 30.3582 53.9861 32.6627 52.3944C38.2509 48.5348 45.2131 48.2048 51.03 51.5237C52.6013 52.4202 54.3633 53.8382 54.8786 54.6207C55.9011 56.1736 55.3135 58.8406 53.7689 59.6581C53.5043 59.7981 52.9186 59.9128 52.4675 59.9128C51.7932 59.9128 51.5038 59.8066 50.8406 59.3157C48.2977 57.4334 46.2126 56.402 45.3817 56.6154C44.5262 56.8353 44.1732 58.0537 44.7974 58.6319C44.9762 58.7976 45.6865 59.184 46.3754 59.4905C47.0646 59.7972 48.1712 60.4737 48.8348 60.9938C50.2692 62.1182 51.1301 62.4616 52.5155 62.4616C54.6329 62.4616 56.2884 61.3547 57.2919 59.2681C57.7872 58.2387 57.8363 57.9962 57.8325 56.6029C57.829 55.2809 57.7628 54.9234 57.3517 54.0041C56.5469 52.2049 54.0852 50.1513 50.8676 48.5948C47.767 47.0949 43.85 46.4087 40.488 46.7768ZM40.737 66.938C37.5102 68.0335 35.5836 71.1416 36.1572 74.3272C37.1034 79.5838 43.0657 81.6745 46.8713 78.0842C48.3572 76.6822 49.193 74.1514 48.8129 72.2049C48.1903 69.0175 45.805 66.8814 42.7367 66.7639C41.9357 66.7331 41.1353 66.8028 40.737 66.938ZM43.6956 69.4406C44.483 69.6644 45.5443 70.6265 46.0125 71.5409C46.8212 73.12 46.2901 75.3765 44.8439 76.5055C42.2657 78.5182 38.5619 76.595 38.5863 73.2562C38.6064 70.529 41.0649 68.693 43.6956 69.4406Z" fill="#4A5568"/>
</svg>
