<svg width="300" height="71" viewBox="0 0 300 71" fill="none" xmlns="http://www.w3.org/2000/svg">
<g clip-path="url(#clip0_54:58)">
<path d="M17.3636 31.7893L26.5921 4.63112C26.8349 4.10091 27.1385 3.21724 27.1385 4.63112V42.688C27.1385 45.0444 25.0135 45.5157 22.0993 45.5157V45.7514H37.5205V45.5157C34.6062 45.5157 32.542 44.9855 32.4813 42.688V4.63112C32.4813 2.27466 34.6062 1.80336 37.5205 1.80336V1.56772H27.2599L19.4279 24.661L10.5637 1.56772H0V1.80336C2.91384 1.80336 5.09952 2.27466 5.09952 4.63112V41.5097C5.09952 43.8662 2.91384 45.5157 0 45.5157V45.7514H10.5637V45.5157C7.64948 45.5157 5.52451 43.8073 5.4638 41.5097V4.63112C5.4638 2.62813 5.9495 4.10091 6.07093 4.63112L16.5744 31.7304C16.7565 32.2606 16.9386 32.9086 17.3636 31.7893ZM48.6857 27.6655C48.9285 26.5462 49.3535 26.4284 49.9606 26.4284H57.307C57.9141 26.4284 58.3391 26.6051 58.5819 27.7244L62.2855 42.688C62.9533 45.0444 61.3747 45.5157 58.4605 45.5157V45.7514H72.1817V45.5157C69.2675 45.5157 68.2354 44.7499 67.7497 42.688L57.4284 1.56772H54.8177L44.9821 40.9795C44.6179 42.4523 43.6464 45.5157 40.7322 45.5157V45.7514H50.6285V45.5157C47.7142 45.5157 44.7393 43.9251 45.3464 40.9795L48.6857 27.6655ZM53.2999 8.99057C53.7856 8.99057 53.907 8.93166 54.1499 9.81533L57.8534 24.8967C58.0962 25.8393 57.9141 26.1927 57.307 26.1927L49.8392 26.1338C49.3535 26.1338 49.1714 25.7214 49.4142 24.7789L53.2999 8.99057ZM87.0332 24.4254C85.3333 24.4254 85.0297 24.4843 85.0297 23.365V4.69003C85.0297 2.39248 87.1547 1.86228 88.8546 1.86228C96.4438 1.86228 96.2617 24.4254 88.8546 24.4254H87.0332ZM85.0297 25.8982C85.0297 24.8378 85.3333 24.8378 87.0332 24.8378H88.9761C95.6545 24.8378 92.0117 51.4069 106.097 44.5731V44.2197C97.5974 48.5202 104.337 28.667 90.6153 24.661C104.033 22.658 102.151 1.56772 88.8546 1.56772H74.6477V1.80336C78.1691 1.80336 79.6262 2.33357 79.6869 4.63112V42.688C79.6262 44.9855 77.562 45.5157 74.6477 45.5157V45.7514H90.0689V45.5157C88.3689 45.5157 85.0297 44.9855 85.0297 42.688V25.8982ZM124.159 45.7514V45.5157C121.245 45.5157 119.12 45.0444 119.12 42.688V4.63112C119.12 2.33357 121.245 1.80336 124.159 1.80336V1.56772H108.738V1.80336C111.653 1.80336 113.777 2.27466 113.777 4.63112V42.688C113.717 44.9855 111.653 45.5157 108.738 45.5157V45.7514H124.159ZM143.751 1.92119C138.347 -0.258538 129.787 3.92418 129.787 9.81533C129.787 19.9481 146.118 29.0205 145.451 39.5067C145.147 44.2786 138.529 47.9311 134.522 44.0429C132.579 42.1577 131.244 38.9176 130.394 34.7938H130.09V45.3979H130.394C131.608 44.0429 132.944 44.1018 134.097 44.7499C139.197 47.6365 149.033 46.4583 150.551 39.6835C152.979 28.5492 136.708 19.359 135.129 9.81533C134.279 4.5722 138.286 0.0949305 143.629 2.33357C146.301 3.45289 148.001 7.6356 149.033 12.5842H149.336V1.9801H149.033C147.272 3.86527 145.633 2.68704 143.751 1.92119ZM162.182 45.7514H177.603V45.5157C174.689 45.5157 172.625 44.9855 172.564 42.688V4.63112C172.625 2.33357 174.689 1.80336 176.389 1.80336H177.725C182.461 1.80336 185.921 7.04649 185.982 9.34404H186.103L184.889 1.56772H154.897L153.682 9.34404H153.804C153.865 7.04649 157.325 1.80336 162.061 1.80336H163.397C165.096 1.80336 167.161 2.33357 167.221 4.63112V42.688C167.161 44.9855 165.096 45.5157 162.182 45.5157V45.7514ZM200.513 22.3635C198.813 22.3635 198.57 22.4224 198.57 21.3031V4.63112C198.631 2.33357 200.695 1.80336 202.395 1.80336H203.123C207.859 1.80336 211.198 7.04649 211.259 9.34404H211.502L210.287 1.56772H188.188V1.80336C191.102 1.80336 193.166 2.33357 193.227 4.63112V42.688C193.166 44.9855 191.102 45.5157 188.188 45.5157V45.7514H210.287L211.502 37.975H211.259C211.198 40.2726 207.859 45.5157 203.123 45.5157H202.395C200.695 45.5157 198.57 44.9855 198.57 42.688V23.7774C198.57 22.717 198.813 22.717 200.513 22.717C203.427 22.717 204.338 25.4858 204.398 27.7833H204.641V16.708H204.398C204.338 19.0055 203.427 22.3635 200.513 22.3635ZM225.725 4.63112C225.725 2.33357 227.85 1.80336 230.764 1.80336V1.56772H215.343V1.80336C218.257 1.80336 220.382 2.27466 220.382 4.63112V42.688C220.321 44.9855 218.257 45.5157 215.343 45.5157V45.7514H237.443L238.657 37.975H238.414C238.353 40.2726 235.014 45.5157 230.278 45.5157H229.55C227.85 45.5157 225.725 44.9855 225.725 42.688V4.63112ZM252.583 4.63112C252.583 2.33357 254.708 1.80336 257.623 1.80336V1.56772H242.201V1.80336C245.116 1.80336 247.241 2.27466 247.241 4.63112V42.688C247.18 44.9855 245.116 45.5157 242.201 45.5157V45.7514H264.301L265.515 37.975H265.273C265.212 40.2726 261.873 45.5157 257.137 45.5157H256.408C254.708 45.5157 252.583 44.9855 252.583 42.688V4.63112ZM275.828 27.6655C276.07 26.5462 276.495 26.4284 277.103 26.4284H284.449C285.056 26.4284 285.481 26.6051 285.724 27.7244L289.427 42.688C290.095 45.0444 288.517 45.5157 285.602 45.5157V45.7514H299.324V45.5157C296.409 45.5157 295.377 44.7499 294.892 42.688L284.57 1.56772H281.96L272.124 40.9795C271.76 42.4523 270.788 45.5157 267.874 45.5157V45.7514H277.77V45.5157C274.856 45.5157 271.881 43.9251 272.488 40.9795L275.828 27.6655ZM280.442 8.99057C280.928 8.99057 281.049 8.93166 281.292 9.81533L284.995 24.8967C285.238 25.8393 285.056 26.1927 284.449 26.1927L276.981 26.1338C276.495 26.1338 276.313 25.7214 276.556 24.7789L280.442 8.99057Z" fill="white"/>
<path d="M84.0678 70.015L83.744 68.6797C83.92 68.6535 84.088 68.6274 84.2499 68.6012C84.4118 68.5619 84.5474 68.5226 84.6547 68.4833C84.9248 68.3917 85.1272 68.2607 85.2618 68.0906C85.4105 67.9073 85.5188 67.6062 85.5856 67.1873C85.6666 66.7683 85.7344 66.1531 85.788 65.3414L86.3951 56.0922H94.0652V69.7401H92.3653L92.4665 57.5454H87.9939L87.4475 65.361C87.3938 66.2905 87.2927 67.0825 87.1439 67.7371C87.0093 68.3786 86.7594 68.863 86.3951 69.1903C86.0986 69.4521 85.7414 69.655 85.3225 69.799C84.9046 69.9431 84.4867 70.015 84.0678 70.015ZM101.951 69.7401V56.0922H108.852V57.5454L103.651 57.4865L103.55 62.1012H108.366V63.4955H103.55L103.651 68.3262L108.852 68.287V69.7401H101.951ZM115.989 69.7205L116.07 62.4154L116.11 56.0922H122.404V57.5454H117.709L117.75 61.787C118.02 61.7608 118.371 61.7347 118.802 61.7085C119.247 61.6823 119.72 61.6692 120.219 61.6692C120.961 61.6692 121.649 61.7936 122.283 62.0423C122.917 62.291 123.43 62.723 123.821 63.3384C124.226 63.9405 124.428 64.7849 124.428 65.8716C124.428 67.1676 124.058 68.1822 123.315 68.9153C122.573 69.6353 121.399 69.9954 119.794 69.9954C118.971 69.9954 118.229 69.9692 117.567 69.9168C116.907 69.8645 116.38 69.799 115.989 69.7205ZM120.34 63.1224C119.868 63.1224 119.389 63.1486 118.903 63.2009C118.417 63.2532 118.04 63.2991 117.77 63.3384L117.79 68.3851C118.06 68.4375 118.411 68.4833 118.842 68.5226C119.288 68.5619 119.753 68.5815 120.239 68.5815C121.062 68.5815 121.629 68.4767 121.939 68.2673C122.087 68.1626 122.236 67.9597 122.384 67.6586C122.546 67.3444 122.627 66.8272 122.627 66.1072C122.627 65.5704 122.586 65.0599 122.505 64.5755C122.424 64.078 122.27 63.7181 122.04 63.4955C121.878 63.3384 121.662 63.2402 121.392 63.2009C121.123 63.1486 120.772 63.1224 120.34 63.1224ZM131.411 69.7401V56.0922H138.312V57.5454L133.111 57.4865L133.01 62.1012H137.826V63.4955H133.01L133.111 68.3262L138.312 68.287V69.7401H131.411ZM143.85 71.7824V68.287C144.026 68.287 144.194 68.2804 144.356 68.2673C144.532 68.2411 144.707 68.1822 144.882 68.0906C145.18 67.9465 145.416 67.6323 145.591 67.148C145.767 66.6636 145.881 65.9435 145.935 64.9879L146.542 56.0922H154.212V68.287H155.608V71.7824H153.908L153.929 69.7401H145.53L145.55 71.7824H143.85ZM147.513 65.6948C147.46 66.3494 147.379 66.8797 147.27 67.2855C147.176 67.6913 147.042 68.0251 146.866 68.287H152.512L152.552 62.8278L152.512 57.5454H148.12L147.513 65.6948ZM162.551 69.7401V56.0922H169.452V57.5454L164.251 57.4865L164.15 62.1012H168.966V63.4955H164.15L164.251 68.3262L169.452 68.287V69.7401H162.551ZM163.118 54.7765V53.1663H165.121V54.7765H163.118ZM166.902 54.7765V53.1663H168.885V54.7765H166.902ZM181.001 70.015C180.327 70.015 179.659 69.9888 178.997 69.9365C178.35 69.8842 177.803 69.8252 177.358 69.7598C176.913 69.7074 176.664 69.6746 176.609 69.6616L176.69 63.3973L176.589 56.0529C176.657 56.0399 176.913 56.0202 177.358 55.994C177.817 55.9548 178.364 55.9155 178.997 55.8762C179.632 55.8369 180.252 55.8173 180.859 55.8173C181.602 55.8173 182.27 55.9285 182.863 56.1511C183.457 56.3737 183.929 56.7533 184.279 57.2901C184.643 57.8137 184.826 58.5403 184.826 59.4698C184.826 60.1113 184.732 60.635 184.542 61.0408C184.367 61.4466 184.145 61.7608 183.874 61.9834C183.618 62.1928 183.362 62.3434 183.105 62.435C182.863 62.5267 182.68 62.5791 182.559 62.5921V62.6707C182.761 62.6838 183.011 62.7427 183.308 62.8474C183.605 62.939 183.895 63.0961 184.178 63.3187C184.476 63.5282 184.718 63.8359 184.907 64.2417C185.096 64.6344 185.19 65.1384 185.19 65.7537C185.19 66.6047 185.069 67.3117 184.826 67.8746C184.597 68.4244 184.279 68.8564 183.874 69.1706C183.47 69.4848 183.018 69.7008 182.519 69.8187C182.033 69.9495 181.527 70.015 181.001 70.015ZM180.94 62.003C181.777 62.003 182.336 61.8132 182.62 61.4336C182.917 61.0408 183.065 60.4058 183.065 59.5287C183.065 58.5992 182.89 57.9512 182.539 57.5846C182.189 57.2181 181.602 57.0348 180.778 57.0348C180.198 57.0348 179.685 57.0544 179.24 57.0937C178.809 57.133 178.491 57.1657 178.289 57.1919V61.9834L180.94 62.003ZM181.223 68.7386C182.101 68.7386 182.68 68.503 182.964 68.0317C183.247 67.5604 183.389 66.8338 183.389 65.8519C183.389 64.8701 183.153 64.1958 182.68 63.8293C182.222 63.4628 181.588 63.2795 180.778 63.2795H178.289L178.329 68.5422C178.465 68.5553 178.795 68.5946 179.321 68.6601C179.861 68.7124 180.495 68.7386 181.223 68.7386ZM200.354 69.7401L194.424 62.7296L199.848 56.0922H201.993L196.428 62.5921V62.71L202.621 69.7401H200.354ZM192.664 69.7401L192.724 62.8082L192.664 56.0922H194.364V69.7401H192.664ZM205.963 69.7401L209.788 56.0922H212.176L216.001 69.7401H214.261L213.309 66.1269H208.655L207.703 69.7401H205.963ZM209.019 64.6737H212.945L211.063 57.5454H210.901L209.019 64.6737Z" fill="white"/>
<path d="M78 63H47M252 63H221" stroke="#E1B900" stroke-width="2"/>
</g>
<defs>
<clipPath id="clip0_54:58">
<rect width="300" height="70.7641" fill="white"/>
</clipPath>
</defs>
</svg>
